<?xml version="1.0" standalone="no"?>
<!DOCTYPE svg PUBLIC "-//W3C//DTD SVG 1.1//EN" "http://www.w3.org/Graphics/SVG/1.1/DTD/svg11.dtd" >
<svg xmlns="http://www.w3.org/2000/svg" xmlns:xlink="http://www.w3.org/1999/xlink" version="1.1">
<metadata>
Created by FontForge 20190801 at Thu May 28 03:26:49 2020
 By www-data
2013 Chess.com
</metadata>
<defs>
<font id="ChessGlyphRegular" horiz-adv-x="600" >
  <font-face 
    font-family="ChessGlyphRegular"
    font-weight="400"
    font-stretch="normal"
    units-per-em="1000"
    panose-1="0 0 5 0 0 0 0 0 0 0"
    ascent="800"
    descent="-200"
    x-height="550"
    cap-height="604"
    bbox="-41 -200 2400 800"
    underline-thickness="50"
    underline-position="-100"
    unicode-range="U+0020-25CA"
  />
<missing-glyph horiz-adv-x="500" 
d="M410 -200h-317v1000h317v-1000zM168 733v-33h65v-37h-66v-33h166v33h-66v37h66v33h-165zM167 604v-104h166v34h-66v70h-100zM233 534h-33v36h33v-36zM167 473v-33h66v-37h-66v-33h100v70h66v33h-166zM300 413v-66h-133v-34h166v100h-33zM233 291v-56h34v23h33v-47h-100
v80h-33v-113h166v113h-100zM167 118v-113h166v113h-166zM300 38h-100v47h100v-47zM167 -18v-33h70l-70 -47v-33h166v33h-102l70 47h32v33h-166z" />
    <glyph glyph-name=".notdef" horiz-adv-x="500" 
d="M410 -200h-317v1000h317v-1000zM168 733v-33h65v-37h-66v-33h166v33h-66v37h66v33h-165zM167 604v-104h166v34h-66v70h-100zM233 534h-33v36h33v-36zM167 473v-33h66v-37h-66v-33h100v70h66v33h-166zM300 413v-66h-133v-34h166v100h-33zM233 291v-56h34v23h33v-47h-100
v80h-33v-113h166v113h-100zM167 118v-113h166v113h-166zM300 38h-100v47h100v-47zM167 -18v-33h70l-70 -47v-33h166v33h-102l70 47h32v33h-166z" />
    <glyph glyph-name=".null" horiz-adv-x="0" 
 />
    <glyph glyph-name="nonmarkingreturn" horiz-adv-x="333" 
 />
    <glyph glyph-name="space" unicode=" " horiz-adv-x="400" 
 />
    <glyph glyph-name="exclam" unicode="!" horiz-adv-x="704" 
d="M376 77q0 -15 -11 -26l-39 -40q-11 -11 -26 -11q-14 0 -27 11l-262 263q-11 11 -11 26q0 13 11 26l262 263q13 11 27 11q15 0 26 -11l39 -39q11 -11 11 -27t-11 -26l-198 -199l198 -195q11 -11 11 -26zM704 75q0 -14 -12 -26l-39 -39q-10 -12 -26 -12q-15 0 -27 12
l-261 262q-12 12 -12 26q0 16 12 26l261 263q11 11 27 11t26 -11l39 -39q12 -12 12 -27q0 -14 -12 -26l-198 -199l198 -195q12 -10 12 -26z" />
    <glyph glyph-name="quotedbl" unicode="&#x22;" 
d="M300 192q10 0 18 8l164 165q8 8 5 13q-2 5 -12 5h-100v162q0 11 -7 18t-18 7h-100q-11 0 -18 -7q-7 -9 -7 -18v-162h-100q-10 0 -13 -5v-2q0 -5 6 -11l164 -165q6 -6 18 -8zM504 252q-4 -4 -4 -9v-113h-400v113q0 5 -4 9q-3 3 -9 3h-74q-6 0 -9 -3q-4 -4 -4 -9v-200
q0 -13 13 -13h574q13 0 13 13v200q0 5 -4 9q-3 3 -9 3h-74q-6 0 -9 -3z" />
    <glyph glyph-name="numbersign" unicode="#" 
d="M133 573q10 -10 10 -26v-527q0 -17 -10 -27t-27 -10l-55 -1q-16 0 -27 11t-11 27v526q0 16 11 27t27 11l55 -1q17 0 27 -10zM587 61q0 -13 -11 -26l-39 -40q-13 -11 -27 -11t-27 11l-261 263q-12 11 -12 26q0 14 12 26l261 263q13 11 27 11t27 -11l39 -39q11 -13 11 -27
q0 -15 -11 -26l-199 -199l199 -195q11 -13 11 -26z" />
    <glyph glyph-name="dollar" unicode="$" horiz-adv-x="758" 
d="M272.5 225q-28.5 -52 -28.5 -113q0 -59 28 -112h-271v13q0 64 11 129t44 77l130 55q28 13 37 35q-28 31 -37 65l-8 5q-15 39 -13 80l6 4q-3 59 10 81q12 24 41 39.5t57 16.5h13q28 -1 57 -16.5t41 -39.5q13 -22 10 -81l6 -4q2 -41 -13 -80l-8 -5q-10 -35 -36 -64
q-48 -33 -76.5 -85zM757 -116q0 -4 -5 -12q-3 -5 -13 -15q-7 -8 -15 -13q-7 -6 -12 -6q-8 0 -14 6l-108 108q-23 -15 -50 -24q-29 -8 -55 -8q-39 0 -74 15q-33 14 -61 41q-27 28 -41 61q-15 35 -15 74q0 40 15 74t41 60q27 27 61 42q35 15 74 15t74 -15q34 -15 61 -42
q26 -26 41 -60t15 -74q0 -28 -9 -55q-7 -27 -23 -50l108 -108q5 -7 5 -14zM599 111q0 23 -9 44q-9 22 -25 36q-14 16 -36 25q-21 9 -44 9t-44 -9t-37 -25q-15 -15 -24 -36q-10 -20 -10 -44q0 -25 10 -45q9 -21 24 -36q16 -14 37 -25q21 -9 44 -9t44 9q22 11 36 25
q16 14 25 36q9 21 9 45z" />
    <glyph glyph-name="percent" unicode="%" horiz-adv-x="695" 
d="M327 141q-7 -17 -7 -35q0 -37 27 -64l42 -42h-389v13q0 64 11 128.5t44 76.5l130 56q14 6 23.5 15t13.5 19q-27 31 -37 66l-8 4q-15 40 -13 80l6 5q-3 58 10 81q12 23 41 39t57 16h13q28 0 56.5 -15.5t41.5 -39.5q13 -23 10 -81l6 -5q2 -40 -13 -80l-8 -4
q-10 -35 -37 -66q3 -9 13 -18.5t24 -15.5l46 -20l-83 -84q-13 -12 -20 -29zM674.5 216q19.5 -53 19.5 -110t-19.5 -110t-57.5 -96q-7 -8 -15 -3l-30 30q-4 3 -4 8t4 9q29 35 44 76.5t15 85.5q0 90 -59 163q-4 4 -4 8q0 5 4 8l30 30q2 2 6 2q5 0 9 -5q38 -43 57.5 -96z
M568 110q0 -73 -42 -123q-6 -8 -13 -1l-32 32q-5 6 0 13q25 34 25 75t-25 75q-5 7 0 13l32 32q7 7 13 -1q42 -51 42 -115zM439.5 135.5q12.5 -12.5 12.5 -29.5t-12.5 -29.5t-29.5 -12.5t-29 12.5t-12 29.5t12 29.5t29 12.5t29.5 -12.5z" />
    <glyph glyph-name="ampersand" unicode="&#x26;" 
d="M184 577q-57 -25 -96 -65q-39 -39 -64 -95q-24 -54 -24 -117t24 -117q25 -56 64 -95q39 -40 96 -65q55 -23 117 -23q61 0 116 23q55 24 96 65q39 39 64 95q23 52 23 117t-23 117q-25 56 -64 95q-41 41 -96 65q-55 23 -116 23q-62 0 -117 -23zM360 501q30 -9 54 -25
l-290 -289q-17 27 -25 53q-8 30 -8 60q0 46 16 82q16 38 45 66q28 28 66 45q40 17 83 17q32 0 59 -9zM241 99q-30 9 -53 24l290 290q15 -23 24 -53q9 -28 9 -60q0 -43 -17 -82q-17 -38 -45 -66q-29 -29 -67 -45q-39 -17 -81 -17q-31 0 -60 9z" />
    <glyph glyph-name="quotesingle" unicode="'" 
d="M600 300q0 -62 -23 -117q-25 -56 -64 -95q-43 -41 -96 -65q-55 -23 -117 -23q-60 0 -117 23q-54 24 -95 65q-42 42 -64 95q-24 54 -24 117t24 117q22 53 64 95q41 41 95 65q57 23 117 23q62 0 117 -23q53 -24 96 -65q39 -39 64 -95q23 -55 23 -117zM510 300q0 46 -16 82
q-17 38 -45 66t-67 45t-82 17q-42 0 -82 -17q-38 -17 -66 -45t-45 -66q-17 -39 -17 -82t17 -82q16 -37 45 -66q28 -28 66 -45q40 -17 82 -17q43 0 82 17t67 45t45 66q16 36 16 82zM411 203q0 -12 -9 -21l-21 -21q-9 -9 -22 -9q-12 0 -21 9l-91 91q-8 10 -8 21v142q0 11 8 21
q9 9 22 9h30q14 0 21 -9q8 -8 8 -21v-117l74 -73q9 -9 9 -22z" />
    <glyph glyph-name="parenleft" unicode="(" 
d="M183 577q-57 -25 -95 -65q-42 -42 -64 -95q-24 -54 -24 -117t24 -117q22 -53 64 -95q38 -40 95 -65q57 -23 117 -23q62 0 117 23q56 25 96 65q39 39 64 95q23 55 23 117t-23 117q-25 56 -64 95q-40 40 -96 65q-55 23 -117 23q-60 0 -117 -23zM346 252q-10 -9 -10 -25v-19
q0 -3 -3 -8q-3 -3 -8 -3h-61q-5 0 -8 3q-4 6 -4 8v24q0 17 5 30q5 14 12 24q10 14 16 20l17 15q10 8 24 22q9 11 9 25q0 13 -11 21q-10 9 -26 9q-10 0 -17 -3l-15 -6l-10 -7l-4 -3q-6 -2 -9 -2q-5 1 -7 5l-36 43q-5 8 1 14q0 1 8 7q3 4 19 14q21 9 33 13q18 6 42 6
q23 0 43 -7q22 -6 39 -20q17 -11 28 -32q10 -20 10 -46q0 -17 -5 -34q-4 -14 -13 -26q-5 -8 -17 -22q-12 -12 -19 -17q-14 -12 -23 -23zM333 98q-4 -4 -8 -4h-61q-4 0 -8 4t-4 8v59q0 2 4 8q3 3 8 3h61q5 0 8 -3q3 -4 3 -8v-59q0 -5 -3 -8z" />
    <glyph glyph-name="parenright" unicode=")" 
d="M183 577q-57 -25 -95 -65q-42 -42 -64 -95q-24 -54 -24 -117t24 -117q22 -53 64 -95q38 -40 95 -65q55 -23 117 -23t117 23q57 25 95 65q42 42 64 95q24 54 24 117t-24 117q-22 53 -64 95q-38 40 -95 65q-55 23 -117 23t-117 -23zM261 514q5 3 8 3h71q11 0 11 -11v-62
q0 -5 -4 -8q-3 -4 -7 -4h-71q-4 0 -8 4q-3 3 -3 8v62q0 5 3 8zM388 98q-5 -3 -8 -3h-151q-5 0 -8 3t-3 8v52q0 5 3 8t8 3h29v154h-32q-11 0 -11 11v52q0 5 3 8q4 4 8 4h114q4 0 8 -4q3 -3 3 -8v-217h29q11 0 11 -11v-52q0 -5 -3 -8z" />
    <glyph glyph-name="asterisk" unicode="*" 
d="M561 375q13 8 17 23q1 3 1 8q0 11 -6 20l-27 48q-8 14 -23 17q-8 2 -11 2q-7 0 -17 -5l-129 -75v150q0 15 -11 26q-13 11 -27 11h-55q-16 0 -27 -11t-11 -26v-150l-130 75q-10 5 -19 5q-22 0 -32 -19l-28 -48q-5 -10 -5 -19q0 -18 19 -32l130 -75l-130 -75
q-14 -10 -17 -23q-2 -6 -2 -10q0 -8 5 -18l28 -48q7 -13 23 -18q3 -1 9 -1q9 0 19 5l130 75v-150q0 -15 11 -26t27 -11h55q14 0 27 11q11 11 11 27v149l129 -75q10 -5 19 -5q23 0 32 19l28 48q5 10 5 19q0 19 -18 32l-131 75z" />
    <glyph glyph-name="plus" unicode="+" horiz-adv-x="696" 
d="M184 260v315h-81q-2 -37 -32 -53.5t-71 -16.5v-67h81v-178h103zM116 45h116l276 530h-117zM696 124h-156q0 6 32 19q53 23 86.5 49.5t33.5 74.5q0 100 -142 100q-71 0 -109 -36q-40 -35 -37 -102h93q-1 28 12 47t41 19q17 0 28 -11t11 -29q0 -14 -12 -24t-33 -21
q-19 -11 -22 -13q-41 -23 -67 -41.5t-43 -46t-15 -64.5h299v79z" />
    <glyph glyph-name="comma" unicode="," 
d="M411 0q14 0 27 11l39 40q11 13 11 26t-11 26l-198 195l198 199q11 11 11 26q0 14 -11 27l-39 39q-13 11 -27 11q-15 0 -26 -11l-262 -263q-11 -13 -11 -26q0 -15 11 -26l262 -263q11 -11 26 -11z" />
    <glyph glyph-name="hyphen" unicode="-" horiz-adv-x="675" 
d="M272 225q-28 -52 -28 -112t28 -113h-271v13q0 66 10.5 130t44.5 76l130 55q13 7 23 16.5t14 18.5q-29 31 -37 65l-8 5q-15 39 -13 79l6 5q-1 6 -1 20q0 40 10 61q13 23 42 39t56 16h14q27 0 56 -16t41 -39q7 -14 9.5 -37.5t0.5 -43.5l6 -5q2 -40 -13 -79l-8 -5
q-8 -32 -36 -64q-48 -33 -76 -85zM674 111q0 -38 -14 -74q-14 -33 -41 -61q-26 -25 -61 -40t-74 -15t-74 15t-61 40q-25 26 -40 61t-15 74q0 40 15 74q16 37 40 61q28 27 61 41q32 14 74 14t74 -14q33 -14 61 -41q26 -26 41 -61q14 -36 14 -74zM562 158q0 16 -6 29
q-8 12 -18 21q-10 7 -25 12t-27 5q-11 0 -27 -4q-13 -5 -20 -9q-10 -5 -13 -8l-5 -5q-4 -4 -1 -9l23 -27q2 -3 5 -3q4 0 5 1l3 2q3 3 6 4q4 2 10 4t11 2q9 0 16 -5q7 -6 7 -14t-6 -16l-14 -14q-8 -6 -12 -10q-7 -7 -10 -12q-2 -3 -7 -15q-3 -9 -3 -19v-15q0 -3 2 -5
q1 -2 5 -2h39q4 0 5 2q2 2 2 5v12q0 9 6 16l15 14l12 11q-1 -1 11 14q6 10 8 16q3 9 3 22zM505 30q-1 2 -5 2h-39q-4 0 -5 -2q-2 -2 -2 -5v-37q0 -3 2 -5q2 -3 5 -3h39q4 0 5 3q2 2 2 5v37q0 3 -2 5z" />
    <glyph glyph-name="period" unicode="." horiz-adv-x="320" 
d="M106.5 3.5q19.5 -20.5 53.5 -20.5t54 20.5t20 54.5t-20 54.5t-54 20.5t-53.5 -20.5t-19.5 -54.5t19.5 -54.5z" />
    <glyph glyph-name="slash" unicode="/" 
d="M463 17q6 9 6 21v525q0 11 -6 20t-18 14q-7 3 -14 3q-5 0 -8 -1q-9 -1 -18 -10l-263 -262q-11 -11 -11 -27q0 -13 11 -26l263 -263q8 -8 18 -10q2 -1 7 -1q8 0 15 3q10 4 18 14z" />
    <glyph glyph-name="zero" unicode="0" horiz-adv-x="620" 
d="M516.5 642q68.5 -101 68.5 -284q0 -182 -68 -278.5t-207 -96.5q-138 0 -206.5 97t-68.5 278q0 183 68.5 284t206.5 101t206.5 -101zM424.5 157.5q37.5 69.5 37.5 200.5q0 132 -38 206t-114 74t-113.5 -74t-37.5 -206q0 -131 37.5 -200.5t113.5 -69.5q77 0 114.5 69.5z
" />
    <glyph glyph-name="one" unicode="1" horiz-adv-x="620" 
d="M410 -1h-117v586l-119 -89l-76 77l210 157h102v-731z" />
    <glyph glyph-name="two" unicode="2" horiz-adv-x="620" 
d="M557 -1h-493v88l193 194q72 71 110.5 119t55.5 85q9 23 9 47q0 43 -30 73t-105 30q-35 0 -77.5 -22.5t-79.5 -54.5l-76 77q42 45 103 76t128 31q86 0 144.5 -29t87.5 -80q30 -54 30 -101q0 -62 -49.5 -137t-161.5 -187l-96 -96h307v-113z" />
    <glyph glyph-name="three" unicode="3" horiz-adv-x="620" 
d="M391 613q31 -26 31 -76t-44.5 -82.5t-139.5 -32.5v-98q94 0 150.5 -25t56.5 -98q0 -36 -20 -60.5t-50.5 -36.5t-59.5 -12q-47 0 -88 27.5t-68 66.5l-87 -63q41 -59 105.5 -100t141.5 -41q58 0 114.5 27.5t93 78t36.5 116.5q0 76 -39.5 123t-87.5 64q50 27 71 71t21 85
q0 50 -26.5 95t-76.5 72.5t-116 27.5t-121.5 -29t-90.5 -70l69 -74q31 29 69 49.5t74 20.5q51 0 82 -26z" />
    <glyph glyph-name="four" unicode="4" horiz-adv-x="620" 
d="M577 178h-77v-178h-118v178h-338v88l338 465h118v-445h77v-108zM382 286v270l-196 -270h196z" />
    <glyph glyph-name="five" unicode="5" horiz-adv-x="620" 
d="M451 436.5q57 -40.5 77.5 -96.5t20.5 -111q0 -80 -36 -136t-95 -83.5t-129 -27.5q-68 0 -124.5 12t-92.5 30l30 110q32 -16 81 -27.5t106 -11.5q39 0 71.5 19t51.5 51t19 70q0 69 -50 102.5t-117 33.5q-73 0 -152 -10l33 369h376v-113h-277l-15 -145q36 5 64 5
q101 0 158 -40.5z" />
    <glyph glyph-name="six" unicode="6" horiz-adv-x="620" 
d="M114.5 92.5q-61.5 110.5 -61.5 258.5q0 130 40.5 218t108 130.5t150.5 42.5q42 0 83 -9t72 -22l-36 -103q-16 10 -46 17t-70 7q-83 0 -130.5 -61.5t-52.5 -169.5q22 26 64 48.5t92 22.5q97 0 151 -41.5t72.5 -96t18.5 -104.5q0 -81 -39.5 -137t-96.5 -83.5t-108 -27.5
q-150 0 -211.5 110.5zM217.5 321.5q-28.5 -40.5 -28.5 -90.5q0 -9 1 -17t1 -11q3 -26 20.5 -51t47 -41t67.5 -16q32 0 61.5 18t47 49t17.5 68q0 64 -34.5 98t-92.5 34q-79 0 -107.5 -40.5z" />
    <glyph glyph-name="seven" unicode="7" horiz-adv-x="620" 
d="M557 731v-88l-259 -643h-138l249 618h-345v113h493z" />
    <glyph glyph-name="eight" unicode="8" horiz-adv-x="620" 
d="M526.5 327.5q32.5 -48.5 32.5 -127.5q0 -77 -39 -126t-96.5 -70t-113.5 -21t-113 21t-96 70t-39 126q0 79 32.5 128t67.5 69q-70 58 -70 151q0 48 28 93t78 73.5t112 28.5q63 0 113 -28.5t78 -73.5t28 -93q0 -93 -70 -151q35 -21 67.5 -69.5zM230 613.5
q-32 -27.5 -32 -74.5q0 -43 29.5 -75t82.5 -32q54 0 83 32t29 75q0 47 -31.5 74.5t-80.5 27.5q-48 0 -80 -27.5zM370.5 102.5q30.5 12.5 50.5 38t20 61.5q0 65 -38 98.5t-93 33.5q-54 0 -92 -33.5t-38 -98.5q0 -36 20 -61.5t50 -38t60 -12.5t60.5 12.5z" />
    <glyph glyph-name="nine" unicode="9" horiz-adv-x="620" 
d="M507.5 631.5q61.5 -110.5 61.5 -258.5q0 -130 -40.5 -218t-108 -130.5t-150.5 -42.5q-42 0 -83 9t-72 22l36 103q16 -10 46 -17t70 -7q83 0 130.5 61.5t52.5 169.5q-22 -26 -64 -48.5t-92 -22.5q-97 0 -151 41.5t-72.5 96t-18.5 104.5q0 81 39.5 137t96.5 83.5t108 27.5
q150 0 211.5 -110.5zM404.5 402.5q28.5 40.5 28.5 90.5q0 9 -1 17t-1 11q-3 26 -20.5 51t-47 41t-67.5 16q-32 0 -61.5 -18t-47 -49t-17.5 -68q0 -64 34.5 -98t92.5 -34q79 0 107.5 40.5z" />
    <glyph glyph-name="colon" unicode=":" horiz-adv-x="320" 
d="M106.5 428.5q19.5 -20.5 53.5 -20.5t54 20.5t20 54.5t-20 54.5t-54 20.5t-53.5 -20.5t-19.5 -54.5t19.5 -54.5zM106.5 110.5q19.5 -20.5 53.5 -20.5t54 20.5t20 54.5t-20 54.5t-54 20.5t-53.5 -20.5t-19.5 -54.5t19.5 -54.5z" />
    <glyph glyph-name="semicolon" unicode=";" 
d="M600 571v-542h-174v542h174zM213 435h174v-406h-174v406zM0 300h174v-271h-174v271z" />
    <glyph glyph-name="less" unicode="&#x3c;" 
d="M600 411q0 16 -12 26l-39 40q-10 12 -26 12q-15 0 -26 -12l-196 -198l-198 198q-11 12 -26 12t-27 -12l-39 -40q-11 -11 -11 -26q0 -14 11 -25l262 -264q13 -11 27 -11q15 0 26 11l263 264q11 10 11 25z" />
    <glyph glyph-name="equal" unicode="=" 
d="M600 417v-51q0 -14 -10 -23q-10 -10 -23 -10h-533q-14 0 -24 10t-10 23v51q0 14 10 23q9 10 24 10h533q14 0 23 -10q10 -9 10 -23zM590 257q10 -10 10 -24v-50q0 -14 -10 -23q-9 -10 -23 -10h-533q-15 0 -24 10q-10 9 -10 23v50q0 14 10 24t24 10h533q13 0 23 -10z" />
    <glyph glyph-name="greater" unicode="&#x3e;" 
d="M600 189q0 -15 -12 -26l-39 -40q-10 -12 -26 -12q-15 0 -26 12l-196 198l-198 -198q-10 -12 -26 -12q-15 0 -27 12l-39 40q-11 11 -11 26q0 14 11 25l262 264q13 11 27 11q15 0 26 -11l263 -264q11 -10 11 -25z" />
    <glyph glyph-name="question" unicode="?" 
d="M4 445q-4 -10 -4 -16q0 -13 12 -25l261 -261q12 -11 27 -11t27 11l262 261q11 13 11 26q0 8 -3 15q-10 23 -34 23h-524q-26 0 -35 -23z" />
    <glyph glyph-name="at" unicode="@" 
d="M390 284q0 -15 -12 -26l-261 -263q-13 -11 -27 -11t-27 11l-39 40q-11 13 -11 26t11 26l199 195l-199 199q-11 11 -11 26q0 14 11 27l39 39q13 11 27 11t27 -11l261 -263q12 -12 12 -26zM587 546v-526q0 -16 -11 -27t-27 -11l-55 1q-17 0 -27 10t-10 27v527q0 16 10 26
t27 10l55 1q16 0 27 -11t11 -27z" />
    <glyph glyph-name="A" unicode="A" 
d="M66 446q0 -13 10 -23l84 -85q-10 -12 -15.5 -32t-5.5 -41l-110 111q-29 29 -29 70q0 40 29 69l56 56q28 29 70 29q41 0 69 -29l170 -169q29 -29 29 -69q0 -29 -19 -58l-1 -2l-61 -60l-49 49l61 61q1 3 1 10q0 14 -8 22l-170 169q-9 10 -22 10q-14 0 -23 -10l-56 -56
q-10 -10 -10 -22zM600 155q0 -42 -29 -70l-56 -56q-29 -29 -69 -29q-41 0 -70 29l-170 169q-29 29 -29 69q0 30 19 58l1 2l48 48l49 -50l-48 -48q-1 -3 -1 -10q0 -14 8 -22l170 -169q10 -10 23 -10q12 0 22 10l56 56q10 9 10 23q0 13 -10 22l-84 85q12 13 17 33t4 40
l110 -111q29 -28 29 -69z" />
    <glyph glyph-name="B" unicode="B" 
d="M533 459q10 10 10 21q0 12 -10 22l-31 31q-10 10 -21 10q-12 0 -22 -10l-159 -159l-159 159q-8 10 -21 10q-11 0 -21 -10l-32 -31q-9 -9 -9 -22q0 -12 9 -21l161 -157l-161 -161q-9 -9 -9 -21q0 -13 9 -22l32 -31q9 -9 21 -9t21 9l159 159l159 -159q9 -9 21 -9q13 0 22 9
l31 32q10 10 10 21t-10 21l-160 157z" />
    <glyph glyph-name="C" unicode="C" 
d="M405 550q-17 0 -17 -29v-96q-99 0 -173 -27q-72 -25 -121 -71q-46 -43 -71 -105q-23 -61 -23 -128q0 -11 2 -33q1 -11 12 -11h1q11 0 12 11q6 45 32 88q26 42 70 71q43 30 109 48q63 17 150 19v-108q0 -23 12 -28q2 -1 6 -1q11 0 23 13l160 160q11 13 11 27q0 16 -11 27
l-160 160q-13 13 -24 13z" />
    <glyph glyph-name="D" unicode="D" 
d="M46 594q-14 -6 -24 -16q-11 -13 -16 -24q-6 -13 -6 -29v-450q0 -15 6 -29q5 -11 16 -24q10 -10 24 -16t29 -6h153v251h-40q-5 0 -9 4q-3 3 -3 8v66v2q0 10 12 10h40v33q0 115 118 115q40 0 73 -10q12 -1 10 -13l-9 -64q-2 -6 -5 -8q-2 -2 -5 -2q-2 -1 -5 -1q-7 2 -23 4
t-22 2q-17 0 -20 -5q-5 -7 -5 -22v-29h72q6 0 9 -3q3 -4 3 -10l-4 -65q0 -5 -4 -9q-3 -3 -8 -3h-68v-251h190q16 0 29 6q16 6 24 16q10 10 16 24t6 29v450q0 31 -22 53q-21 22 -53 22h-450q-15 0 -29 -6z" />
    <glyph glyph-name="E" unicode="E" horiz-adv-x="688" 
d="M688 412q0 -9 -1 -14v-1q-41 -166 -61 -254q-8 -32 -20.5 -42.5t-31.5 -10.5q-21 0 -30.5 13.5t-8.5 32.5v368q0 23 -16.5 39.5t-39.5 16.5h-376q-23 0 -39.5 -16.5t-16.5 -39.5v-408q0 -23 16.5 -39.5t39.5 -16.5h466q-11 -20 -33 -33.5t-51 -13.5h-382q-43 0 -73 30
t-30 73v408q0 43 30 73t73 30h376q43 0 73 -30t30 -73v-6l42 -8q32 -6 50 -33q14 -20 14 -45zM450 398h-320q-7 0 -12 5q-4 4 -4 12v63q0 7 4 12q5 5 12 5l320 -1q17 0 17 -17v-62q0 -17 -17 -17zM116.5 174.5q-2.5 2.5 -2.5 6.5v161q0 4 2.5 6.5t6.5 2.5h140q4 0 7 -2.5
t3 -6.5v-161q0 -4 -3 -6.5t-7 -2.5h-140q-4 0 -6.5 2.5zM464.5 317.5q-2.5 -2.5 -6.5 -2.5h-140q-4 0 -7 2.5t-3 6.5v18q0 4 3 6.5t7 2.5h140q4 0 6.5 -2.5t2.5 -6.5v-18q0 -4 -2.5 -6.5zM464.5 245.5q-2.5 -2.5 -6.5 -2.5h-141q-4 0 -6.5 2.5t-2.5 6.5v18q0 4 3 7t7 3
l140 -1q4 0 6.5 -2.5t2.5 -6.5v-18q0 -4 -2.5 -6.5zM464.5 205.5q2.5 -2.5 2.5 -6.5v-19q0 -4 -2.5 -6.5t-6.5 -2.5l-141 1q-4 0 -6.5 2.5t-2.5 6.5v18q0 4 2.5 6.5t6.5 2.5h141q4 0 6.5 -2.5zM116.5 133.5q2.5 2.5 6.5 2.5h335q4 0 6.5 -2.5t2.5 -6.5v-18q0 -4 -2.5 -6.5
t-6.5 -2.5h-335q-4 0 -6.5 2.5t-2.5 6.5v18q0 4 2.5 6.5z" />
    <glyph glyph-name="F" unicode="F" horiz-adv-x="818" 
d="M728 486q-23 -36 -61 -63v-16q0 -85 -41.5 -166t-121.5 -133t-187 -52q-102 0 -189 55l29 -1q88 0 153 53q-39 0 -71 24t-44 61q16 -2 23 -2q20 0 33 4q-43 8 -71 42t-28 79v1q25 -13 56 -15q-25 17 -40 44t-15 58q0 35 17 63q46 -57 112 -91t141 -38q-3 14 -3 28
q0 51 36 87t87 36q27 0 50 -10.5t40 -28.5q40 8 79 30q-16 -45 -55 -68q40 5 71 19z" />
    <glyph glyph-name="G" unicode="G" horiz-adv-x="660" 
d="M304 81q16 7 22 14l321 321q8 7 8 19q0 13 -8 20l-61 62q-8 8 -20 8t-20 -8l-263 -263q-7 -8 -20 -8q-12 0 -20 8l-129 129q-6 6 -19 8q-12 0 -20 -8l-62 -62q-8 -8 -8 -20q0 -10 8 -20l186 -186q6 -7 22 -14q14 -6 26 -6h32q12 0 25 6z" />
    <glyph glyph-name="H" unicode="H" horiz-adv-x="665" 
d="M469 534q-8 16 -24 26q-17 11 -34 11h-156q-16 0 -33 -11q-16 -9 -24 -26l-20 -44h-129q-17 0 -29 -12t-12 -29v-379q0 -17 12 -29t29 -12h569q17 0 29 12q11 13 11 29v379q0 16 -11 29q-12 12 -29 12h-129zM268 103q-32 14 -54 37q-25 25 -36 54q-14 31 -14 65
q0 35 14 66q11 29 36 54q23 23 54 36q33 14 65 14q33 0 66 -14q32 -13 54 -36q22 -22 36 -54q13 -30 13 -66t-13 -65q-14 -32 -36 -54q-22 -23 -54 -37q-30 -13 -66 -13q-35 0 -65 13zM289 366q-22 -10 -37 -25q-17 -17 -24 -37q-10 -20 -10 -45q0 -24 10 -44q6 -17 24 -37
q15 -16 37 -25q19 -9 44 -9q24 0 45 9t37 25q15 17 24 37q9 21 9 44q0 24 -9 45q-10 23 -24 37q-16 14 -37 25q-22 8 -45 8t-44 -8z" />
    <glyph glyph-name="I" unicode="I" 
d="M170.5 273.5q-33.5 -16.5 -69.5 -16.5h-85q-7 0 -11.5 3.5t-4.5 10.5v58q0 16 16 16h85q18 0 35 11.5t38 32.5q4 4 8.5 9.5t9.5 11.5q36 46 74.5 78t86.5 32h78v65q0 19 13 19q8 0 20 -9l128 -106q8 -8 8 -17q0 -11 -8 -17l-128 -107q-11 -9 -19 -9q-14 0 -14 20v74h-76
q-20 0 -37 -15t-46 -50q-31 -38 -46 -54q-22 -24 -55.5 -40.5zM600 128q0 -9 -8 -17l-128 -106q-12 -9 -20 -9q-13 0 -13 19v65h-78q-38 0 -74.5 19.5t-57.5 45.5q-25 31 -46 66q19 5 29 10q19 9 44 38l23 -37q22 -27 41.5 -41t40.5 -14h78v74q0 20 14 20q8 0 19 -9
l128 -107q8 -6 8 -17z" />
    <glyph glyph-name="J" unicode="J" 
d="M64 600q-8 0 -14 -5q-13 -7 -13 -23v-545q0 -16 13 -23q7 -4 14 -4q8 0 13 4l473 272q13 9 13 24q0 14 -13 24l-473 271q-5 5 -13 5z" />
    <glyph glyph-name="K" unicode="K" 
d="M8 592q-8 -8 -8 -19v-546q0 -11 8 -19t19 -8h191q10 0 20 8q8 8 8 19v546q0 11 -8 19q-10 8 -20 8h-191q-11 0 -19 -8zM362 592q-8 -8 -8 -19v-546q0 -11 8 -19q10 -8 20 -8h191q11 0 19 8t8 19v546q0 11 -8 19t-19 8h-191q-10 0 -20 -8z" />
    <glyph glyph-name="L" unicode="L" 
d="M34 157q23 -43 66 -83q41 -35 91 -54q52 -20 107 -20q60 0 117 23q57 25 95 65q39 39 64 95q24 54 24 117t-24 117q-25 56 -64 95q-39 41 -95 64q-55 24 -117 24q-54 0 -102 -18q-47 -18 -90 -53l-60 61q-10 10 -18 10q-14 0 -14 -22v-174q0 -12 9 -21l9 -6q4 -2 11 -2
h174q18 0 22 9q1 1 1 4q0 8 -10 17l-60 60q27 23 60 33q33 12 68 12q42 0 81 -17q38 -16 67 -45q29 -28 45 -66q17 -40 17 -82q0 -43 -17 -82q-16 -37 -45 -66t-67 -45q-39 -17 -81 -17q-38 0 -75 14q-34 13 -64 38q-29 26 -46 58q-19 34 -23 71q-2 8 -6 11q-7 3 -11 3
l-60 -8q-15 -2 -13 -17q8 -56 34 -103z" />
    <glyph glyph-name="M" unicode="M" 
d="M450.5 559.5q68.5 -40.5 109 -109t40.5 -150.5t-40.5 -150.5t-109 -109t-150.5 -40.5t-150.5 40.5t-109 109t-40.5 150.5t40.5 150.5t109 109t150.5 40.5t150.5 -40.5zM557 241q7 27 7 59q0 19 -3 37q-1 -1 -5 -12v-6q0 -9 1 -14q2 -10 2 -16q0 -7 -3 -13q-1 -2 -2.5 -3
t-3.5 0q-9 3 -12.5 12t-6.5 27q-4 25 -10 31q-4 4 -16 4l-14 3q2 -3 2 -11q-1 -9 -9 -19t-16 -16q-10 -5 -15 -5q-8 0 -12.5 6t-7.5 13.5t-4 10.5q-1 2 -5.5 13t-11.5 15q0 -10 6.5 -30.5t11.5 -27.5q5 -5 16 -5h5h3q12 0 16 -5q2 -2 2 -8q0 -12 -5.5 -20t-12.5 -15l-9 -9
q-16 -15 -21 -26q-2 -4 -1.5 -9t0.5 -7q0 -3 0.5 -7t-0.5 -9l6 4q2 1 6 1l4 4q7 5 13 2q3 -1 3 -4v-3q0 -6 -4 -10q-2 -4 -4 -5q-6 -8 -6 -10l-1 -2l-4 -8q-10 -10 -15 -10h-3q-4 1 -6 5l-1 4q0 7 4 15q0 2 1 3v1l-5 -4q-7 -5 -9 -10q-7 -17 -22 -30.5t-37 -16.5h-4
q-7 0 -10 3t-5 9q0 3 -3 9l-4 8q-8 14 -9 25q0 7 2 21q2 10 2 16q0 4 -2 12q-1 4 -9 12q-10 12 -12 20q0 6 3 10q0 3 2 3h-1l-4 -1h-3l-7 4q-4 1 -12 1t-13 -1q-8 0 -12 -1q-3 0 -9 -2q-8 -2 -13 -2q-3 0 -9 2q-19 10 -25 26t-5 37q1 3 1 8q0 17 4 26v1l9 10l4 4q3 3 4 7
q5 10 7 12q6 7 26 11l2 1q-23 1 -26 15v2q0 12 17 21l1 1h10l5 -1h3l-1 1q-4 9 0 13q1 2 5 6h-2q-10 0 -14 4q0 1 -1 1l-2 -4q-4 -2 -7 -2q-4 0 -7 2.5t-3 5.5v3q0 8 6 11l5 1q3 0 6 -3v2q0 4 3 8l1 2q0 1 2.5 4t4.5 3l4 -1q5 -1 7 -11l-1 -5v-1q-1 -1 3 -3q7 -4 5 -12
q0 -1 -2 -3l6 1q1 0 6.5 1t7.5 5v1h1v1h1l0.5 0.5l0.5 0.5q2 1 2.5 3t-0.5 7l2 4l0.5 0.5l0.5 0.5q-5 3 -6 6q-2 5 2 9q13 16 25 23.5t28 8.5l5 1l16 1q7 0 13 -2q13 -5 14 -11q0 -6 -8 -10q7 0 18 8q6 3 18.5 7.5t18.5 4.5l2 1q-63 36 -134 36q-79 0 -142 -42q5 -6 6 -13
q3 -7 3 -16q0 -14 -10 -25q-5 -5 -9.5 -9t-8.5 -8q-13 -13 -21 -17t-14 -6t-10 -3q-24 -6 -33 -13q-25 -53 -25 -112v-16q4 -2 10 -8l1 -1l12 -9q22 -20 31 -32h1q5 -9 12 -12l8 -3l3 -2q14 -5 18 -11q4 -7 4 -13q0 -8 -3 -14q-4 -11 -2 -17q0 -1 2 -5q4 -8 2 -15
q-1 -3 -4 -4.5t-4 -2.5q-5 -1 -5 -6q0 -3 4 -9q4 -4 6 -11q1 -4 1 -10q-1 -1 -1 -3q74 -60 168 -60q48 0 92.5 16.5t80.5 47.5v1q-2 4 -2 6q0 3 3 12h1l3 9l5 12v1q5 10 10 13q2 2 8 4q9 2 10 6q5 8 8 19v1q1 2 2 5t4 7q-4 0 -6 2q-1 1 -1 4q0 6 5 10.5t6 5.5l4 3
q12 12 24 20zM446 509q-10 3 -13 4q-4 -3 -12 -3q-6 0 -8 -3l-2 -2q2 -2 14 -2h3h3h5q19 0 28 -5q5 -3 6 -6q1 1 7 4l-8 7l-3 -2q-5 0 -7 1l-1 1q-2 2 -7 4zM338 499v3l-3 2q-3 -3 -8.5 -11.5t-4.5 -12.5q3 0 8.5 2.5t7.5 3.5l5 2l-2 2h-1q-2 3 -2 9zM321 409l-3 2
q-6 1 -11 5q-8 5 -16 5q-7 0 -11 -2h-3h-5h-4h-3v-1q0 -6 -2 -10v-1v-1l-3 -3q10 4 23 6q10 0 16 -4t12 -11l5.5 -5.5t11.5 -6.5h5l12 1q3 1 8 1q2 0 3 1h6h4q4 -1 6.5 -2.5t3.5 -2.5h3q7 0 10 6q3 3 3 6l-6 1l-9 2q-1 0 -10 9q-1 0 -1 1q0 -4 -1 -6q-1 -3 -5 -3l-2 -1
q-8 0 -17 13l-1 1l-0.5 -0.5l-0.5 -0.5l-2 -1l-2 -3q0 -3 -5 -3h-1q-3 1 -4.5 3l-1.5 2q-1 3 -2 3z" />
    <glyph glyph-name="N" unicode="N" 
d="M450 559.5q69 -40.5 109.5 -109.5t40.5 -150t-40.5 -150t-109.5 -109.5t-150 -40.5t-150 40.5t-109.5 109.5t-40.5 150t40.5 150t109.5 109.5t150 40.5t150 -40.5zM412.5 105.5q51.5 30.5 82 82t30.5 112.5t-30.5 112.5t-82 82t-112.5 30.5t-112.5 -30.5t-82 -82
t-30.5 -112.5t30.5 -112.5t82 -82t112.5 -30.5t112.5 30.5zM451 350q-42 -30 -100 -62q-7 -27 -30 -37q-12 -5 -21 -5q-15 0 -28 8.5t-19 22.5q-5 12 -5 21q0 15 8.5 28t22.5 20q8 4 20 4q16 0 27 -7q106 37 139 37q28 0 -14 -30zM216 206h168v-71h-168v71z" />
    <glyph glyph-name="O" unicode="O" 
d="M211 436q-43 -16 -77 -45l-65 93v126h168q60 -108 97 -161q-16 3 -34 3q-46 0 -89 -16zM531 482l-75 -84q-44 35 -100 47l-26 110l33 55h168v-128zM403 372.5q47 -27.5 74.5 -74.5t27.5 -103t-27.5 -103t-74.5 -74.5t-103 -27.5t-103 27.5t-74.5 74.5t-27.5 103t27.5 103
t74.5 74.5t103 27.5t103 -27.5z" />
    <glyph glyph-name="P" unicode="P" 
d="M319 490v-380q0 -28 -13 -32q-2 -1 -6 -1q-11 0 -25 15l-123 122h-137q-7 0 -11 4t-4 11v142q0 7 4 11t11 4h137l123 122q14 15 25 15q19 0 19 -33zM600 231q0 -5 -4 -8l-26 -27q-3 -3 -8 -3t-8 3l-61 61l-62 -61q-3 -3 -8 -3t-8 3l-26 26q-4 6 -4 9q0 2 4 8l62 62
l-62 60q-4 6 -4 8q0 3 4 9l26 26q3 3 8 3t9 -3l61 -61l61 61q3 3 8 3t8 -3l26 -26q4 -4 4 -9q0 -4 -4 -8l-61 -62l61 -60q4 -4 4 -8z" />
    <glyph glyph-name="Q" unicode="Q" 
d="M413 578q-54 22 -113 22t-113 -22q-56 -22 -99 -66q-44 -43 -66 -99q-22 -54 -22 -113t22 -113q21 -55 66 -99q44 -43 99 -66q54 -22 113 -22t113 22q56 22 99 66q43 41 66 99q22 54 22 113t-22 113q-23 58 -66 99q-44 44 -99 66zM443 216q5 -5 5 -9q0 -3 -5 -8l-42 -43
q-6 -4 -9 -4t-9 4l-82 83l-92 -91q-3 -4 -9 -4q-5 0 -8 4l-43 43q-4 4 -4 9q0 6 4 9l90 92l-82 82q-4 4 -4 9t4 9l41 42q6 4 9 4q5 0 9 -4l83 -83l92 92q5 5 8 5q4 0 9 -5l44 -43q5 -5 5 -9t-5 -9l-92 -93z" />
    <glyph glyph-name="R" unicode="R" 
d="M0 440v160h600v-160h-600zM600 360v-360h-600v360h600z" />
    <glyph glyph-name="S" unicode="S" horiz-adv-x="668" 
d="M429 488q10 -1 28 -5h3q4 0 9 3t6 10l10 76v3q0 10 -11 13q-42 12 -89 12q-140 0 -140 -137v-40h-48q-6 0 -10 -4q-5 -5 -5 -11v-78q0 -5 5 -10t10 -5h48v-300q0 -6 5 -11q4 -4 10 -4h99q7 0 11 4q4 6 4 11v300h79q7 0 11 4t4 10l6 78q0 8 -4 11q-4 5 -11 5h-85v34
q0 19 5 26q5 6 25 6q16 0 25 -1z" />
    <glyph glyph-name="T" unicode="T" 
d="M450.5 559.5q68.5 -40.5 109 -109t40.5 -150.5t-40.5 -150.5t-109 -109t-150.5 -40.5t-150.5 40.5t-109 109t-40.5 150.5t40.5 150.5t109 109t150.5 40.5t150.5 -40.5z" />
    <glyph glyph-name="U" unicode="U" 
d="M487 117q-7 -10 -4 -23q1 -6 15.5 -15.5t20.5 -7.5q12 3 19 14q31 48 46 103q16 52 16 112t-16 112q-15 55 -46 103q-7 11 -19 14q-6 2 -20.5 -7.5t-15.5 -15.5q-1 -3 -1 -8q0 -7 5 -15q53 -85 53 -183t-53 -183zM15 386q-7 0 -11 -4t-4 -11v-142q0 -7 4 -11t11 -4h137
l123 -122q14 -15 25 -15q19 0 19 33v380q0 28 -13 32q-2 1 -6 1q-11 0 -25 -15l-123 -122h-137zM388 187q-3 -6 -3 -13t1 -10q1 -6 14.5 -13.5t20.5 -7.5q12 0 20 14q39 69 39 143t-39 143q-6 11 -18 14q-6 2 -21 -6.5t-16 -14.5q-1 -3 -1 -10t3 -13q32 -55 32 -113
t-32 -113z" />
    <glyph glyph-name="V" unicode="V" 
d="M365 563q0 15 -11 26t-26 11h-56q-17 0 -26 -11q-11 -11 -11 -27v-197h-198q-15 0 -26 -11t-11 -26v-56q0 -16 11 -27q12 -10 27 -10h197v-198q0 -15 11 -26t26 -11h56q15 0 26 11t11 26v198h198q15 0 26 11t11 26v56q0 15 -11 26t-26 11h-198v198z" />
    <glyph glyph-name="W" unicode="W" horiz-adv-x="858" 
d="M833 268q0 -1 -11.5 -14t-39.5 -38t-59 -46q-60 -42 -128 -67q-83 -31 -173 -31t-171 31q-64 23 -125 67q-42 31 -71 62t-33 38l-22 30l22 31q4 7 33 38t71 61q55 41 125 68q85 31 171 31t173 -31q64 -23 128 -67q31 -21 55 -43t37.5 -36.5t17.5 -19.5l25 -32zM632 175
q97 51 160 125q-63 74 -160 125.5t-210 51.5t-206.5 -51.5t-151.5 -125.5q58 -74 151.5 -125t206.5 -51t210 51zM515 387.5q36 -36.5 36 -87.5t-36 -87t-87 -36t-87 36t-36 87t36 87.5t87 36.5t87 -36.5z" />
    <glyph glyph-name="X" unicode="X" 
d="M446 550q-14 0 -14 -24v-75q-79 0 -136 -21q-58 -21 -96 -56q-38 -37 -56 -84q-19 -47 -19 -101v-13q0 -3 2 -13q2 -9 9 -9q9 0 10 9q6 38 25 70q22 34 56 56q35 25 86 38q49 14 119 14v-84q0 -18 9 -23q2 -1 5 -1q8 0 18 10l128 128q8 8 8 20t-8 22l-128 127
q-10 10 -18 10zM476 124q-10 -11 -26 -11h-350q-16 0 -26 11q-11 10 -11 26v300q0 16 11 26q11 11 26 11h169q44 18 101 26v16q0 7 2 21h-272q-20 0 -39 -8t-32 -21t-21 -32t-8 -39v-300q0 -20 8 -39q7 -17 21 -31q12 -14 32 -22q19 -8 39 -8h350q20 0 39 8q18 7 31 22
q16 16 22 31q8 19 8 39v93l-42 -41q-3 -3 -5.5 -5t-4.5 -4l-11 -7v-36q0 -16 -11 -26z" />
    <glyph glyph-name="Y" unicode="Y" 
d="M600 309q-35 -37 -85 -50q-32 -8 -84 -8l-27 1q-36 2 -54 2q-52 0 -84 -8q-50 -12 -85 -49l-4 16l-23 84l-23 87l-27 101q34 36 85 49q32 8 83 8l50 -1q16 -1 49 -1q36 0 67 8q51 13 85 49l27 -100l23 -88zM167.5 14q-8.5 -11 -22.5 -11q-10 0 -17.5 5.5t-9.5 15.5
l-117 435q-4 13 4.5 24t22.5 11q10 0 17.5 -5.5t9.5 -15.5l117 -435q4 -13 -4.5 -24z" />
    <glyph glyph-name="Z" unicode="Z" 
d="M476 124q-10 -11 -26 -11h-350q-16 0 -26 11q-11 10 -11 26v300q0 16 11 26q11 11 26 11h294l62 62h-3l-3 1h-350q-20 0 -39 -8q-20 -10 -32 -22q-14 -14 -21 -31q-8 -21 -8 -39v-300q0 -20 8 -39q7 -16 21 -32q13 -13 32 -21t39 -8h350q19 0 38 8t32 21q14 15 22 32
q8 19 8 39v207l-63 -63v-144q0 -15 -11 -26zM561 541q-8 9 -21 9q-11 0 -22 -9l-30 -31l72 -72l31 30q9 9 9 22q0 12 -9 22l-15 14zM452 474l-212 -212l-35 -107l108 35l211 212z" />
    <glyph glyph-name="bracketleft" unicode="[" 
d="M300 0q14 0 27 11l39 39q11 11 11 27t-11 26l-132 132h329q16 0 26 11q11 11 11 26v56q0 15 -11 26q-10 11 -26 11h-329l132 132q11 11 11 26q0 16 -11 27l-39 39q-13 11 -27 11q-15 0 -26 -11l-262 -263q-11 -11 -11 -26q0 -14 11 -27l262 -262q11 -11 26 -11z" />
    <glyph glyph-name="backslash" unicode="\" 
d="M154 4q8 -4 17 -4q13 0 24 11l263 263q11 11 11 26q0 17 -11 27l-263 262q-13 11 -26 11q-7 0 -15 -3q-22 -10 -22 -34v-525q0 -25 22 -34z" />
    <glyph glyph-name="bracketright" unicode="]" 
d="M300 0q-15 0 -26 11l-39 39q-11 11 -11 27t11 26l132 132h-330q-15 0 -26 11q-10 10 -10 26v56q0 16 10 26q11 11 27 11h329l-132 132q-11 11 -11 26q0 16 11 27l39 39q11 11 26 11q14 0 27 -11l262 -263q11 -11 11 -26q0 -14 -11 -27l-262 -262q-13 -11 -27 -11z" />
    <glyph glyph-name="underscore" unicode="_" 
d="M593 202.5q-8 -9.5 -27 -9.5h-373v-99q0 -14 -13 -20q-3 -2 -10 -2t-13 6l-151 151q-6 6 -6 14q0 10 6 16l151 150q6 6 13 6t10 -2q13 -6 13 -19v-99h306v195q0 17 9.5 26.5t22.5 11.5h35q14 0 24 -8t10 -25v-269q1 -14 -7 -23.5z" />
    <glyph glyph-name="grave" unicode="`" horiz-adv-x="950" 
d="M788 469.5q12 -53.5 12 -145.5v-63q0 -84 -12.5 -134.5t-52.5 -59.5q-29 -7 -260 -7t-260 7q-41 10 -53 63.5t-12 145.5v63q0 84 12.5 134.5t52.5 59.5q15 4 91 6t169 2q94 0 169.5 -2t90.5 -6q41 -10 53 -63.5zM625 300l-244 127v-255z" />
    <glyph glyph-name="a" unicode="a" 
d="M138 482q-7 7 -7 17v77q0 10 7 17t17 7t17 -7t7 -17v-77q0 -10 -7 -17t-17 -7t-17 7zM424 482q-7 7 -7 17v77q0 10 7 17t17 7t17 -7t7 -17v-77q0 -10 -7 -17t-17 -7t-17 7zM558.5 529.5q12.5 -12.5 12.5 -30.5v-80h-542v80q0 18 12.5 30.5t30.5 12.5h42v-43
q0 -16 12.5 -28.5t28.5 -12.5q17 0 29.5 12t12.5 29v43h203v-43q0 -17 12 -29t29 -12t29 12t12 29v43h46q18 0 30.5 -12.5zM571 393v-350q0 -18 -12.5 -30.5t-30.5 -12.5h-456q-18 0 -30.5 12.5t-12.5 30.5v350h542zM91 258h81v69h-81v-69zM203 258h81v69h-81v-69zM316 258
h81v69h-81v-69zM428 258h81v69h-81v-69zM91 161h81v69h-81v-69zM203 161h81v69h-81v-69zM316 161h81v69h-81v-69zM428 161h81v69h-81v-69zM91 65h81v69h-81v-69zM203 65h81v69h-81v-69zM316 65h81v69h-81v-69z" />
    <glyph glyph-name="b" unicode="b" 
d="M219.5 290q10.5 10 14.5 20q-14 14 -24.5 32.5t-14.5 35.5l-9 5q-16 45 -13 85l6 4q-1 6 -1 21q0 43 11 65q14 25 44 41.5t59 16.5h15q29 0 59 -16.5t44 -41.5q7 -14 9.5 -39t0.5 -47l6 -4q3 -40 -13 -85l-9 -5q-4 -17 -14.5 -35.5t-24.5 -32.5q4 -10 14.5 -20t24.5 -17
l137 -59q36 -13 47.5 -80.5t11.5 -135.5l-1 -14h-599v14q0 70 11.5 136.5t46.5 79.5l137 59q14 7 24.5 17z" />
    <glyph glyph-name="c" unicode="c" horiz-adv-x="770" 
d="M600 447q-25 42 -67 72q-41 31 -99 49q-55 18 -121 18q-65 0 -122 -18q-56 -18 -99 -49q-39 -28 -67 -72q-24 -42 -24 -89q0 -56 33 -103q32 -47 90 -79q-3 -17 -8 -31q-4 -13 -10 -23q-4 -8 -12 -16l-13 -15l-8 -7q-2 -4 -1 -8v-1q2 -5 6 -7q3 -3 8 -3q9 3 18 3l16 3
q78 19 135 63q6 -1 14.5 -2t13.5 -1q10 -1 30 -1q66 0 121 18q58 18 99 49q44 31 67 72q24 42 24 89t-24 89zM747 321q-22 39 -61 70q3 -16 3 -33q0 -62 -29 -115q-32 -57 -80 -93q-53 -40 -119 -62q-71 -23 -148 -23q-22 0 -41 3l-6 -3l-2 -2t-3 -1q42 -25 90 -38
q46 -14 106 -14q20 0 30 1l29 3q29 -23 62 -38q33 -17 72 -24q9 -3 16 -3l18 -3q4 -1 9 2q4 2 5 8q2 4 -2 8l-7 7l-13 15q-8 10 -12 17q-5 8 -10 22q-6 17 -8 32q57 32 90 78q33 47 33 103q0 45 -22 83z" />
    <glyph glyph-name="d" unicode="d" 
d="M494 471q-16 38 -45 67q-30 30 -67 46q-38 16 -82 16t-82 -16q-40 -18 -67 -46q-29 -29 -45 -67q-16 -36 -16 -81v-63q-13 -4 -22 -16q-8 -13 -8 -26v-240q0 -19 13 -32q15 -13 32 -13h390q17 0 32 13q13 15 13 32v240q0 13 -8 26q-9 12 -22 16v63q0 43 -16 81zM180 330
v60q0 25 9 47q12 24 26 38q18 16 38 25q21 10 47 10t46 -10q21 -8 39 -25q14 -14 26 -38q9 -22 9 -47v-60h-240zM249 63l25 110q-10 6 -18 18q-7 10 -7 25q0 21 15 36t36 15t36 -15t15 -36q0 -15 -7 -25q-7 -11 -18 -19l25 -109h-102z" />
    <glyph glyph-name="e" unicode="e" horiz-adv-x="660" 
d="M520 592q-14 8 -25 8h-330q-11 0 -25 -8q-12 -8 -17 -19l-111 -259q-6 -15 -8 -28q-4 -16 -4 -30v-226q0 -12 9 -21t22 -9h599q12 0 21 9t9 21v226q0 14 -4 30q-2 13 -8 28l-111 259q-5 11 -17 19zM466 510l100 -232l1 -3v-4h-123l-46 -80h-129l-45 80h-131q1 1 1 4
q0 2 1 3l100 232h271z" />
    <glyph glyph-name="f" unicode="f" 
d="M200 375h78q18 0 21 10q1 2 1 5q0 8 -10 18l-120 133q-7 9 -20 9q-11 0 -20 -9l-120 -133q-10 -10 -10 -18q0 -15 22 -15h78v-288q0 -10 7 -17q8 -8 18 -8h217l-78 88q-5 3 -6 6q-2 4 -4 6h-54v213zM500 512q0 9 -7 18q-7 7 -18 7h-217l79 -87l5 -7q2 -4 4 -6h54v-212
h-78q-18 0 -21 -10q-1 -1 -1 -5q0 -8 10 -18l120 -133q8 -9 20 -9q13 0 20 9l120 133q10 10 10 18q0 15 -22 15h-78v287z" />
    <glyph glyph-name="g" unicode="g" 
d="M320 609h-40v92h40v-92zM161 566l-46 79l34 20l46 -79zM451 665l34 -20l-46 -79l-34 20zM20 550l80 -46l-20 -34l-80 46zM392.5 525.5q42.5 -24.5 67 -67t24.5 -92.5q0 -35 -14 -62t-42 -63q-24 -32 -36 -53t-12 -48v-16l-160 16q0 27 -12 48t-36 53q-28 36 -42 63
t-14 62q0 50 24.5 92.5t67 67t92.5 24.5t92.5 -24.5zM600 516l-80 -46l-20 34l80 46zM411 85q6 -7 6 -16q0 -12 -8.5 -20t-19.5 -7l-184 21q-10 2 -16 8.5t-6 16.5q0 11 8.5 19t19.5 7l184 -21q10 -1 16 -8zM411 5q6 -7 6 -16q0 -12 -8.5 -20t-19.5 -7l-184 21q-10 1 -16 8
t-6 16q0 12 8.5 20t19.5 7l184 -21q10 -1 16 -8zM259.5 -86q-17.5 15 -21.5 37l120 -13q-8 -18 -23.5 -28.5t-34.5 -10.5q-23 0 -40.5 15z" />
    <glyph glyph-name="h" unicode="h" horiz-adv-x="650" 
d="M273 444q-4 3 -4 9v109q0 6 4 10t9 4h86q3 0 9 -4q4 -4 4 -10v-109q0 -6 -4 -9q-4 -4 -9 -4h-86q-6 0 -9 4zM650 472v-418q0 -12 -9 -21t-21 -9h-590q-13 0 -21 9q-9 9 -9 21v418q0 12 9 21q8 9 21 9h205v-82q0 -6 4 -10q6 -4 10 -4h149q4 0 10 4q4 6 4 10v82h208
q12 0 21 -9t9 -21zM602 304q-3 4 -9 4h-536q-6 0 -9 -4q-4 -4 -4 -10v-212q0 -6 4 -9q3 -4 9 -4h536q6 0 9 4q4 3 4 9v212q0 6 -4 10z" />
    <glyph glyph-name="i" unicode="i" 
d="M600 600v-600h-600v600h600zM575 437h-137v138h-138v-138h-137v138h-138v-138h138v-137h-138v-138h138v-137h137v137h138v-137h137v137h-137v138h137v137zM438 437v-137h-138v137h138zM300 300v-138h-137v138h137z" />
    <glyph glyph-name="j" unicode="j" horiz-adv-x="710" 
d="M440 89q23 -22 25 -50v-39h-465v39q2 26 21.5 47t59.5 28q-1 11 -4 21q0 1 -9 34q-12 43 -18.5 71t-6.5 50q0 82 32 139t83 85.5t107 32.5l53 53q6 0 10.5 -5t6.5 -12l7 -29q7 -18 32 -38q13 -11 17.5 -22t5.5 -13l8 -23q6 -18 11 -29.5t16 -26.5l48 -68q9 -10 9 -24
q0 -15 -11 -24q-13 -11 -41.5 -19t-31.5 -4q-10 10 -15 19q-9 14 -18.5 21.5t-28.5 7.5q-34 0 -77 46l-15 18q-6 -6 -12 -18t-6 -25q0 -4 2 -14q3 -13 11 -22q10 -16 34 -35q36 -29 61 -58.5t29 -67.5l1 -20q46 -4 69 -26zM456 437l15 19q13 16 36 28.5t47 12.5h49v41
q0 12 8 12q6 0 12 -6l81 -67q5 -5 5 -11q0 -7 -5 -10l-81 -68q-7 -5 -11 -5q-9 0 -9 13v46h-49q-13 0 -25.5 -9t-26.5 -26l-13 -18l-25 35zM709 134q0 -6 -5 -11l-81 -67q-6 -6 -12 -6q-8 0 -8 12v41h-49q-32 0 -68 32l-90 89q4 -1 13 -1q19 0 46 9q8 3 10 4l45 -45
q15 -18 24.5 -25.5t20.5 -7.5h48v46q0 13 9 13q4 0 11 -5l81 -68q5 -3 5 -10z" />
    <glyph glyph-name="k" unicode="k" horiz-adv-x="810" 
d="M394 58h-354q-16 0 -28 12t-12 29v460q0 17 12 29t28 12h570q16 0 28 -12t12 -29v-204q-18 2 -27 2t-27 -2v58q-10 -10 -21 -18l-74 -56q-29 -21 -75 -58q-14 -11 -46 -33q-25 -15 -56 -15q-28 0 -54 15q-32 22 -46 33l-17 13q-29 24 -57 45l-76 56q-16 13 -20 18v-300
h332q2 -32 8 -55zM59 500q3 -8 13 -24q10 -14 16 -21q12 -12 18 -16l70 -53l71 -54l17 -13l20 -15q11 -8 21 -12q11 -6 19 -6h2q9 0 19 6q11 5 21 12l20 15l17 13l70 54l50 37l21 16q6 4 18 16l16 21q5 8 13 24q5 13 5 23v23h-542v-23q0 -10 5 -23zM810 119q0 -39 -15 -72
q-12 -31 -40 -59q-26 -26 -59 -41q-36 -14 -73 -14q-38 0 -72 14q-33 14 -60 40q-25 25 -40 60q-14 32 -14 72q0 41 14 73q15 34 40 59q27 27 60 40q35 15 72 15q38 0 73 -15q31 -12 59 -40q24 -23 40 -59q15 -34 15 -73zM738 100v38q0 10 -8 8h-80v80q0 8 -8 8h-38
q-8 0 -8 -8v-80h-79q-2 0 -6 -2q-2 -4 -2 -6v-38q0 -4 2 -5q2 -3 5 -3h80v-79q0 -4 2 -6q4 -2 6 -2h38q2 0 6 2q2 4 2 6v79h80q8 0 8 8z" />
    <glyph glyph-name="l" unicode="l" 
d="M379 378q-26 25 -61 33l177 177q11 11 29 11q27 0 52 -23q23 -23 23 -51q0 -19 -11 -30l-176 -177q-7 35 -33 60zM600 88q0 -37 -25.5 -62.5t-62.5 -25.5h-424q-37 0 -62.5 25.5t-25.5 62.5v424q0 37 25.5 62.5t62.5 25.5h326l-69 -72h-257q-7 0 -11.5 -4.5t-4.5 -11.5
v-424q0 -7 4.5 -11.5t11.5 -4.5h424q7 0 11.5 4.5t4.5 11.5v248l72 69v-317zM352 350q24 -24 24 -58v0q0 -45 -23.5 -80.5t-61.5 -55t-79 -19.5q-40 0 -74 19q31 5 52.5 38.5t21.5 97.5q0 35 24 58.5t58 23.5t58 -24z" />
    <glyph glyph-name="m" unicode="m" horiz-adv-x="721" 
d="M477.5 165.5q9.5 -54.5 9.5 -110.5v-11h-486v11q0 56 9.5 110.5t37.5 65.5l111 47q12 5 20.5 13.5t11.5 16.5q-24 25 -32 55l-7 4q-13 36 -11 69l5 4q-3 49 8 69t36 33.5t48 13.5h12q23 0 47.5 -13.5t35.5 -33.5q6 -12 8 -32t0 -37l6 -4q2 -33 -11 -69l-7 -4
q-8 -30 -32 -55q3 -8 11.5 -16.5t20.5 -13.5l111 -47q28 -11 37.5 -65.5zM711.5 190.5q8.5 -49.5 8.5 -98.5v-10h-206q-1 60 -15 110.5t-49 63.5l-53 23l30 12q10 5 18 12.5t10 14.5q-22 26 -28 50l-6 4q-12 32 -10 61l5 3q-1 5 -1 17q0 30 8 45q9 18 31 30t44 12h10
q21 0 43 -12t32 -30t7 -62l5 -3q2 -29 -10 -61l-6 -4q-8 -28 -29 -50q7 -16 29 -27l99 -42q25 -9 33.5 -58.5z" />
    <glyph glyph-name="n" unicode="n" horiz-adv-x="661" 
d="M650.5 225.5q9.5 -54.5 9.5 -110.5v-11h-155q-15 76 -55 91l-110 47q-6 3 -9 6q13 19 20 38l6 3l4 9q15 44 12 79l-1 13l-3 2q0 46 -12 69q-12 22 -37 39q-1 5 -1 18q0 36 9 51q11 20 35.5 33.5t47.5 13.5h12q23 0 48 -13.5t36 -33.5t8 -69l5 -4q2 -33 -11 -69l-7 -4
q-8 -30 -32 -55q3 -8 11.5 -16.5t20.5 -13.5l111 -47q28 -11 37.5 -65.5zM477.5 105.5q9.5 -54.5 9.5 -110.5v-11h-486v11q0 56 9.5 110.5t37.5 65.5l111 47q12 5 20.5 13.5t11.5 16.5q-24 25 -32 55l-7 4q-13 36 -11 69l5 4q-3 49 8 69t36 33.5t48 13.5h12q23 0 47.5 -13.5
t35.5 -33.5q6 -12 8 -32.5t0 -36.5l6 -4q2 -33 -11 -69l-7 -4q-8 -30 -32 -55q3 -8 11.5 -16.5t20.5 -13.5l111 -47q28 -11 37.5 -65.5z" />
    <glyph glyph-name="o" unicode="o" horiz-adv-x="668" 
d="M525 17q23 17 30 42l110 354q3 11 3 20q0 18 -10 31q-10 10 -24 17l1 -11l-2 -13l-121 -385q-4 -9 -15 -18q-9 -9 -23 -9h-369q-16 0 -34 12q-11 9 -18 21t-7 21q0 11 8 15h358q25 0 48.5 17.5t30.5 41.5l111 355q4 11 4 21q0 15 -11 29q-16 22 -47 22h-304
q-55 0 -77 -40l-163 -438q-4 -9 -4 -22q0 -20 12 -41t33 -39q20 -12 30.5 -15.5t29.5 -4.5h369q28 0 51 17zM222 279q-9 7 -5 16q1 11 28 20q22 8 29 13q13 16 41 81l-20 4q-6 3 -3 7q3 9 23 12q4 2 6 2q-6 6 -6 16q0 14 11.5 30t29.5 24q13 3 19 3q6 2 9 -3q13 -6 13 -23
q0 -4 -2 -14q-6 -17 -24 -32l3 -2q14 -3 14 -8q0 -11 -34 -16l-10 -34q-10 -27 -10 -45q0 -2 4.5 -5.5t12.5 -5.5q17 -6 17 -15l-3 -8q0 -4 -13 -15q15 -6 12 -16q-4 -8 -13.5 -14t-19 -9t-10.5 -2q-15 -4 -52 -8q-31 0 -52 6q-18 7 -23 12q-2 5 -2 11q7 14 30 18z" />
    <glyph glyph-name="p" unicode="p" horiz-adv-x="650" 
d="M650 546v-407q0 -17 -12 -29t-29 -12h-198l-87 -85l-85 85h-199q-16 0 -28 12t-12 29v407q0 17 12 29t28 12h569q17 0 29 -12t12 -29zM596 532h-542v-379h209l61 -62l61 62h211v379zM112 427q-4 4 -4 10v27q0 6 4 9q3 4 9 4h407q13 0 13 -13v-27q0 -14 -13 -14h-407
q-5 0 -9 4zM112 319q-4 4 -4 10v26q0 6 4 10q3 4 9 4h407q13 0 13 -14v-26q0 -14 -13 -14h-407q-6 0 -9 4zM112 211q-4 3 -4 9v27q0 6 4 10t9 4h407q13 0 13 -14v-27q0 -13 -13 -13h-407q-6 0 -9 4z" />
    <glyph glyph-name="q" unicode="q" 
d="M581 101q0 -32 -46 -55t-112 -34.5t-123 -11.5q-58 0 -123.5 11.5t-111.5 34.5t-46 55q0 16 12 29q35 71 51.5 126t29.5 117q10 46 18 71t24 47q19 26 41.5 41.5t54.5 22.5q2 19 16 32t34 13q19 0 33.5 -13t15.5 -32q32 -7 54.5 -22.5t41.5 -41.5q16 -22 24 -47t18 -71
q13 -62 29.5 -117t51.5 -126q13 -15 13 -29zM523 120q-28 33 -89.5 46t-133.5 13t-134 -13t-89 -46q27 -31 86.5 -45t127.5 -14q182 0 232 59zM344 144q0 -21 -13 -35t-31 -14q-19 0 -32 14t-13 35q0 7 45 7q44 0 44 -7z" />
    <glyph glyph-name="r" unicode="r" 
d="M93 563q7 -9 7 -18v-38q0 -8 -7 -17q-7 -7 -18 -7h-50q-11 0 -18 7t-7 17v38q0 11 7 18t18 7h50q11 0 18 -7zM600 545v-38q0 -10 -7 -17t-18 -7h-400q-11 0 -18 7q-7 9 -7 17v38q0 9 7 18q7 7 18 7h400q11 0 18 -7t7 -18zM93 412q7 -9 7 -18v-37q0 -9 -7 -18
q-7 -7 -18 -7h-50q-11 0 -18 7t-7 18v37q0 11 7 18t18 7h50q11 0 18 -7zM593 412q7 -7 7 -18v-37q0 -11 -7 -18t-18 -7h-400q-11 0 -18 7q-7 9 -7 18v37q0 9 7 18q7 7 18 7h400q11 0 18 -7zM93 261q7 -9 7 -18v-37q0 -9 -7 -18q-7 -7 -18 -7h-50q-11 0 -18 7t-7 18v37
q0 11 7 18t18 7h50q11 0 18 -7zM593 261q7 -7 7 -18v-37q0 -11 -7 -18t-18 -7h-400q-11 0 -18 7q-7 9 -7 18v37q0 9 7 18q7 7 18 7h400q11 0 18 -7zM93 110q7 -9 7 -17v-38q0 -9 -7 -18q-7 -7 -18 -7h-50q-11 0 -18 7t-7 18v38q0 10 7 17t18 7h50q11 0 18 -7zM593 110
q7 -7 7 -17v-38q0 -11 -7 -18t-18 -7h-400q-11 0 -18 7q-7 9 -7 18v38q0 8 7 17q7 7 18 7h400q11 0 18 -7z" />
    <glyph glyph-name="s" unicode="s" horiz-adv-x="618" 
d="M255.5 75q-16.5 -33 -16.5 -75h-239v32q3 45 27 79t72 39l31 234q-26 9 -41.5 26t-18.5 38l-8 123q29 15 60 15l16 -66h52l9 76q23 4 40 4q18 0 41 -4l9 -76h52l15 66q32 0 61 -15l-5 -76q-37 -11 -60.5 -42.5t-23.5 -71.5q0 -34 19 -64l-35 -22v-20q0 -28 12 -51l10 -19
h32q-1 -7 -8 -21q-15 -30 -56 -56q-30 -20 -46.5 -53zM605 58.5q12 -25.5 12 -58.5h-343q0 33 12 58.5t35 39.5q36 23 54 46.5t22.5 40t6.5 35.5v21h-48q-9 15 -9 34l57 35l-5 3q-17 11 -26.5 29.5t-9.5 38.5q0 35 24.5 59t58.5 24t58 -24.5t24 -58.5q0 -21 -9.5 -39
t-26.5 -29l-4 -3l56 -35q0 -21 -8 -34h-49l1 -21q2 -19 6.5 -35.5t22.5 -40t54 -46.5q22 -14 34 -39.5z" />
    <glyph glyph-name="t" unicode="t" 
d="M591.5 561.5q8.5 -8.5 8.5 -21.5v-40q0 -13 -8.5 -21.5t-21.5 -8.5h-540q-13 0 -21.5 8.5t-8.5 21.5v40q0 13 8.5 21.5t21.5 8.5h540q13 0 21.5 -8.5zM591.5 341.5q8.5 -8.5 8.5 -21.5v-40q0 -13 -8.5 -21.5t-21.5 -8.5h-540q-13 0 -21.5 8.5t-8.5 21.5v40q0 13 8.5 21.5
t21.5 8.5h540q13 0 21.5 -8.5zM591.5 121.5q8.5 -8.5 8.5 -21.5v-40q0 -13 -8.5 -21.5t-21.5 -8.5h-540q-13 0 -21.5 8.5t-8.5 21.5v40q0 13 8.5 21.5t21.5 8.5h540q13 0 21.5 -8.5z" />
    <glyph glyph-name="u" unicode="u" horiz-adv-x="650" 
d="M12 559q-12 -12 -12 -29v-460q0 -17 12 -29t28 -12h570q16 0 28 12t12 29v460q0 17 -12 29t-28 12h-570q-16 0 -28 -12zM596 494q0 -9 -5 -24l-13 -23l-16 -21q-12 -12 -18 -16l-21 -16l-50 -37l-70 -54l-17 -13q-4 -3 -9 -7t-11 -8q-7 -5 -21 -13q-12 -5 -19 -5h-2
q-7 0 -19 5q-14 8 -21 13q-6 4 -20 15q-14 10 -17 13l-71 54l-70 53q-6 4 -18 16q-4 4 -16 21q-11 18 -13 23q-5 15 -5 24v22h542v-22zM54 384q10 -11 20 -18q25 -18 75 -56q29 -21 75 -58q14 -11 46 -33q27 -16 54 -16q29 0 56 16q32 22 46 33q46 37 75 58q18 14 27 20
l47 36q11 8 21 18v-301h-542v301z" />
    <glyph glyph-name="v" unicode="v" horiz-adv-x="675" 
d="M272 225q-28 -52 -28 -112t28 -113h-271v14q0 66 10.5 129.5t44.5 75.5l130 55q13 7 23 16.5t14 18.5q-29 31 -37 65l-8 5q-15 39 -13 79l6 5q-1 6 -1 20q0 40 10 61q13 23 42 39t56 16h14q27 0 56 -16t41 -39q7 -14 9.5 -37.5t0.5 -43.5l6 -5q2 -40 -13 -79l-8 -5
q-8 -32 -36 -64q-48 -33 -76 -85zM674 111q0 -39 -15 -74q-12 -32 -40 -61q-29 -28 -61 -40q-35 -15 -74 -15t-74 15q-32 12 -61 40q-25 26 -40 61t-15 74q0 40 15 74q16 37 40 61q28 27 61 41q32 14 74 14t74 -14q33 -14 61 -41q27 -27 40 -61q15 -34 15 -74zM459 197
q4 -2 6 -2h44q3 0 5 2t2 5v40q0 7 -7 7h-44q-2 0 -6 -2q-2 -4 -2 -5v-40zM535 28h-19v138q0 3 -2 5t-5 2h-72q-1 0 -5 -2q-2 -4 -2 -5v-33q0 -7 7 -7h21v-98h-19q-3 0 -5 -2t-2 -5v-33q0 -1 2 -5q1 -2 5 -2h96q3 0 5 2q2 4 2 5v33q0 7 -7 7z" />
    <glyph glyph-name="w" unicode="w" horiz-adv-x="722" 
d="M590 556q0 6 -4 10q-3 5 -10 5h-85q-6 0 -11 -5q-4 -4 -4 -10v-39l-92 75q-11 8 -23 8q-11 0 -22 -8l-333 -272q-6 -6 -6 -10q0 -6 3 -11l18 -20q3 -5 11 -5h25q7 0 10 3l285 233q4 4 9 4q6 0 10 -4l284 -233q5 -3 10 -3h25q6 0 11 5l17 20q4 5 4 11t-6 10l-126 103v133z
M103 267v-238q0 -11 8 -21q10 -8 21 -8h162v191h135v-191h161q13 0 21 8t8 21v238l-258 212z" />
    <glyph glyph-name="x" unicode="x" 
d="M454 260v-227q0 -14 -9.5 -23.5t-23.5 -9.5h-387q-13 0 -23 10t-10 23v359h147q25 0 42 17.5t17 41.5v149h214q14 0 23.5 -9.5t9.5 -23.5v-60l-237 -238l-61 -183l184 60zM156.5 443q-9.5 -10 -23.5 -10h-133l166 166v-133q0 -13 -9.5 -23zM600 472q0 -12 -9 -21l-30 -30
l-71 71l29 30q10 10 22 10t21 -10l15 -14l14 -14q9 -10 9 -22zM454 457l71 -71l-209 -209l-106 -35l35 106z" />
    <glyph glyph-name="y" unicode="y" horiz-adv-x="650" 
d="M349 266l25 14q16 12 24 19q9 8 20 15q56 44 84 65l86 64q5 4 18 17q12 12 20 24q9 12 16 27q7 13 7 24q0 15 -13 25q-13 11 -27 11h-569q-14 0 -27 -11t-13 -25q0 -11 7 -24q7 -15 16 -27q8 -12 20 -24q13 -13 19 -17l85 -64q28 -21 84 -65l21 -15q9 -9 24 -19
q16 -10 24 -14q13 -7 24 -7h1q11 0 24 7zM288 184q-19 6 -35 15q-24 14 -31 20q-20 14 -29 22l-89 69l-90 67l-7 6q-1 0 -7 6v-319q0 -17 12 -29q10 -12 28 -12h569q17 0 29 12t12 29v319q-2 -1 -3.5 -3t-4.5 -3l-7 -6l-90 -67l-89 -69q-20 -16 -30 -23q-20 -14 -31 -20
q-13 -7 -34 -14q-20 -5 -37 -5q-18 0 -36 5z" />
    <glyph glyph-name="z" unicode="z" 
d="M417 533q54 -18 95 -47q40 -30 64 -70t24 -85q0 -53 -32 -99q-31 -44 -86 -76q1 -6 7 -30q6 -16 10 -22q3 -6 11 -16l14 -14l6 -6q2 -2 2 -8q-1 -4 -5 -8q-3 -2 -9 -2l-17 3l-16 2q-74 17 -128 60q-29 -3 -57 -3q-65 0 -117 17q-54 16 -95 47q-40 30 -64 70
q-24 39 -24 85t24 85q24 40 64 70q41 29 95 47q57 17 117 17q61 0 117 -17z" />
    <glyph glyph-name="braceleft" unicode="{" 
d="M600 300q0 14 -11 27l-40 38q-12 12 -26 12t-26 -12l-133 -131v329q0 16 -10 26q-11 11 -26 11h-56q-15 0 -26 -11q-11 -10 -11 -26v-329l-132 131q-10 12 -26 12q-15 0 -27 -12l-39 -38q-11 -13 -11 -27t11 -27l262 -261q12 -12 27 -12q16 0 26 12l263 261q11 13 11 27z
" />
    <glyph glyph-name="bar" unicode="|" 
d="M597 155q3 8 3 15q0 14 -12 26l-262 260q-10 11 -26 11q-17 0 -27 -11l-261 -260q-12 -12 -12 -26q0 -7 3 -15q10 -22 34 -22h526q24 0 34 22z" />
    <glyph glyph-name="braceright" unicode="}" 
d="M600 300q0 -15 -12 -27l-39 -38q-12 -12 -26 -12q-15 0 -26 12l-133 131v-329q0 -16 -10 -26q-11 -11 -27 -11h-56q-15 0 -26 11q-10 10 -10 26v329l-132 -131q-12 -12 -26 -12q-15 0 -27 12l-39 38q-11 11 -11 27t11 27l262 261q11 12 26 12t27 -12l262 -261
q12 -12 12 -27z" />
    <glyph glyph-name="exclamdown" unicode="&#xa1;" 
d="M600 120q0 -26 -10 -46q-9 -23 -26 -38q-18 -18 -38 -26q-20 -10 -46 -10h-360q-26 0 -47 10q-21 9 -38 26q-16 16 -25 38q-10 20 -10 46v360q0 26 10 47q8 19 25 38q15 15 38 25q21 10 47 10h316l-76 -75h-240q-17 0 -32 -13q-13 -15 -13 -32v-360q0 -17 13 -32
q15 -13 32 -13h360q18 0 31 13q14 14 14 32v240l75 75v-315zM531 594q6 6 16 6q9 0 16 -6l31 -31q6 -7 6 -16t-6 -17l-271 -271h105q10 0 16 -7q6 -6 6 -16v-33v-3q0 -8 -6 -13q-9 -7 -16 -7h-225q-7 0 -16 7q-6 8 -6 16v225q0 10 6 16q8 6 16 6h33q10 0 17 -7q6 -6 6 -15
v-105z" />
    <glyph glyph-name="cent" unicode="&#xa2;" 
d="M9 113l226 226q-14 34 -14 72t14.5 72.5t41.5 61.5t61.5 41t72.5 14q37 0 72 -14t62 -41t41 -62t14 -72q0 -38 -14 -72.5t-41 -61.5t-62 -41.5t-72 -14.5q-36 0 -72 14l-65 -65q-6 -3 -7 -3l-46 -4l-4 -46q-2 -10 -10 -10l-53 -3l-3 -53q0 -4 -3 -7l-35 -35q-3 -3 -7 -3
l-94 -6h-1q-5 0 -8 3t-3 9l6 94q0 4 3 7zM427.5 427.5q14.5 -14.5 34.5 -14.5t34 14.5t14 34.5t-14 34t-34 14t-34.5 -14t-14.5 -34t14.5 -34.5z" />
    <glyph glyph-name="sterling" unicode="&#xa3;" 
d="M337.5 409.5q17.5 -17.5 41.5 -17.5h148v-359q0 -13 -9.5 -23t-23.5 -10h-388q-14 0 -23.5 9.5t-9.5 23.5v534q0 14 9.5 23.5t23.5 9.5h214v-149q0 -24 17.5 -41.5zM371 443q-10 10 -10 23v133l166 -166h-133q-13 0 -23 10z" />
    <glyph glyph-name="currency" unicode="&#xa4;" horiz-adv-x="671" 
d="M663.5 446q0.5 -4 -4.5 -7l-241 -133l-391 157l241 134q4 3 14 3q5 0 13 -2l362 -146q6 -2 6.5 -6zM411 408l2 1q18 5 33 13q18 10 25 18q5 7 5 10q0 6 -5 7q-3 1 -10 1q-11 0 -17 -2q0 5 -6 8q-3 2 -11 2q-6 0 -18.5 -2.5t-17.5 -2.5q-14 0 -43.5 10t-34.5 12q8 5 9.5 8
t-2.5 4q-4 2 -7 2q-6 0 -14 -4q-3 0 -4 -1q-2 9 -19 15q-25 8 -46 5q-8 -2 -11 -4q-5 -2 -5 -5l-1 -3q0 -4 5 -8.5t14 -8.5q15 -6 34 -6l-1 -2q-6 -4 -5.5 -5.5t4.5 -3.5q2 -1 6 -1q6 0 21 6q5 -2 28.5 -12t31.5 -16q1 -1 1 -3t-2.5 -6t-3.5 -7t3 -6l6 -2q4 -2 16 -2l-1 -4
q0 -5 5 -7q6 -2 12 -2t24 4zM4 411q0 24 13 45l391 -157v0q-9 -21 -9 -43q0 -12 4 -34l248 137h1l6 -2q8 -4 6 -7q0 -3 -4 -6l-249 -139l-395 160q-12 21 -12 46zM2 308q0 25 13 46l391 -157q-9 -21 -9 -43q0 -12 4 -34l248 136l7 -2q6 -2 6.5 -6t-4.5 -7l-249 -138
l-395 159q-12 24 -12 46zM664.5 145q0.5 -4 -4.5 -7l-249 -138l-396 159q-11 22 -11 46q0 26 13 45l391 -157q-9 -21 -9 -43q0 -12 4 -34l248 138l6 -3q7 -2 7.5 -6z" />
    <glyph glyph-name="yen" unicode="&#xa5;" 
d="M586.5 130.5q13.5 -23.5 13.5 -50.5q0 -24 -12 -47q-13 -24 -36.5 -37.5t-50.5 -13.5q-24 0 -47 12q-24 13 -37.5 36.5t-13.5 50.5q0 13 3 25l-234 128q-14 -15 -33 -24t-40 -9q-41 0 -70 29t-29 70t29 70t70 29q21 0 40 -9t33 -24l234 128q-3 12 -3 25q0 27 13.5 50.5
t37.5 36.5q23 12 47 12q27 0 50.5 -13.5t36.5 -37.5q12 -22 12 -47q0 -27 -13.5 -50.5t-37.5 -36.5q-22 -12 -48 -12q-21 0 -40 8t-33 24l-234 -127q3 -13 3 -26q0 -12 -3 -26l234 -127q14 16 33 24t40 8q26 0 48 -12q24 -13 37.5 -36.5z" />
    <glyph glyph-name="brokenbar" unicode="&#xa6;" horiz-adv-x="676" 
d="M272.5 224.5q-28.5 -52.5 -28.5 -112.5q0 -61 28 -112h-271v13q0 64 11 128.5t44 76.5l130 56q14 6 23.5 15t13.5 19q-27 31 -37 66l-8 4q-15 40 -13 80l6 5q-3 58 10 81q12 23 41 39t57 16h13q28 0 56.5 -15.5t41.5 -39.5q13 -23 10 -81l6 -5q2 -36 -13 -80l-8 -4
q-9 -34 -36 -64q-48 -33 -76.5 -85.5zM675 111v-4v-2v-2q-1 -34 -15 -66l-6 -13v0l-2 -4l-9 -14v0q-12 -17 -24 -29t-29 -24l-1 -1q-4 -3 -7.5 -4.5t-6.5 -3.5q-9 -5 -17 -8q-28 -13 -62 -15h-2h-1h-4v0h-5v0h-4h-1h-4h-1h-2q-32 1 -62 15q-3 1 -17 8l-14 8v1q-14 9 -29 24
q-13 11 -25 29q-7 12 -8 14l-2 4l-7 13q-13 33 -14 66v2v2v4q0 42 14 74q16 36 42 61q19 19 44 33l16 8l8 3q32 12 66 12v0q36 0 67 -12l7 -3q6 -2 16 -8q26 -13 45 -33q26 -26 41 -61q15 -34 15 -74zM528 217q-19 9 -44 9q-23 0 -44 -9q-19 -10 -31 -20l-5 -5l-3 -3
q-11 -11 -22 -33q-9 -21 -9 -45t9 -45l2 -4l152 152zM599 111q0 25 -10 45l-2 4l-152 -152l5 -2q21 -9 44 -9q25 0 44 9q18 7 32 20l5 4l2 3q15 17 22 33q10 20 10 45z" />
    <glyph glyph-name="section" unicode="&#xa7;" horiz-adv-x="676" 
d="M272.5 225q-28.5 -52 -28.5 -113t28 -112h-271v13q0 64 11 128.5t44 76.5l130 56q14 6 23.5 15.5t13.5 19.5q-28 31 -37 65l-8 5q-15 39 -13 80l6 4q-3 58 10 81q12 23 41 39t57 16h13q28 0 57 -16t41 -39q13 -23 10 -81l6 -4q2 -41 -13 -80l-8 -5q-10 -35 -36 -64
q-48 -33 -76.5 -85zM675 111q0 -35 -14 -71q-13 -35 -41 -63t-63 -42q-37 -14 -72 -14t-72 14q-34 13 -63 42q-28 28 -41 63q-14 32 -14 71q0 40 14 72q13 34 41 63q29 27 63 42q37 14 72 14t72 -14q35 -15 63 -42q28 -29 41 -63q14 -36 14 -72zM581 169q6 5 0 11l-27 27
q-6 6 -12 0l-57 -57l-58 57q-5 6 -11 0l-28 -27q-5 -6 0 -11l58 -58l-57 -58q-3 -1 -3 -5q0 -3 3 -6l27 -27q3 -3 6 -3q4 0 5 3l58 57l57 -57q3 -3 6 -3t6 3l27 27q2 2 2 6t-2 5l-57 58z" />
    <glyph glyph-name="copyright" unicode="&#xa9;" 
d="M422 573q51 -27 77.5 -70.5t26.5 -92.5q0 -59 -21.5 -95.5t-58.5 -65.5l-12 -8q-21 -15 -25 -21v-153q0 -28 -19 -47.5t-47 -19.5h-86q-28 0 -47.5 19.5t-19.5 47.5v136v29q3 41 18 77h-63q-28 0 -48 20q-19 21 -19 48q1 65 30 115.5t79 79t113 28.5q71 0 122 -27z
M445 344.5q14 23.5 14 65.5q0 28 -15.5 56t-51.5 47.5t-92 19.5q-69 0 -111 -44t-44 -113h94q0 36 16 59.5t49 23.5q26 0 40.5 -14.5t14.5 -43.5q0 -23 -10.5 -35.5t-36.5 -33.5q-25 -20 -39 -41.5t-16 -58.5v-29h86v25q4 22 16.5 36t27 24.5t18.5 13.5q26 19 40 42.5z
M348 165h-100v-98h100v98z" />
    <glyph glyph-name="guillemotleft" unicode="&#xab;" horiz-adv-x="775" 
d="M369 27q4 -9 14 -27h-383v600h600v-244h-13h-12v82h-137v137h-138v-137h-137v137h-138v-137h138v-138h-138v-137h138v-138h137v138h54q-3 -21 -3 -44q0 -48 18 -92zM438 438v-136q-1 0 -3 -2h-135v138h138zM774 119q0 -38 -14 -72q-14 -32 -41 -59t-59 -41
q-34 -14 -72 -14q-37 0 -73 14q-34 15 -59 40q-26 26 -41 60q-14 36 -14 72q0 37 14 73q14 32 41 59q28 28 59 40q35 15 72 15q39 0 73 -15q33 -13 60 -40q25 -25 40 -59q14 -36 14 -73zM163 300h137v-137h-137v137zM685 119q0 19 -8 38q-7 17 -21 31t-31 21q-19 8 -38 8
q-18 0 -37 -8q-17 -7 -31 -21t-21 -31q-8 -19 -8 -38t8 -37q8 -20 21 -31q14 -14 31 -21q18 -8 38 -8q19 0 37 8q17 7 31 21t21 31q8 18 8 37z" />
    <glyph glyph-name="registered" unicode="&#xae;" horiz-adv-x="920" 
d="M590 295q0 -68 -29 -121.5t-81 -83.5t-121 -30q-65 0 -120.5 32t-88 87.5t-32.5 120.5t32.5 120.5t88 87.5t120.5 32q94 0 161 -62l-65 -63q-39 37 -96 37q-40 0 -74.5 -20.5t-54.5 -55.5t-20 -76t20 -76t54.5 -55.5t74.5 -20.5q44 0 73.5 17.5t44.5 41.5t18 45h-136v82
h227q4 -24 4 -39zM874 334v-68h-69v-69h-68v69h-69v68h69v69h68v-69h69z" />
    <glyph glyph-name="degree" unicode="&#xb0;" 
d="M569 269q0 -50 -20 -101q-19 -49 -59 -89q-42 -41 -89 -59q-51 -20 -101 -20t-101 20q-49 19 -89 59q-35 33 -55 80q-24 54 -24 111q0 36 11 75q13 44 44 87q4 6 10 6q5 0 9 -4l43 -32q1 -1 5 -9q0 -7 -3 -10q-20 -28 -31 -61q-7 -25 -7 -55q0 -37 16 -75q14 -32 39 -56
q27 -27 62 -41q32 -14 71 -14t71 14q32 11 62 41q28 28 41 62q14 36 14 71t-14 71q-13 34 -41 62q-22 22 -50 36q-27 13 -59 16v-39q0 -17 -9 -20l-3 -1q-7 0 -16 9l-70 74q-4 5 -6 9q-2 6 -2 9q0 13 7 19l71 77q8 9 15 9q13 0 13 -21v-44q51 -5 90 -23q43 -20 76 -53
q41 -42 59 -89q20 -51 20 -101zM393 269l-42 -42h1l-52 -51l-133 133l52 51l81 -81l42 42z" />
    <glyph glyph-name="plusminus" unicode="&#xb1;" horiz-adv-x="894" 
d="M775.5 253.5q-12.5 -18.5 -32.5 -26.5q2 -16 2 -23q0 -56 -40 -103.5t-108.5 -75.5t-149.5 -28t-149 28t-108 75.5t-40 103.5q0 15 1 23q-20 8 -32 26.5t-12 41.5q0 31 22 52.5t53 21.5q30 0 51 -21q40 28 92 45t110 18l38 178q2 6 6 9q3 2 10 2l124 -27q6 14 18.5 22
t28.5 8q22 0 37.5 -15.5t15.5 -37.5t-15.5 -37.5t-37.5 -15.5q-21 0 -36.5 14.5t-16.5 35.5l-111 24l-34 -160q58 -1 109.5 -18t89.5 -45q23 21 52 21q31 0 53 -21.5t22 -52.5q0 -23 -12.5 -41.5z" />
    <glyph glyph-name="acute" unicode="&#xb4;" 
d="M83 544q76 0 123.5 -12t82.5 -39v-408q-36 26 -83 38.5t-123 12.5h-26v408h26zM517 136q-75 0 -121.5 -12t-82.5 -39v408q35 27 81.5 39t122.5 12h26v-408h-26zM51 107q176 0 230 -51h-255q-11 0 -18.5 7t-7.5 18v409h26v-383h25zM600 81q0 -11 -7.5 -18t-18.5 -7h-255
q54 51 230 51h25v383h26v-409z" />
    <glyph glyph-name="paragraph" unicode="&#xb6;" horiz-adv-x="676" 
d="M272.5 224.5q-28.5 -52.5 -28.5 -112.5q0 -61 28 -112h-271v13q0 64 11 128.5t44 76.5l130 56q14 6 23.5 15t13.5 19q-27 31 -37 66l-8 4q-15 40 -13 80l6 5q-3 58 10 81q12 23 41 39t57 16h13q28 0 57 -16t41 -39q13 -23 10 -81l6 -5q2 -40 -13 -80l-8 -4
q-9 -34 -36 -64q-48 -33 -76.5 -85.5zM675 111q0 -39 -15 -74q-15 -34 -41 -60q-24 -25 -60 -41q-34 -15 -74 -15q-39 0 -74 15q-38 16 -61 41q-26 26 -41 60q-15 35 -15 74q0 40 15 74q14 33 41 61q26 25 61 40t74 15t74 -15t60 -40q27 -28 41 -61q15 -34 15 -74zM602 91
l-1 39q0 9 -8 8h-81v82q0 8 -8 8h-39q-8 0 -8 -8v-82h-81q-4 0 -6 -2t-2 -6v-39q0 -3 2 -5q2 -3 6 -2h81v-82q0 -2 2 -6q4 -2 6 -2l39 1q4 0 6 2t2 5v81h82q6 0 8 8z" />
    <glyph glyph-name="periodcentered" unicode="&#xb7;" 
d="M506 421q5 7 17 21q5 8 15 20q6 9 6 11q0 4 -10 15l-24 24l-25 24q-12 10 -13 10q-4 0 -12 -7l-19 -15q-7 -4 -21 -16l-13 -10q-14 8 -21 11l-23 7q-4 26 -5 40q-2 20 -6 38q-3 6 -7 6h-89q-5 0 -8 -12q-4 -10 -6 -25q-2 -11 -4 -29l-1 -18q-5 -2 -11 -3.5t-12 -4.5
q-8 -2 -22 -10l-13 9q-5 5 -21 17l-20 15l-10 7q-2 0 -15 -10q-16 -14 -25 -24l-24 -24q-10 -11 -10 -15l2 -5q24 -27 45 -59q-12 -25 -18 -44q-6 -2 -18 -2q-18 -2 -28 -4q-12 -1 -25 -5q-12 -4 -12 -9v-88q0 -5 6 -7q20 -7 38 -8q13 0 39 -4q8 -28 19 -47l-10 -13l-16 -20
l-14 -20l-6 -10q0 -2 11 -15q4 -4 9.5 -10.5t13.5 -13.5q12 -13 24 -24q11 -10 14 -10l4 1l30 24l30 22q21 -12 45 -18q2 -15 4 -39q4 -26 7 -39q3 -6 8 -6h89q4 0 8 12l5 26l3 28l2 19q13 3 23 7l22 10q1 0 12 -9q14 -10 21 -16q6 -4 11 -8t10 -7q8 -7 10 -7q4 0 15 10
l25 24l24 24q10 11 10 15l-2 5q-28 33 -46 59q13 24 17 44q-2 0 20 2l28 3l26 6q11 5 11 8v89q0 6 -6 7q-16 5 -38 7q-14 1 -40 5q-6 24 -19 46zM265 217q-16 8 -29 20q-12 13 -20 29q-7 19 -7 35q0 15 7 34q8 17 20 29q11 11 29 19q15 7 35 7t35 -7q18 -8 29 -19
q12 -14 19 -29t7 -34q0 -20 -7 -35t-19 -29q-12 -12 -29 -20q-15 -7 -35 -7t-35 7z" />
    <glyph glyph-name="guillemotright" unicode="&#xbb;" 
d="M562 448q0 -12 -7 -19q-9 -12 -26 -12q-14 0 -23 8l-15 11q-3 -7 -8 -14l-123 -152l-2 -2l10 -8q12 -9 12 -35q0 -17 -5 -36.5t-7 -24.5q-15 -19 -36 -19q-19 0 -42 17l-53 41l-147 -183q-17 -20 -34 -20q-7 0 -11 4q-7 3 -7 15q0 16 13 32l147 182l-58 45q-29 23 -29 47
q0 13 12 28h1q4 4 30 16t45 12q13 0 20 -6l10 -7l2 1l122 152q6 8 12 12l-9 7q-12 9 -14 24v3q0 11 7 21q9 12 26 12q13 0 23 -8l150 -115q12 -9 14 -25v-4z" />
    <glyph glyph-name="onequarter" unicode="&#xbc;" 
d="M211 473v59q0 10 7 17t17 7h132q10 0 17 -7t7 -17v-59h-36v47h-108v-47h-36zM586 423q14 -14 14 -34v-121h-90v31h-98v-31h-214v31h-98v-31h-100v121q0 20 14 34t34 14h504q20 0 34 -14zM167 202h-36v66h36v-66zM479 202h-36v66h36v-66zM600 235v-146q0 -19 -14 -33.5
t-34 -14.5h-504q-19 0 -33.5 14.5t-14.5 33.5v146h100v-64h98v64h214v-64h98v64h90z" />
    <glyph glyph-name="onehalf" unicode="&#xbd;" 
d="M318 587q14 14 34 14q19 0 33 -14l201 -199q14 -13 14 -34q0 -20 -14 -34l-318 -320l-267 -1l-1 268zM137 185q-21 0 -35 -14q-14 -16 -14 -35q0 -20 14 -36q16 -14 35 -14q21 0 36 15q14 14 14 34q0 21 -15 36q-13 14 -35 14z" />
    <glyph glyph-name="threequarters" unicode="&#xbe;" 
d="M106.5 494.5q-6.5 11.5 -6.5 23.5l1 10q4 14 22 41l11 15q9 9 20 9q14 0 21 -10q27 -31 32 -54q2 -8 2 -11q0 -12 -6.5 -23t-17.5 -18q-1 -1 -4 -1q-2 0 -3 2t-1 4t1 5.5t1 8.5q0 12 -7.5 21t-17.5 9t-17 -9t-7 -21q0 -5 2 -13v-2q0 -3 -2.5 -5t-5.5 0q-11 7 -17.5 18.5z
M252.5 494q-6.5 11 -6.5 24q0 7 1 10q5 18 22 41l11 15q9 9 20 9q13 0 21 -10q27 -31 32 -54q1 -4 1 -11q0 -13 -6 -23.5t-17 -17.5q-1 -1 -4 -1q-2 0 -3 2t-1 4t1 5.5t1 8.5q0 12 -7.5 21t-17.5 9t-17 -9t-7 -21q0 -9 2 -13v-2q0 -3 -2.5 -5t-5.5 0q-11 7 -17.5 18z
M398.5 494q-6.5 11 -6.5 24q0 7 1 10q5 18 22 41q8 12 11 15q9 9 20 9q13 0 21 -10q28 -35 32 -54q1 -4 1 -11q0 -13 -6 -23.5t-17 -17.5q-1 -1 -4 -1q-2 0 -3 2t-1 4t1 5.5t1 8.5q0 12 -7.5 21t-17.5 9t-17.5 -9t-7.5 -21q0 -7 3 -13v-2q0 -3 -2.5 -5t-5.5 0
q-11 7 -17.5 18zM112 457h85v-93h-85v93zM258 457h84v-93h-84v93zM403 457h85v-93h-85v93zM44 124v174q0 16 11 27t27 11h436q16 0 27 -11t11 -27v-174h-512zM594 90q6 -6 6 -14v-48q0 -8 -6 -14.5t-15 -6.5h-558q-9 0 -15 6.5t-6 14.5v48q0 8 6 14t15 6h558q9 0 15 -6z" />
    <glyph glyph-name="questiondown" unicode="&#xbf;" 
d="M600 263v-143q0 -26 -10 -46q-12 -25 -26 -38q-17 -17 -38 -26q-20 -10 -47 -10h-359q-26 0 -47 10q-20 8 -38 26q-14 13 -26 38q-9 21 -9 46v360q0 25 9 47q10 23 26 38q16 16 38 25q21 10 47 10h142l-1 -11q-1 -3 -1 -11v-35q0 -6 2 -18h-142q-17 0 -32 -13
q-13 -13 -13 -32v-360q0 -19 13 -32q15 -13 32 -13h359q17 0 32 13q13 13 13 32v143l11 -2h12h34q12 0 19 2zM600 578v-225q0 -8 -7 -17q-8 -6 -15 -5h-34q-10 0 -16 6q-7 6 -7 16v104l-271 -270q-7 -7 -16 -7q-10 0 -16 7l-31 31q-7 7 -7 16q0 10 7 16l270 272h-105
q-9 0 -16 6q-6 6 -6 16v34q0 9 6 15q7 7 16 7h226q9 0 15 -7q7 -7 7 -15z" />
    <glyph glyph-name="Adieresis" unicode="&#xc4;" horiz-adv-x="510" 
d="M438 65.5q2 -15.5 2 -42.5v-6v-17h-440v17v6q0 27 2 42.5t10 28.5q18 34 75 41q7 0 10 1q-12 12 -20 25q-38 55 -38 131q0 41 18 84.5t53 84.5q25 29 55 55q-11 16 -11 35q0 26 18 44.5t44 18.5q25 0 42.5 -17t19.5 -41l1 -8l-6 -5q-18 -18 -44 -75.5t-29 -168.5h41
q3 121 39 181l11 19l15 -16q38 -37 62 -78q33 -54 33 -113q0 -76 -38 -131q-8 -13 -20 -25q3 -1 10 -1q57 -7 75 -41q8 -13 10 -28.5zM126 433q-25 -30 -39 -64q-17 -37 -17 -77q0 -54 20 -93q16 -33 38 -51l7 -7h55q10 1 30 1l40 -1h43l10 7q24 24 37 51q20 39 20 93
q0 51 -28 98q-16 28 -44 59q-27 -58 -27 -167v-13h-101v13q0 73 13 129q8 42 27 87q15 32 37 61q-2 10 -11 17t-20 7q-13 0 -22.5 -9.5t-9.5 -22.5q0 -15 13 -25q5 -5 5 -12t-6 -12q-38 -30 -70 -69zM50 92.5q-13 -8.5 -16 -22t-3 -40.5h378q0 27 -3 40.5t-16 22t-41 12.5
q-18 2 -50 4l-8 1q-44 2 -71 2t-71 -2l-7 -1q-33 -2 -51 -4q-28 -4 -41 -12.5z" />
    <glyph glyph-name="Aring" unicode="&#xc5;" horiz-adv-x="798" 
d="M132 582q-19 -18 -19 -45t18.5 -45t48.5 -18h1q31 0 49.5 18t18.5 45q-1 28 -19 45.5t-49 17.5q-30 0 -49 -18zM470 415.5q-25 -17.5 -41 -42.5v51h-121q1 -11 1 -109l-1 -255h121v203q0 19 4 30q8 19 23.5 31.5t38.5 12.5q32 0 47 -21.5t15 -60.5v-195h121v209
q0 81 -38.5 122.5t-101.5 41.5q-43 0 -68 -17.5zM120 60h121v364h-121v-364z" />
    <glyph glyph-name="Ccedilla" unicode="&#xc7;" horiz-adv-x="575" 
d="M503.5 62q1.5 -14 1.5 -39v-6v-17h-439v17l-1 6q0 24 1.5 38.5t7.5 26.5q12 28 48 40q7 39 33 68.5t61 57.5v1q21 16 32 31q6 9 9 18q1 3 1 7q0 6 -4 18l-1 -1v-1q-48 -51 -89 -52q-14 0 -20 -4.5t-14 -17.5q-3 -3 -7.5 -9.5t-9.5 -11.5q-6 -6 -16 -6q-14 0 -40 8.5
t-40 19.5q-16 15 -16 38q0 19 11 33l49 68q9 13 14.5 25.5t9.5 25.5q2 9 9 26l1 2q1 1 6 13.5t21 25.5q10 8 17 15.5t10 15.5l6 28q3 13 13 21.5t21 8.5h7l54 -54q61 -6 114 -38.5t85.5 -92.5t32.5 -143q0 -24 -7 -54.5t-19 -73.5l-5 -17q33 -10 45 -38q6 -13 7.5 -27z
M214 449q0 9 -6.5 15.5t-16.5 6.5q-14 0 -23 -14t-13 -34q9 8 19 8l16 -1q10 0 18 6q6 6 6 13z" />
    <glyph glyph-name="Edieresis" unicode="&#xcb;" horiz-adv-x="720" 
d="M379 141h29q-18 -44 -65.5 -72.5t-128.5 -28.5q-105 0 -152.5 40t-60.5 97q-1 3 -1 8q0 16 15 15h102h3q13 0 20 -15q5 -7 10 -13q17 -21 58 -21q32 0 48.5 12.5t16.5 41.5q0 51 -65 51h-24h-1h-2q-7 0 -11 6v0l-2 4l-1 6v56l1 6l2 4v0q4 6 11 6h2h1h24q65 0 65 51
q0 29 -16.5 41.5t-48.5 12.5q-41 0 -58 -21q-5 -5 -10 -13q-9 -18 -23 -15h-102h-1q-14 0 -14 15q0 5 1 8q13 57 60.5 97t152.5 40q74 0 120 -24.5t65.5 -59.5t19.5 -69q0 -63 -34 -91h-6q-27 0 -46 -19q-18 -18 -18 -45v-47q0 -26 18 -46q18 -18 46 -18zM714 187
q-7 -6 -16 -6h-113v-113q0 -10 -7 -16q-6 -6 -16 -6h-47q-10 0 -16 6q-7 7 -7 16v115h-113q-10 0 -16 6t-6 16v47q0 9 6 16q6 6 16 6h114l-1 113q0 10 6 16q8 6 16 6h48q10 0 16 -6t6 -16v-113h114q7 0 16 -7q6 -6 6 -16v-48q0 -8 -6 -16z" />
    <glyph glyph-name="Ntilde" unicode="&#xd1;" 
d="M447.5 515q50.5 -36 79.5 -91t29 -118q0 -29 -8 -63h-61q11 31 11 63q0 54 -26.5 99.5t-72 72t-99.5 26.5t-99.5 -26.5t-72 -72t-26.5 -99.5q0 -32 11 -63h-61q-8 34 -8 63q0 63 29 118t79.5 91t111.5 44v24h-42v67h156v-67h-42v-24q61 -8 111.5 -44zM300 247l-29 30
l14 182h34l15 -182zM205 188v-238h-119v40h80v39h-80v159h119zM364 188v-40h-79v-39h79v-159h-119v238h119zM523 188v-238h-119v238h119zM166 148h-40v-79h40v79zM483 148h-39v-158h39v158zM285 69v-79h40v79h-40z" />
    <glyph glyph-name="Otilde" unicode="&#xd5;" 
d="M504 456q28 -76 28 -156t-28 -156t-82 -137q-6 -7 -12 -7q-5 0 -9 3l-43 42q-6 5 -6 12q0 5 5 12q42 50 63.5 109.5t21.5 121.5t-21.5 121.5t-63.5 109.5q-5 7 -5 12q0 7 6 12l43 42q4 3 9 3q6 0 12 -7q54 -61 82 -137zM338 389.5q15 -43.5 15 -89.5t-15 -89.5t-45 -79.5
q-4 -5 -10 -5q-5 0 -9 3l-46 46q-3 3 -3 8q0 6 4 11q35 47 35 106t-35 106q-4 5 -4 11q0 5 3 8l46 46q4 3 9 3q6 0 10 -5q30 -36 45 -79.5zM170 342.5q17 -17.5 17 -42.5t-17 -42.5t-42 -17.5t-42.5 17.5t-17.5 42.5t17.5 42.5t42.5 17.5t42 -17.5z" />
    <glyph glyph-name="Odieresis" unicode="&#xd6;" 
d="M253 535.5q7 -7.5 7 -17.5v-219q0 -63 -29 -117.5t-78.5 -87.5t-109.5 -36h-3q-8 0 -8 12v81q0 5 3 7.5t6 2.5q44 5 74 44.5t30 93.5h-90q-10 0 -17 7t-7 17v195q0 10 7 17.5t17 7.5h181q10 0 17 -7.5zM563 535.5q7 -7.5 7 -17.5v-219q0 -63 -29 -117.5t-78.5 -87.5
t-109.5 -36h-3q-9 0 -9 12v81q0 5 3.5 7.5t6.5 2.5q44 5 73.5 44t29.5 94h-89q-10 0 -17.5 7t-7.5 17v195q0 11 7.5 18t17.5 7h181q10 0 17 -7.5z" />
    <glyph glyph-name="multiply" unicode="&#xd7;" horiz-adv-x="737" 
d="M728.5 591.5q8.5 -8.5 8.5 -21.5v-540q0 -13 -8.5 -21.5t-21.5 -8.5h-380q-13 0 -21.5 8.5t-8.5 21.5v170h75v-125h290v450h-290v-125h-75v170q0 13 8.5 21.5t21.5 8.5h380q13 0 21.5 -8.5zM229 165q0 -7 -7 -16l-24 -24q-6 -6 -15 -6t-17 6l-159 160q-6 6 -6 15
q0 10 6 16l159 159q7 7 17 7q9 0 15 -7l24 -24q7 -7 7 -16q0 -8 -7 -15l-74 -74l383 -1q10 0 16 -7q7 -6 7 -16v-44q0 -9 -7 -15q-7 -7 -16 -7l-383 -1l74 -74q7 -9 7 -16z" />
    <glyph glyph-name="Udieresis" unicode="&#xdc;" horiz-adv-x="1480" 
d="M257.5 83q-17.5 -37 -17.5 -83h-240q0 38 14 67.5t40 45.5q42 27 63 54.5t26.5 47t7.5 40.5v25h-56q-10 17 -10 40l66 40l-5 4q-20 13 -31 34.5t-11 45.5q0 40 28 68t68 28t68 -28t28 -68q0 -24 -11 -45.5t-31 -34.5l-5 -3l66 -41q0 -23 -10 -40h-56v-25q3 -28 13 -54.5
t45 -57.5q-32 -23 -49.5 -60zM537.5 83q-17.5 -37 -17.5 -83h-240q0 38 14 67.5t40 45.5q42 27 63 54.5t26.5 47t7.5 40.5v25h-56q-10 17 -10 40l66 40l-5 4q-20 13 -31 34.5t-11 45.5q0 40 28 68t68 28t68 -28t28 -68q0 -24 -11 -45.5t-31 -34.5l-5 -3l66 -41
q0 -23 -10 -40h-56v-25q3 -28 13 -54.5t45 -57.5q-32 -23 -49.5 -60zM817.5 83q-17.5 -37 -17.5 -83h-240q0 38 14 67.5t40 45.5q42 27 63 54.5t26.5 47t7.5 40.5v25h-56q-10 17 -10 40l66 40l-5 4q-20 13 -31 34.5t-11 45.5q0 40 28 68t68 28t68 -28t28 -68
q0 -24 -11 -45.5t-31 -34.5l-5 -3l66 -41q0 -23 -10 -40h-56v-25q3 -28 13 -54.5t45 -57.5q-32 -23 -49.5 -60zM1226 67.5q14 -29.5 14 -67.5h-400q0 38 14 67.5t40 45.5q42 27 63 54.5t26.5 47t7.5 40.5v25h-56q-10 17 -10 40l66 40l-5 4q-20 13 -31 34.5t-11 45.5
q0 40 28 68t68 28t68 -28t28 -68q0 -24 -11 -45.5t-31 -34.5l-5 -3l66 -41q0 -23 -10 -40h-56v-25q2 -21 7.5 -40.5t26.5 -47t63 -54.5q26 -16 40 -45.5z" />
    <glyph glyph-name="Thorn" unicode="&#xde;" horiz-adv-x="800" 
d="M86 34l560 560q6 6 13 6t13 -6l42 -42q6 -6 6 -13q0 -8 -6 -13l-560 -560q-6 -6 -13 -6t-13 6l-42 42q-6 6 -6 13q0 9 6 13zM26.5 149q-21.5 35 -25.5 77q-1 6 -1 19q0 35 12.5 65.5t35.5 54.5q29 44 63 74.5t63 31.5h44q0 2 14 18.5t34.5 30t43.5 13.5t35.5 -13.5
t15.5 -32.5l41 4l40 -4q3 19 15.5 32.5t35.5 13.5q10 0 24 -4l-234 -235q-15 31 -44.5 50t-65.5 19q-33 0 -61.5 -16.5t-45 -45t-16.5 -61.5q0 -35 18.5 -65t49.5 -45l-36 -37q-34 21 -55.5 56zM800 240q0 -47 -23 -87t-63 -63t-87 -23q-40 0 -75 17.5t-60 48.5
q-27 32 -36 71l49 50l-1 -14q0 -33 16.5 -61.5t45 -45t61.5 -16.5q51 0 87 36t36 87q0 33 -16.5 61.5t-45 45t-61.5 16.5l-14 -1l73 73q32 -29 65 -70q36 -39 45 -90q4 -15 4 -35z" />
    <glyph glyph-name="germandbls" unicode="&#xdf;" horiz-adv-x="914" 
d="M790 244q0 -38 -26.5 -65t-64.5 -27t-65 27t-27 65v60q0 13 -9 22t-21 9q-13 0 -22 -9t-9 -22v-184q0 -38 -27 -64.5t-64 -26.5q-38 0 -65 26.5t-27 64.5v245q0 13 -9 22t-22 9t-22 -9t-9 -22v-367q0 -38 -26.5 -64.5t-65.5 -26.5q-37 0 -64 26.5t-27 64.5v612h672v-366z
M188 -23q9 -9 21 -9q14 0 23 9t9 21v367q0 39 26 65t65 26q38 0 64.5 -26t26.5 -65v-245q0 -12 9.5 -21t22.5 -9t22 9t9 21v184q0 38 26.5 65t64.5 27t64.5 -27t26.5 -65v-60q0 -14 9 -23.5t22 -9.5q12 0 21 9.5t9 23.5v304h-550v-550q0 -12 9 -21z" />
    <glyph glyph-name="adieresis" unicode="&#xe4;" horiz-adv-x="700" 
d="M500 40v-80h-540v80q0 14 4 27q9 29 30 50t50 31q11 4 31 8q-16 24 -26 44q-29 60 -29 121q0 68 31.5 122.5t69.5 91.5l-1 3v4l-1 1q-2 16 -2 22q0 46 32 81q16 16 35 25q21 9 44 9q46 0 78 -33.5t32 -81.5q0 -12 -3 -26l18 -19q34 -35 56 -78q31 -62 31 -121
q0 -87 -56 -165q21 -3 32 -8q29 -10 50 -31t30 -50q4 -17 4 -27z" />
    <glyph glyph-name="aring" unicode="&#xe5;" horiz-adv-x="840" 
d="M713 474q7 -7 7 -17v-252q0 -10 -7 -17t-17 -7h-64v-121q0 -25 -17.5 -42.5t-42.5 -17.5h-304q-25 0 -42.5 17.5t-17.5 42.5v121h-64q-10 0 -17 7t-7 17v252q0 10 7 17t17 7h64v59q0 25 17.5 42.5t42.5 17.5h304q25 0 42.5 -17.5t17.5 -42.5v-59h64q10 0 17 -7z
M580.5 548.5q-3.5 3.5 -8.5 3.5h-304q-5 0 -8.5 -3.5t-3.5 -8.5v-59h328v59q0 5 -3.5 8.5zM224 374q7 7 7 17t-7 17t-17 7t-17 -7t-7 -17t7 -17t17 -7t17 7zM580.5 249.5q-3.5 3.5 -8.5 3.5h-304q-5 0 -8.5 -3.5t-3.5 -8.5v-181q0 -5 3.5 -8.5t8.5 -3.5h304q5 0 8.5 3.5
t3.5 8.5v181q0 5 -3.5 8.5zM528 199v-24q0 -6 -6 -6h-204q-6 0 -6 6v24q0 6 6 6h204q6 0 6 -6zM528 124v-24q0 -6 -6 -6h-204q-6 0 -6 6v24q0 6 6 6h204q6 0 6 -6z" />
    <glyph glyph-name="ccedilla" unicode="&#xe7;" 
d="M160 0h-160v600h160v-600zM240 600h360v-600h-360v600z" />
    <glyph glyph-name="edieresis" unicode="&#xeb;" horiz-adv-x="610" 
d="M187 144q0 -41 8 -63q10 -22 31 -41q21 -18 54 -30q30 -10 73 -10q38 0 67 7q31 7 70 26v94q-46 -29 -91 -29q-25 0 -45 12q-15 9 -21 23q-5 18 -5 67v154h142v94h-142v152h-86q-6 -46 -21 -76q-15 -32 -40 -52q-26 -21 -61 -33v-85h67v-210z" />
    <glyph glyph-name="iacute" unicode="&#xed;" horiz-adv-x="640" 
d="M421 86.5q19 -38.5 19 -86.5v-40h-480v40q0 48 19 86.5t54 60.5q48 30 66 66q6 9 10 27h-38l-11 21q-15 26 -15 59v22l19 12l23 14q-23 34 -23 75q0 37 18.5 68.5t49.5 50t68 18.5t68.5 -18.5t50 -50t18.5 -68.5q0 -41 -23 -75l22 -14l20 -12v-22q0 -31 -15 -59l-12 -21
h-37q2 -12 9 -27q20 -36 67 -66q34 -22 53 -60.5z" />
    <glyph glyph-name="icircumflex" unicode="&#xee;" horiz-adv-x="920" 
d="M720 0v-40h-760v40q0 49 19 87t54 60q47 29 66 66q6 9 10 27h-38l-11 21q-15 27 -15 59v22l19 12l23 14q-23 34 -23 76q0 37 18.5 68t49.5 49.5t68 18.5t68.5 -18.5t50 -49.5t18.5 -68q0 -40 -23 -76l22 -14l4 -2l4 2l23 14q-23 34 -23 76q0 37 18.5 68t49.5 49.5
t68 18.5t68.5 -18.5t50 -49.5t18.5 -68q0 -40 -23 -76l41 -26v-22q0 -31 -14 -59l-12 -21h-37q2 -12 9 -27q18 -35 67 -66q35 -21 54 -62q18 -37 18 -85zM329 240h-37q6 -35 42 -67l6 -6q26 20 39 46q6 9 10 27h-38l-11 20z" />
    <glyph glyph-name="eth" unicode="&#xf0;" horiz-adv-x="487" 
d="M420 311q0 -8 -6 -13l-25 -26q-5 -5 -13 -5q-6 0 -13 5l-120 120l-120 -119q-4 -6 -13 -6q-7 0 -13 6l-25 25q-5 5 -5 13q0 6 5 13l120 120l-120 120q-5 5 -5 13q0 6 5 13l25 25q7 5 13 5q8 0 13 -5l120 -120l120 120q7 5 13 5q8 0 13 -5l25 -25q6 -6 6 -13q0 -8 -6 -13
l-120 -120l120 -120q6 -6 6 -13zM0 199h141v-219h-141v219zM173 199h141v-219h-141v219zM345 199h142v-219h-142v219z" />
    <glyph glyph-name="ntilde" unicode="&#xf1;" horiz-adv-x="700" 
d="M184 544q-1 4 -1 11q0 36 30.5 54.5t71.5 24.5q-4 -8 -7 -16.5t-7 -15.5q-6 -11 -13 -17t-20 -11q-28 -12 -54 -30zM442 585q-7 6 -13 17q-4 7 -7 15.5t-7 16.5q44 -6 75.5 -27.5t25.5 -62.5q-26 18 -54 30q-13 5 -20 11zM103 456q-12 20 -12 39q0 29 22 54t53 44
q-1 -8 -0.5 -17.5t0.5 -13.5q0 -19 -4 -28.5t-17 -22.5q-26 -28 -42 -55zM534.5 575.5q0.5 9.5 -0.5 17.5q31 -19 53 -44t22 -54q0 -19 -12 -39q-16 27 -42 55q-13 13 -17 22.5t-4 28.5q0 4 0.5 13.5zM308 554q-7 -2 -27.5 -10t-38.5 -8q-23 0 -35 17q10 7 26.5 14.5
t24.5 9.5q25 5 50 -23zM458 536q-18 0 -38.5 8t-27.5 10q25 28 50 23q8 -2 24.5 -9.5t26.5 -14.5q-12 -17 -35 -17zM149.5 508q14.5 15 22.5 20q12 7 25 7q17 0 38 -11q-6 -5 -22 -19t-32 -23t-30 -9q-12 0 -25 8q9 12 23.5 27zM503 535q13 0 25 -7q8 -5 22.5 -20t23.5 -27
q-13 -8 -25 -8q-17 0 -33.5 10.5t-30.5 23t-20 17.5q21 11 38 11zM26 401q0 43 36 99q3 -7 9 -19t9 -20q6 -13 6 -25q0 -10 -6 -28q-14 -36 -17 -74q-37 25 -37 67zM620 408q-6 18 -6 28q0 12 6 25q3 8 9 20t9 19q36 -56 36 -99q0 -42 -37 -67q-3 38 -17 74zM310.5 417
q16.5 -15 39.5 -15t39.5 15t36.5 48q3 -44 14.5 -70t30.5 -26q21 0 48 15q-26 -45 -57 -130q11 -11 11 -23q0 -18 -22 -32q5 8 5 15q0 21 -30.5 36t-73.5 15t-74 -15t-31 -36q0 -7 5 -15q-22 14 -22 32q0 10 8 20q-28 83 -57 133q27 -15 48 -15q19 0 30.5 26t14.5 70
q20 -33 36.5 -48zM155 444q-16 -36 -33 -56t-45 -16q3 15 10 35t13 32q8 13 24 19.5t40 4.5q-3 -5 -9 -19zM578 388q-17 20 -33 56q-6 14 -9 19q24 2 40 -4.5t24 -19.5q6 -12 13 -32t10 -35q-28 -4 -45 16zM73 270.5q-3 22.5 -3 38.5q0 19 12.5 36t40.5 29q0 -15 1 -24
l1 -31q0 -33 -9 -55.5t-34 -31.5q-6 16 -9 38.5zM627 270.5q-3 -22.5 -9 -38.5q-25 9 -34 31.5t-9 55.5l1 31q1 9 1 24q28 -12 40.5 -29t12.5 -36q0 -16 -3 -38.5zM19.5 239.5q-19.5 34.5 -19.5 82.5q0 14 2 36l19 -15l18 -14q12 -11 17.5 -21.5t7.5 -28.5q4 -40 20 -79
q-45 5 -64.5 39.5zM643.5 307.5q5.5 10.5 17.5 21.5l18 14l19 15q2 -22 2 -36q0 -48 -19.5 -82.5t-64.5 -39.5q16 39 20 79q2 18 7.5 28.5zM109 169q-6 12 -6 27q0 28 21 59q3 -4 6 -8.5t7 -9.5q22 -33 33.5 -54.5t11.5 -43.5t-14 -40q-37 31 -59 70zM518 139
q0 22 11.5 43.5t33.5 54.5q4 5 7 9.5t6 8.5q21 -31 21 -59q0 -15 -6 -27q-22 -39 -59 -70q-14 18 -14 40zM434 189q-37 -15 -82 -15q-46 0 -83 15q-6 10 -6 15q0 6 5 13q11 -8 33.5 -13.5t50.5 -5.5q27 0 49.5 5.5t33.5 13.5q5 -7 5 -13q0 -7 -6 -15zM132 77q-41 0 -72 34.5
t-49 82.5q20 -4 29 -5l20 -3q18 -5 28 -12t22 -24q28 -39 59 -65q-21 -8 -37 -8zM612 174q10 7 28 12l20 3q9 1 29 5q-18 -48 -49 -82.5t-72 -34.5q-16 0 -37 8q31 26 59 65q12 17 22 24zM205.5 87.5q-11.5 21.5 -12.5 55.5l26 -9q53 -18 84 -40t29 -62q-56 6 -97 25
q-18 9 -29.5 30.5zM397 94q31 22 84 40l26 9q-1 -34 -12.5 -55.5t-29.5 -30.5q-41 -19 -97 -25q-2 40 29 62zM229 -13q-31 0 -64.5 16t-63.5 40q12 4 26.5 9.5t23.5 8.5q13 4 25 4q14 0 39 -11q43 -21 89 -30q-29 -37 -75 -37zM524 65q12 0 25 -4q9 -3 23.5 -8.5t26.5 -9.5
q-30 -24 -63.5 -40t-64.5 -16q-46 0 -75 37q46 9 89 30q25 11 39 11zM298 -3.5q17 14.5 40 23.5q-5 -19 -18 -36.5t-33 -17.5q-6 0 -10 1q4 15 21 29.5zM402 -3.5q17 -14.5 21 -29.5q-4 -1 -10 -1q-20 0 -33 17.5t-18 36.5q23 -9 40 -23.5z" />
    <glyph glyph-name="otilde" unicode="&#xf5;" horiz-adv-x="657" 
d="M208.5 381q-56.5 27 -96.5 75t-56 110q-4 13 4.5 23.5t22.5 10.5q9 0 16.5 -5.5t9.5 -15.5q9 -36 29 -66.5t48 -53.5q28 33 65 51.5t78 18.5q40 0 77 -18.5t65 -51.5q28 23 48 53.5t29 66.5q2 10 9.5 15.5t16.5 5.5q14 0 22.5 -10.5t4.5 -23.5q-16 -62 -56 -110
t-96.5 -75t-119.5 -27q-64 0 -120.5 27zM656 264q0 -10 -6 -18q-8 -10 -21 -10q-10 0 -17 7q-41 33 -78 52v-12q0 -58 -20 -107q66 -57 87 -142q3 -11 -3 -20.5t-17 -12.5q-2 -1 -6 -1q-10 0 -17.5 5.5t-9.5 15.5q-15 60 -61 105q-28 -42 -69.5 -66t-88.5 -24t-88.5 24.5
t-70.5 66.5q-46 -46 -61 -106q-2 -10 -9.5 -15.5t-16.5 -5.5q-14 0 -22.5 10.5t-4.5 23.5q21 84 88 143q-20 49 -20 106v12q-37 -19 -79 -52q-7 -7 -18 -7q-13 0 -20 10q-6 8 -6 18q0 12 9 21q55 46 124 76q89 -62 195 -62q53 0 102.5 16t91.5 46v-1q64 -26 124 -75
q9 -9 9 -21z" />
    <glyph glyph-name="odieresis" unicode="&#xf6;" horiz-adv-x="740" 
d="M668 393h72v-61h-72v-64h72v-61h-72v-64h72v-61h-85q-11 -23 -28 -39q-16 -17 -39 -28v-85h-61v72h-64v-72h-61v72h-64v-72h-61v72h-64v-72h-61v85q-23 11 -39 28q-17 16 -28 39h-85v61h72v64h-72v61h72v64h-72v61h72v64h-72v61h85q11 23 28 39q16 17 39 28v85h61v-72h64
v72h61v-72h64v72h61v-72h64v72h61v-85q23 -11 39 -28q17 -16 28 -39h85v-61h-72v-64zM598.5 528.5q-29.5 29.5 -70.5 29.5h-316q-41 0 -70.5 -29.5t-29.5 -70.5v-316q0 -41 29.5 -70.5t70.5 -29.5h316q41 0 70.5 29.5t29.5 70.5v316q0 41 -29.5 70.5zM588 458v-316
q0 -25 -18 -42q-16 -18 -42 -18h-316q-25 0 -42 18q-18 17 -18 42v316q0 26 18 42q17 18 42 18h316q26 0 42 -18q18 -16 18 -42z" />
    <glyph glyph-name="divide" unicode="&#xf7;" 
d="M450.5 559.5q68.5 -40.5 109 -109t40.5 -150.5t-40.5 -150.5t-109 -109t-150.5 -40.5t-150.5 40.5t-109 109t-40.5 150.5t40.5 150.5t109 109t150.5 40.5t150.5 -40.5zM449 300q0 10 -7 17l-169 169q-7 7 -17 7t-17 -7l-25 -25q-8 -8 -8 -17t8 -17l127 -128l-127 -126
q-8 -8 -8 -17q0 -10 8 -16l25 -26q7 -7 17 -7t17 7l169 169q7 7 7 17z" />
    <glyph glyph-name="udieresis" unicode="&#xfc;" horiz-adv-x="530" 
d="M507.5 542.5q22.5 -22.5 22.5 -54.5v-376q0 -31 -23 -54t-54 -23h-376q-31 0 -54 23t-23 54v376q0 31 23 54t54 23h376q32 0 54.5 -22.5zM388 388l-35 35q-3 4 -7 4t-8 -4l-74 -74l-68 67q-3 3 -7 3t-7 -3l-34 -34q-4 -4 -4 -7q0 -2 4 -8l67 -67l-74 -74q-3 -3 -3 -7
t3 -7l35 -36q3 -3 7 -3q5 0 8 3l74 74l67 -67q3 -3 7 -3q5 0 8 3l34 34q4 4 4 8t-4 7l-68 67l75 75q7 7 0 14z" />
    <glyph glyph-name="thorn" unicode="&#xfe;" horiz-adv-x="780" 
d="M253 531q23 30 59 47l-30 44q-1 1 -1 3.5t2 3.5q5 3 8 -2l31 -45q33 13 67 13t68 -13l31 45q4 5 7 2q2 -1 2.5 -3t-1.5 -4l-30 -44q36 -17 59 -47t27 -67h-325q3 37 26 67zM306.5 514.5q5.5 -5.5 12.5 -5.5t12 5.5t5 12.5t-5 12.5t-12 5.5t-12.5 -5t-5.5 -13
q0 -7 5.5 -12.5zM445.5 514.5q5.5 -5.5 12.5 -5.5q8 0 13 5.5t5 12.5q0 8 -5 13t-13 5q-7 0 -12.5 -5t-5.5 -13q0 -7 5.5 -12.5zM143.5 431q10.5 11 25.5 11t26 -11t11 -26v-145q0 -15 -11 -26t-26 -11t-25.5 11t-10.5 26v145q0 15 10.5 26zM583.5 431q10.5 11 25.5 11
q16 0 26.5 -11t10.5 -26v-145q0 -15 -10.5 -26t-26.5 -11q-15 0 -25.5 11t-10.5 26v145q0 15 10.5 26zM226 176q0 -12 8.5 -20t20.5 -8h32v-81q0 -15 10.5 -26t26.5 -11q15 0 25.5 11t10.5 26v81h57v-81q0 -15 10.5 -26t25.5 -11q16 0 26.5 11t10.5 26v81h32q12 0 20.5 8
t8.5 20v265h-325v-265z" />
    <glyph glyph-name="ydieresis" unicode="&#xff;" horiz-adv-x="832" 
d="M473 47q-15 35 -15 72q0 39 15 73t40 59q-25 -239 -40 -204zM424 206l-85 36l-9 6q14 19 20 38l7 3l3 9q15 40 12 79v13l-4 2q0 48 -12 69q-13 24 -37 39q-3 49 8 69t35.5 33.5t48.5 13.5h11q24 0 48.5 -13.5t35.5 -33.5t8 -69l5 -4q2 -33 -11 -69l-7 -4q-9 -31 -31 -55
q7 -20 31 -30l28 -12q-27 -14 -52 -39q-31 -31 -51 -75zM450 -16h-450v11q0 56 9.5 110.5t37.5 65.5l111 47q12 5 20.5 13.5t11.5 16.5q-24 25 -32 55l-7 4q-13 36 -11 69l6 4q-1 5 -1 18q0 36 9 51q11 20 35.5 33.5t47.5 13.5h12q23 0 48 -13.5t36 -33.5t8 -69l5 -4
q2 -33 -11 -69l-7 -4q-8 -30 -32 -55q3 -8 11.5 -16.5t20.5 -13.5l87 -37q-7 -28 -7 -62q0 -48 18 -92q12 -26 24 -43zM832 119q0 -39 -15 -72q-15 -34 -40 -59q-26 -26 -59 -41q-36 -14 -73 -14q-38 0 -72 14q-33 14 -60 40q-25 25 -40 60t-15 72q0 39 15 73t40 59
q27 27 60 40q33 15 72 15t73 -15q32 -13 59 -40q24 -23 40 -59q15 -34 15 -73zM760 100v38q-2 9 -8 8h-80v80q0 8 -8 8h-38q-8 0 -8 -8v-80h-79q-4 0 -6 -2q-2 -4 -2 -6v-38q0 -4 2 -5q2 -3 5 -3h80v-79q0 -4 2 -6q4 -2 6 -2h38q2 0 6 2q2 4 2 6v79h80q8 0 8 8z" />
    <glyph glyph-name="Amacron" unicode="&#x100;" horiz-adv-x="652" 
d="M487 165.5q-18 -18.5 -30 -38.5q32 -10 44 -36q7 -13 8.5 -28t1.5 -40v-6v-17h-440v17v6q0 25 1.5 40t8.5 28q12 26 44 36q-12 20 -30 38.5t-21 21.5q-37 37 -55.5 65t-18.5 68q0 64 40 105t102 41q47 0 93 -16l6 28h-46v91h50v50h92v-50h50v-91h-46l6 -29q43 17 93 17
q62 0 102 -41t40 -105q0 -40 -18.5 -68t-55.5 -65q-3 -3 -21 -21.5zM147 293.5q8 -10.5 26 -29.5q15 -15 31 -34l20 1v94q-24 19 -49 19q-15 0 -25.5 -7.5t-10.5 -22.5q0 -10 8 -20.5zM432.5 336.5q-10.5 7.5 -25.5 7.5q-25 0 -49 -19v-94l20 -1q17 19 31 34q18 19 26 29.5
t8 20.5q0 15 -10.5 22.5z" />
    <glyph glyph-name="amacron" unicode="&#x101;" horiz-adv-x="762" 
d="M557 67q4 -13 4 -27v-80h-559v80q0 14 4 27q9 28 29 50q23 21 51 31l3 1q-8 12 -31 33l-15 15q-38 38 -54 62q-29 42 -29 93q0 38 12.5 70.5t36.5 56.5q24 25 56 38t68 13l21 -1v103h50v50h155v-50h50v-103l21 1q36 0 68 -13t56 -38q24 -24 36.5 -56.5t12.5 -70.5
q0 -48 -21.5 -81.5t-61.5 -73.5l-15 -15q-23 -21 -31 -33l3 -1q28 -10 51 -31q20 -22 29 -50zM169 336l17 -17v17q-9 5 -19 7q-2 0 -3 -1zM377 336v-17q11 9 17 17l5 6q-1 1 -3 1q-10 -2 -19 -7z" />
    <glyph glyph-name="Abreve" unicode="&#x102;" horiz-adv-x="510" 
d="M438 65.5q2 -15.5 2 -42.5v-6v-17h-439v17v6q0 27 2 42.5t9 28.5q18 34 76 41q6 0 9 1q-8 8 -20 25q-37 56 -37 131q0 42 18 85t53 84q25 32 55 55q-12 15 -12 35q0 26 18.5 44.5t44.5 18.5q24 0 42 -17t20 -41v-8l-6 -5l-16 -19t-35 -82.5t-21 -142.5h40q3 121 39 181
l11 19l15 -16q38 -37 62 -78q33 -54 33 -113q0 -76 -38 -131q-8 -13 -20 -25q3 -1 10 -1q57 -7 76 -41q7 -13 9 -28.5z" />
    <glyph glyph-name="abreve" unicode="&#x103;" horiz-adv-x="1020" 
d="M820 40v-80h-860v41l1 39q0 14 4 27q7 26 29 50q17 17 44 28l2 20l36 222l2 10q-40 27 -48 81v2l-7 87l-2 26l23 13q37 20 79 20h32l5 -24l4 29l29 5q2 0 17 2t30 2t30 -2t17 -2l29 -5l4 -30l1 -7l23 12q37 20 79 20h32l5 -24l4 29l29 5q2 0 17 2t30 2t30 -2t17 -2l29 -5
l4 -29l6 24h31q42 0 79 -20l23 -13l-2 -26l-7 -87v-2q-8 -54 -48 -81l2 -10l36 -222l2 -19q25 -10 44 -29q21 -21 30 -50q4 -13 4 -27z" />
    <glyph glyph-name="Aogonek" unicode="&#x104;" horiz-adv-x="652" 
d="M487 141.5q-18 -18.5 -30 -38.5q32 -10 44 -36q7 -13 8.5 -28t1.5 -40v-6v-17h-440v17v6q0 25 1.5 40t8.5 28q12 26 44 36q-12 20 -30 38.5t-21 21.5q-37 37 -55.5 65t-18.5 68q0 64 40 105t102 41q47 0 93 -16l6 28h-46v91h50v50h92v-50h50v-91h-46l6 -29q43 17 93 17
q62 0 102 -41t40 -105q0 -40 -18.5 -68t-55.5 -65q-3 -3 -21 -21.5zM508.5 206q15.5 16 24.5 30q19 29 19 60q0 52 -31 84t-81 32q-49 0 -73 -11t-25 -11l-15 -9l-4 18l-20 85h54v31h-50v50h-32v-50h-50v-31h54l-24 -101l-15 8q-45 21 -98 21q-50 0 -81 -32t-31 -84
q0 -31 19 -60q9 -14 24.5 -30t21.5 -22q23 -23 35.5 -37t22.5 -32l1 -1l2 -4q2 0 2 1q67 7 133 7t133 -7q0 -1 2 -1l3 5q10 18 22.5 32t35.5 37q6 6 21.5 22zM214 341.5q20 -8.5 36 -23.5l5 -4v-136h-13l-45 -2l-7 -1l-4 6q-18 21 -35 38q-22 24 -32 39t-10 32q0 26 18.5 43
t47.5 17q19 0 39 -8.5zM454.5 333q18.5 -17 18.5 -43q0 -17 -10 -32t-32 -39q-17 -17 -35 -38l-4 -6l-7 1l-45 2h-13v136l5 4q16 15 36 23.5t39 8.5q29 0 47.5 -17zM149.5 312.5q-10.5 -7.5 -10.5 -22.5q0 -10 8 -20.5t26 -29.5q15 -15 31 -34l20 1v94q-24 19 -49 19
q-15 0 -25.5 -7.5zM378 206q17 19 31 34q18 19 26 29.5t8 20.5q0 15 -10.5 22.5t-25.5 7.5q-25 0 -49 -19v-94zM479 33q-1 13 -5 21q-5 11 -16.5 16.5t-27.5 8.5l-3 1q-5 0 -7 1q-63 7 -129 7t-129 -7q-2 -1 -7 -1l-3 -1q-36 -7 -44 -25q-4 -8 -5 -21t-1 -27h378q0 14 -1 27
z" />
    <glyph glyph-name="aogonek" unicode="&#x105;" horiz-adv-x="744" 
d="M544 40v-80h-560v80q0 11 5 27q8 29 29 50q22 21 50 31l13 4l1 12q8 72 86 139q-6 -1 -18 -1q-4 0 -5.5 -0.5t-2.5 -0.5l-8 -11q-12 -19 -20 -27q-12 -12 -32 -12q-14 0 -29.5 4t-17.5 5q-32 10 -50 25q-25 22 -25 56q0 26 16 48l49 69q9 12 13.5 22t8.5 25l10 27l1 2
q11 30 35 50q16 14 20 21l6 26v1q5 20 18 31q17 17 39 17h16l57 -57q40 -4 79 -20q49 -21 86 -57q40 -41 62 -95q23 -60 23 -130q0 -42 -28 -138q-2 -9 -4.5 -17t-3.5 -14l-1 -5q29 -10 48 -30q21 -21 30 -50q4 -13 4 -27z" />
    <glyph glyph-name="Ccaron" unicode="&#x10c;" horiz-adv-x="700" 
d="M191 491v-382h-191v64h127v63h-127v255h191zM445 491v-64h-127v-63h127v-255h-190v382h190zM700 491v-382h-191v382h191zM127 427h-63v-127h63v127zM636 427h-63v-254h63v254zM318 300v-127h64v127h-64z" />
    <glyph glyph-name="ccaron" unicode="&#x10d;" horiz-adv-x="487" 
d="M236 562q-5 5 -5 13v27v2q0 6 5 11q7 5 13 5h142q7 0 13 -6q5 -5 5 -12v-142q0 -8 -6 -13q-5 -6 -12 -5h-27q-8 0 -13 5q-6 6 -6 13v44l-230 -239q-4 -5 -13 -5q-8 0 -13 5l-25 25q-5 5 -5 13q0 9 5 13l230 240h-45q-9 0 -13 6zM487 358v-378h-142v378h142zM173 249h141
v-269h-141v269zM0 155h141v-175h-141v175z" />
    <glyph glyph-name="Dcaron" unicode="&#x10e;" horiz-adv-x="720" 
d="M717 299l-17 -20q-5 -5 -12 -5h-24q-7 0 -10 3l-36 29v-277q0 -11 -8 -21q-10 -8 -21 -8h-458q-11 0 -21 8q-8 10 -8 21v277l-36 -29q-3 -3 -10 -3h-25q-6 0 -11 5l-17 20q-3 5 -3 11q2 7 5 10l332 272q11 8 23 8t23 -8l332 -272q3 -2 5 -10q0 -5 -3 -11zM231 305
q16 -15 39 -15q22 0 39 14.5t16 34.5q1 20 -16 34.5t-39 14.5t-38.5 -14t-16.5 -34t16 -35zM373 298.5q-16 -14.5 -16 -34.5t16.5 -34t38.5 -14t38.5 15t16.5 34q0 21 -16.5 34.5t-38.5 13.5q-23 0 -39 -14.5zM533 183q-8 6 -17 6t-14 -5q-38 -29 -86 -45.5t-96 -16.5
q-38 0 -66 8q-5 1 -16.5 6t-18.5 5q-6 0 -12 -3q-11 -5 -11 -19q0 -6 4 -12t11 -8q51 -21 108 -21q50 0 99 14.5t92 41.5q4 3 12.5 9t13.5 12t5 13q0 9 -8 15z" />
    <glyph glyph-name="dcaron" unicode="&#x10f;" horiz-adv-x="690" 
d="M260 584q0 -5 -3 -8l-129 -128q-3 -3 -9 -6q-6 -2 -10 -2h-12q-5 0 -11 3q-5 1 -9 5l-74 75q-3 3 -3 8q0 4 3 7l25 25q3 3 8 3q4 0 8 -3l51 -51q3 -4 8 -4t8 4l105 105q3 3 8 3t8 -3l25 -25q3 -3 3 -8zM684 489q-7 -5 -13 -5h-363q-6 0 -13 5q-5 7 -5 13v56q0 6 5 13
q5 5 13 5h363q8 0 13 -5q5 -7 5 -13l1 -56q-1 -7 -6 -13zM209 221q-2 -4 -4 -6q-5 -5 -11 -5h-149q-6 0 -11 5q-2 2 -4 6v4v150v4q2 4 4 6q5 5 11 5h149q6 0 11 -5q2 -2 4 -6l1 -4v-150zM684 259q-7 -5 -13 -5h-363q-6 0 -13 5q-5 7 -5 13v56q0 6 5 13q7 5 13 5h363
q6 0 13 -5q5 -7 5 -13l1 -56q-1 -7 -6 -13zM80 260h80v80h-80v-80zM209 -9q-2 -4 -4 -6q-5 -5 -11 -5h-149q-6 0 -11 5q-2 2 -4 6v4v150v4q2 4 4 6q5 5 11 5h149q6 0 11 -5q2 -2 4 -6l1 -4v-150zM684 29q-7 -5 -13 -5h-363q-6 0 -13 5q-5 7 -5 13v56q0 6 5 13q7 5 13 5h363
q6 0 13 -5q5 -7 5 -13l1 -56q-1 -7 -6 -13zM80 30h80v80h-80v-80z" />
    <glyph glyph-name="Dcroat" unicode="&#x110;" horiz-adv-x="700" 
d="M386.5 340.5q-19.5 -23.5 -47.5 -62.5q-35 -47 -61 -77.5t-61 -55.5q-84 -62 -197 -66q-20 0 -20 21v61q0 9 5.5 13.5t11.5 4.5q60 2 102.5 23.5t71 51.5t68.5 84q29 41 54 69.5t55 52.5q71 54 163 60v65q0 19 13 19q8 0 20 -9l128 -106q8 -8 8 -17q0 -11 -8 -17
l-128 -107q-10 -9 -19 -9q-14 0 -14 20v61q-57 -6 -102 -39q-23 -17 -42.5 -40.5zM0 442v58q0 20 21 20q113 -4 196 -66q22 -16 48 -42l-26 -34l-13 -17l-22 -30q-38 41 -81 63.5t-106 25.5q-17 0 -17 22zM700 128q0 -10 -8 -18l-128 -105q-12 -9 -20 -9q-13 0 -13 19v64
q-92 6 -163 60q-27 21 -50 47q19 23 53 69l9 12q31 -35 49 -49q46 -34 102 -38v60q0 21 14 21q8 0 19 -9l128 -107q8 -6 8 -17z" />
    <glyph glyph-name="dcroat" unicode="&#x111;" horiz-adv-x="680" 
d="M675 273q-4 -5 -12 -5h-56q-7 -61 -39.5 -112t-83.5 -83.5t-112 -39.5v-56v-2q0 -7 -5 -10q-5 -5 -11 -5h-32q-6 0 -11 5q-5 4 -5 12v56q-61 7 -112 39.5t-83.5 83.5t-39.5 112h-56h-2q-7 0 -10 5q-5 5 -5 11v32q0 6 5 11q4 5 12 5h56q7 61 39.5 112t83.5 83.5t112 39.5
v56v2q0 7 5 10q5 5 11 5h32q6 0 11 -5q5 -4 5 -12v-56q61 -7 112 -39.5t83.5 -83.5t39.5 -112h56h2q7 0 10 -5q5 -5 5 -11v-32q0 -6 -5 -11zM483 157.5q46 45.5 56 110.5h-56q-8 0 -12 5q-5 5 -5 11v32q0 6 5 11q5 6 12 5h56q-10 65 -56 111t-111 56v-56q0 -8 -5 -12
q-5 -5 -11 -5h-32q-6 0 -11 5q-6 5 -5 12v56q-64 -10 -110 -56t-57 -111h56q8 0 12 -5q5 -5 5 -11v-32q0 -6 -5 -11q-5 -6 -12 -5h-56q11 -65 57 -110.5t110 -56.5v56q0 8 5 12q5 5 11 5h32q6 0 11 -5q6 -5 5 -12v-56q65 11 111 56.5z" />
    <glyph glyph-name="Emacron" unicode="&#x112;" horiz-adv-x="378" 
d="M378 600v-586q-3 38 -19 67.5t-43 46.5q-42 25 -57 56q-3 6 -8 21h32l10 19q13 24 13 51v20l-17 10l-19 12q20 29 20 64q0 40 -24 71.5t-61 42.5l-4 76q27 15 60 15l16 -66h51l10 76q22 4 40 4zM331 58.5q12 -25.5 12 -58.5h-343q0 33 12 58.5t34 39.5q51 32 66 63t17 59
l1 21h-49q-8 16 -8 34l56 35l-4 3q-17 11 -26.5 29.5t-9.5 38.5q0 35 24.5 59t58.5 24t58 -24.5t24 -58.5q0 -21 -9.5 -39t-26.5 -29l-4 -3l56 -35q0 -18 -8 -34h-49l1 -21q2 -19 6.5 -35.5t22.5 -40t54 -46.5q22 -14 34 -39.5z" />
    <glyph glyph-name="emacron" unicode="&#x113;" horiz-adv-x="378" 
d="M18.5 81q-16.5 -30 -18.5 -67v586q18 0 40 -4l9 -76h52l16 66q33 0 60 -15l-4 -76q-37 -11 -61 -42.5t-24 -71.5q0 -35 20 -64l-19 -12l-17 -10v-20q0 -27 13 -51l10 -19h32q-5 -15 -8 -21q-17 -31 -57 -56q-27 -17 -43.5 -47zM366 58.5q12 -25.5 12 -58.5h-343
q0 33 12 58.5t34 39.5q36 23 54 46.5t22.5 40t6.5 35.5l1 21h-49q-8 13 -8 34l56 35l-4 3q-17 11 -26.5 29t-9.5 39q0 34 24 58.5t58 24.5q35 0 59 -24t24 -59q0 -20 -9.5 -38.5t-26.5 -29.5l-5 -3l57 -35q0 -18 -8 -34h-49v-21q3 -30 17.5 -60t65.5 -62q23 -14 35 -39.5z
" />
    <glyph glyph-name="Edotaccent" unicode="&#x116;" horiz-adv-x="575" 
d="M503.5 62q1.5 -14 1.5 -39v-6v-17h-439v17l-1 6q0 24 1.5 38.5t7.5 26.5q12 28 48 40q7 39 33 68.5t61 57.5v1q21 16 32 31q6 9 9 18q1 3 1 7q0 6 -4 18l-1 -1v-1q-48 -51 -89 -52q-14 0 -20 -4.5t-14 -17.5q-3 -3 -7.5 -9.5t-9.5 -11.5q-6 -6 -16 -6q-14 0 -40 8.5
t-40 19.5q-16 15 -16 38q0 19 11 33l49 68q9 13 14.5 25.5t9.5 25.5q2 9 9 26l1 2q1 1 6 13.5t21 25.5q10 8 17 15.5t10 15.5l6 28q3 13 13 21.5t21 8.5h7l54 -54q61 -6 114 -38.5t85.5 -92.5t32.5 -143q0 -24 -7 -54.5t-19 -73.5l-5 -17q33 -10 45 -38q6 -13 7.5 -27z
M235 231q-31 -26 -51 -47.5t-30 -48.5q67 7 133 7q67 0 132 -7q1 -1 3 -1v2l5 16q25 88 25 120q0 62 -19 107q-16 42 -49 75q-29 27 -67 44q-36 15 -75 18h-5l-51 51l-1 -4l-7 -30v-1q-5 -13 -13.5 -22.5t-22.5 -21.5q-9 -7 -12.5 -12.5t-6.5 -14.5l-1 -2l-8 -24
q-5 -14 -11.5 -28.5t-17.5 -30.5l-49 -69q-6 -7 -6 -15t7 -15q8 -7 27 -13t31 -8q2 2 9 14q12 17 24 26t36 10q28 0 67 42l26 30l10 -13q10 -10 15 -25q6 -13 6 -26q0 -10 -3 -19q-3 -12 -12 -26q-11 -17 -38 -38zM204 466q10 -7 10 -17q0 -7 -6 -13q-8 -6 -18 -6l-15 1
q-11 0 -20 -8q3 16 10 29t18 17t21 -3zM101 76q-5 -12 -5 -46h378q0 35 -5 47q-8 18 -41 25l-9 2l-4 1q-61 7 -128 7q-66 0 -129 -7q-13 -2 -20 -4l-10 -3q-20 -7 -27 -22z" />
    <glyph glyph-name="Eogonek" unicode="&#x118;" horiz-adv-x="500" 
d="M413.5 93q16.5 -33 16.5 -75v-18h-429v18q0 42 16 75t45 52q77 49 85 123h-46l-5 10l-2 3q-5 9 -7.5 16t-2.5 19v10l8 5l44 29q-16 16 -25 37t-9 44q0 46 33 79t80 33t80 -33t33 -79q0 -23 -9 -44t-25 -37l44 -29l8 -5v-10q0 -12 -2.5 -19t-7.5 -16q0 -1 -2 -3l-5 -10
h-46q11 -76 85 -123q29 -19 45.5 -52z" />
    <glyph glyph-name="eogonek" unicode="&#x119;" horiz-adv-x="779" 
d="M639 502q0 -35 -22 -60q-14 -15 -31 -24l-88 -270v-1q28 -11 47 -30q22 -21 29 -50q5 -16 5 -27v-80h-560v80q0 10 4 27q9 29 30 50t50 31l-90 270q-17 9 -31 24q-22 27 -22 60q0 37 26 63v1q27 27 64 27q38 0 65 -29l1 -2q-2 14 -2 24q0 41 28 67q27 27 65 27t66 -28
q25 -27 27 -65q0 37 26 65q28 28 67 28q37 0 64 -27q28 -25 28 -67q0 -17 -2 -24l2 2q26 29 64 29q37 0 64 -27q26 -28 26 -64zM315 533q-15 23 -15 52q0 -28 -16 -52l16 -47zM149 512l-12 11q3 -10 3 -22q0 -9 -4 -27l10 -13zM464 474q-4 12 -4 27q0 8 2 22q-3 -4 -11 -10
l4 -51z" />
    <glyph glyph-name="Ecaron" unicode="&#x11a;" horiz-adv-x="790" 
d="M790 292q0 -23 -16 -38q-14 -11 -40 -19.5t-40 -8.5q-10 0 -16 6q-5 5 -9.5 11.5t-7.5 9.5q-8 13 -14 17.5t-20 4.5q-41 1 -89 52v1l-1 1q-5 -14 -3 -25q3 -9 9 -18q11 -15 32 -31v-1q35 -28 61 -57.5t33 -68.5q36 -12 48 -40q6 -12 7.5 -26.5t1.5 -38.5l-1 -6v-17h-659
v17l-1 6q0 24 1.5 38.5t7.5 26.5q12 28 48 40q7 39 33 68.5t61 57.5v1q21 16 32 31q6 9 9 18q1 3 1 7q0 6 -4 18l-1 -1v-1q-48 -51 -89 -52q-14 0 -20 -4.5t-14 -17.5q-3 -3 -7.5 -9.5t-9.5 -11.5q-6 -6 -16 -6q-14 0 -40 8.5t-40 19.5q-16 15 -16 38q0 19 11 33l49 68
q9 13 14.5 25.5t9.5 25.5q2 9 9 26l1 2q1 1 6 13.5t21 25.5q10 8 17 15.5t10 15.5l6 28q3 13 13 21.5t21 8.5h7l54 -54q85 -8 146 -62q60 54 145 62l54 54h7q11 0 21 -8.5t13 -21.5l6 -28q3 -8 10 -15.5t17 -15.5q16 -13 21 -25.5t6 -13.5l1 -2q7 -17 9 -26q4 -13 9.5 -25.5
t14.5 -25.5l49 -68q11 -14 11 -33zM761 292q0 8 -6 15l-49 69q-11 16 -17.5 30.5t-11.5 28.5l-8 24l-1 2q-3 9 -6.5 14.5t-12.5 12.5q-14 12 -22.5 21.5t-13.5 22.5v1l-7 30l-1 4l-51 -51h-5q-39 -3 -75 -18q-38 -17 -67 -44l-10 -11v-251h-65v42q0 5 -2 5q-3 1 -6 -2
l-73 -73q-4 -4 -4 -8q0 -5 4 -8l73 -73q3 -3 6 -3q2 1 2 6v42h65v-90h298q0 34 -5 46q-6 15 -27 22l-10 3l-14 3q0 14 -2 31q-10 27 -30 48.5t-51 47.5q-27 21 -38 38q-9 14 -12 26q-3 9 -3 19q0 13 6 26q5 15 15 25l10 13l26 -30q39 -42 67 -42q24 -1 36 -10t24 -26
q7 -12 9 -14q12 2 31 8t27 13q7 7 7 15zM469 237l74 -73q3 -3 3 -8t-3 -8l-74 -73q-3 -3 -6 -3q-2 2 -2 6v42h-64v72h64v42q0 5 2 5q3 1 6 -2z" />
    <glyph glyph-name="ecaron" unicode="&#x11b;" 
d="M0 440v160h600v-160h-600zM600 360v-360h-600v360h600z" />
    <glyph glyph-name="Gbreve" unicode="&#x11e;" horiz-adv-x="675" 
d="M272 225q-28 -52 -28 -112t28 -113h-271v13q0 66 10.5 130t44.5 76l130 55q13 7 23 16.5t14 18.5q-29 31 -37 65l-8 5q-15 39 -13 79l6 5q-1 6 -1 20q0 40 10 61q13 23 42 39t56 16h14q27 0 56 -16t41 -39q7 -14 9.5 -37.5t0.5 -43.5l6 -5q2 -40 -13 -79l-8 -5
q-8 -32 -36 -64q-48 -33 -76 -85zM674 111q0 -38 -14 -74q-14 -33 -41 -61q-26 -25 -61 -40t-74 -15t-74 15t-61 40q-25 26 -40 61t-15 74q0 40 15 74q16 37 40 61q28 27 61 41q32 14 74 14t74 -14q33 -14 61 -41q26 -26 41 -61q14 -36 14 -74zM598 111q0 6 -4 10l-100 100
q-4 4 -10 4t-10 -4l-15 -15q-4 -4 -4 -10t4 -10l50 -50h-125q-6 0 -10 -4t-4 -10v-22q0 -6 4 -10q6 -4 10 -4h125l-50 -50q-4 -4 -4 -10t4 -10l15 -15q4 -4 10 -4t10 4l100 100q4 4 4 10z" />
    <glyph glyph-name="Gdotaccent" unicode="&#x120;" horiz-adv-x="675" 
d="M272 225q-28 -52 -28 -112t28 -113h-271v13q0 66 10.5 130t44.5 76l130 55q13 7 23 16.5t14 18.5q-29 31 -37 65l-8 5q-15 39 -13 79l6 5q-1 6 -1 20q0 40 10 61q13 23 42 39t56 16h14q27 0 56 -16t41 -39q7 -14 9.5 -37.5t0.5 -43.5l6 -5q2 -40 -13 -79l-8 -5
q-8 -32 -36 -64q-48 -33 -76 -85zM674 111q0 -38 -14 -74q-14 -33 -41 -61q-26 -25 -61 -40t-74 -15t-74 15t-61 40q-25 26 -40 61t-15 74q0 40 15 74q16 37 40 61q28 27 61 41q32 14 74 14t74 -14q33 -14 61 -41q26 -26 41 -61q14 -36 14 -74zM594 132q-4 4 -10 4h-125
l50 50q4 4 4 10t-4 10l-15 15q-4 4 -10 4t-10 -4l-100 -100q-4 -4 -4 -10t4 -10l100 -100q4 -4 10 -4t10 4l15 15q4 4 4 10t-4 10l-50 50h125q4 0 10 4q4 4 4 10v22q0 6 -4 10z" />
    <glyph glyph-name="gdotaccent" unicode="&#x121;" 
d="M450 559.5q69 -40.5 109.5 -109.5t40.5 -150t-40.5 -150t-109.5 -109.5t-150 -40.5t-150 40.5t-109.5 109.5t-40.5 150t40.5 150t109.5 109.5t150 40.5t150 -40.5zM418.5 95q54.5 32 86.5 86.5t32 118.5t-32 118.5t-86.5 86.5t-118.5 32t-118.5 -32t-86.5 -86.5
t-32 -118.5t32 -118.5t86.5 -86.5t118.5 -32t118.5 32zM353 247l-186 -80l80 186l186 80zM332 256l-76 76l-58 -134z" />
    <glyph glyph-name="uni0122" unicode="&#x122;" horiz-adv-x="500" 
d="M413 93q16 -33 16 -75v-18h-429v18q0 42 16.5 75t45.5 52q74 47 85 123h-46l-5 10q-2 2 -2 3q-5 9 -7.5 16t-2.5 19v10l8 5l44 29q-16 16 -25 37t-9 44q0 46 33 79t80 33t80 -33t33 -79q0 -23 -9 -44t-25 -37l44 -29l8 -5v-10q0 -12 -2.5 -19t-7.5 -16l-2 -3l-5 -10h-46
q11 -76 85 -123q29 -19 45 -52zM155 197q-25 -44 -77 -78q-20 -13 -32.5 -36t-14.5 -53h368q-2 30 -14.5 53t-32.5 36q-52 34 -77 78q-17 31 -22 67l-4 34h62q3 6 5 12l-70 46l27 26q12 12 18 27q7 18 7 32q0 34 -24.5 58t-58.5 24t-58.5 -24t-24.5 -58q0 -18 7 -32
q6 -15 18 -27l26 -26l-69 -46q2 -6 5 -12h62l-4 -34q-5 -36 -22 -67z" />
    <glyph glyph-name="uni0123" unicode="&#x123;" horiz-adv-x="720" 
d="M520 40v-80h-560v80q0 14 4 27q9 29 30 50q18 19 44 29l2 19l36 222l2 10q-40 27 -48 81v2l-7 87l-2 26l23 13q37 20 79 20h32l5 -24l4 29l29 5q2 0 17 2t30 2t30 -2t17 -2l29 -5l4 -29l6 24h31q42 0 79 -20l23 -13l-2 -26l-7 -87v-2q-8 -54 -48 -81l2 -10l36 -222l2 -20
q27 -11 44 -28q22 -21 29 -50q5 -16 5 -27z" />
    <glyph glyph-name="Hbar" unicode="&#x126;" horiz-adv-x="771" 
d="M763.5 614q7.5 -7 7.5 -17v-443q0 -10 -7.5 -17t-17.5 -7h-237v61h200v369h-505v-180h-62v217q0 10 7 17t17 7h580q10 0 17.5 -7zM509 330q0 21 -14 35.5t-36 14.5h-215v140h425v-289h-160v99zM462 332.5q7 -7.5 7 -17.5v-311q0 -10 -7 -17t-17 -7h-420q-10 0 -17.5 7
t-7.5 17v311q0 11 7.5 18t17.5 7h420q10 0 17 -7.5zM408 278h-346v-237h346v237zM368 81h-266v157h266v-157z" />
    <glyph glyph-name="Imacron" unicode="&#x12a;" horiz-adv-x="680" 
d="M582 15q0 -7 -5 -11t-15 -4h-444q-10 0 -15 4t-5 11q0 6 4 13l208 360v64h-74q-7 0 -11 4q-4 6 -4 10v31q0 6 4 10q5 5 11 4h74v75q0 6 4 10t10 4h32q6 0 10 -4t4 -11v-74h74q7 0 11 -4q4 -6 4 -10v-32q0 -4 -4 -10q-4 -4 -11 -4h-74v-64l208 -359q4 -7 4 -13zM56 16
q0 -11 2 -16h-38q-10 0 -15 4t-5 11q0 6 4 13l100 295q7 11 16 11q11 0 16 -11l44 -76l-115 -198q-9 -16 -9 -33zM680 15q0 -7 -5 -11t-15 -4h-38q2 5 2 16q0 17 -9 33l-115 198l44 76q7 11 16 11q11 0 16 -11l100 -295q4 -7 4 -13z" />
    <glyph glyph-name="imacron" unicode="&#x12b;" 
d="M325 4q5 4 8.5 10.5t6.5 10.5q8 12 16 18q6 8 18 16l21 19q21 21 30 33q17 19 34 28q20 11 45 15q19 2 47 8l4 2q3 0 3 3q1 1 1 4l-1 5q0 14 -6 24q-6 11 -16 18q-12 9 -23 11q-11 4 -25 4q-16 0 -34 -5q-10 -4 -94 -4l2 333q0 17 -9.5 30t-29.5 13q-14 0 -26 -5
q-7 -3 -13.5 -14.5t-6.5 -31.5v-189q-5 5 -13 10t-17 5q-27 0 -47 -23q-11 8 -25 8q-15 0 -28 -7q-16 -8 -21 -20l-7 1h-7q-23 0 -36 -12q-14 -11 -22 -30q-7 -15 -10 -38q-3 -19 -3 -37q0 -32 6 -61q5 -23 14 -54l14 -50q1 -4 2.5 -18.5t7.5 -24t18 -9.5h207q10 0 15 4z
" />
    <glyph glyph-name="Iogonek" unicode="&#x12e;" horiz-adv-x="661" 
d="M571.5 459q19.5 -19 19.5 -47q0 -22 -15 -40.5t-36 -23.5l-90 -217h2v-1q38 -11 52 -36q7 -13 9 -28.5t2 -42.5v-6v-17h-439v17v6q0 29 1.5 43.5t8.5 27.5q15 27 55 37l-91 217q-20 5 -35 23.5t-15 40.5q0 28 19 47t47 19q26 0 45 -19q21 -21 21 -47q0 -12 -8 -28l48 -51
l6 136q-17 8 -27.5 24t-10.5 36q0 29 20.5 49t49.5 20t49 -20t20 -49q0 -13 -5.5 -26t-15.5 -22l37 -108l38 108q-10 9 -15.5 22t-5.5 26q0 29 20.5 49t48.5 20q29 0 49 -20t20 -49q0 -19 -10.5 -35.5t-27.5 -24.5l6 -136l48 51q-7 14 -7 28q0 27 20 47q19 19 45 19
q28 0 47.5 -19z" />
    <glyph glyph-name="iogonek" unicode="&#x12f;" horiz-adv-x="1200" 
d="M981 86.5q19 -38.5 19 -86.5v-40h-1040v40q0 48 19 86.5t54 60.5q48 30 66 66q8 15 9 27h-37l-12 21q-14 26 -14 59v22l19 12l22 13q-22 36 -22 76q0 37 18.5 68.5t49.5 50t68 18.5t68 -18.5t49.5 -50t18.5 -68.5q0 -41 -23 -75l23 -14l4 -3l4 3l22 13q-22 36 -22 76
q0 37 18.5 68.5t49.5 50t68 18.5t68 -18.5t49.5 -50t18.5 -68.5q0 -41 -23 -75l23 -14l4 -3l4 3l22 13q-22 36 -22 76q0 37 18.5 68.5t49.5 50t68 18.5t68 -18.5t49.5 -50t18.5 -68.5q0 -41 -23 -75l23 -14l19 -12v-22q0 -33 -15 -59l-11 -21h-38q4 -14 10 -27
q18 -36 66 -66q35 -22 54 -60.5zM329 240h-38q8 -38 42 -68l7 -6q28 23 39 47q8 15 9 27h-37l-11 20zM609 240h-38q8 -38 42 -68l7 -6q28 23 39 47q8 15 9 27h-37l-11 20z" />
    <glyph glyph-name="uni0136" unicode="&#x136;" horiz-adv-x="661" 
d="M572 459q19 -19 19 -47q0 -22 -15 -40.5t-35 -23.5l-91 -217l3 -1q38 -11 51 -36q7 -13 9 -28.5t2 -42.5v-6v-17h-439v17v6q0 27 2 42.5t9 28.5q15 26 54 37l-90 217q-21 5 -36 23.5t-15 40.5q0 28 19.5 47t47.5 19q26 0 45 -19q20 -20 20 -47q0 -14 -7 -28l48 -51l6 136
q-17 8 -27.5 24t-10.5 36q0 29 20 49t49 20t49 -20t20 -49q0 -13 -5.5 -26t-15.5 -22l38 -108l37 108q-10 9 -15.5 22t-5.5 26q0 29 20.5 49t48.5 20q29 0 49.5 -20t20.5 -49q0 -19 -11 -35.5t-28 -24.5l7 -136l48 51q-8 16 -8 28q0 27 20 47q21 19 46 19q28 0 47 -19z
M529 377q10 0 22 10q10 12 10 25q0 14 -10 26q-10 10 -26 10q-13 0 -24.5 -10.5t-11.5 -25.5q0 -10 9 -21l8 -9l-114 -121l-11 231l12 2q10 2 18.5 11.5t8.5 23.5q0 17 -11 28t-28 11q-14 0 -27 -11q-12 -12 -12 -28q0 -9 5 -17.5t13 -12.5l10 -6l-74 -212l-74 212l10 6
q8 5 12.5 13t4.5 17q0 18 -12 28q-11 11 -27 11t-27.5 -11t-11.5 -28q0 -14 9 -23q8 -11 19 -12l11 -2l-11 -231l-113 121l8 9q8 12 8 21q0 15 -11 25.5t-24 10.5q-16 0 -26 -10t-10 -26q0 -15 10 -25t22 -10h9l99 -239l1 -3q50 7 126 7q70 0 122 -6l2 4l98 237h9zM482 70.5
q-3 13.5 -16 22t-41 12.5l-16 2q-53 5 -111 5q-67 0 -128 -7l-3 -1q-8 0 -18 -2v-1q-31 -7 -37 -25q-6 -13 -6 -46h379q0 27 -3 40.5z" />
    <glyph glyph-name="uni0137" unicode="&#x137;" horiz-adv-x="1480" 
d="M1261.5 87q18.5 -38 18.5 -87v-40h-1320v40q0 49 19 87t54 60q47 29 66 66q6 9 10 27h-38l-11 21q-15 27 -15 59v22l19 12l23 14q-23 34 -23 76q0 37 18.5 68t49.5 49.5t68 18.5t68.5 -18.5t50 -49.5t18.5 -68q0 -40 -23 -76l22 -14l4 -2l4 2l23 14q-23 34 -23 76
q0 37 18.5 68t49.5 49.5t68 18.5t68.5 -18.5t50 -49.5t18.5 -68q0 -40 -23 -76l22 -14l4 -2l4 2l23 14q-23 34 -23 76q0 37 18.5 68t49.5 49.5t68 18.5t68.5 -18.5t50 -49.5t18.5 -68q0 -40 -23 -76l22 -14l4 -2l4 2l23 14q-23 34 -23 76q0 37 18.5 68t49.5 49.5t68 18.5
t68.5 -18.5t50 -49.5t18.5 -68q0 -40 -23 -76l41 -26v-22q0 -31 -14 -59l-12 -21h-37q2 -12 9 -27q19 -36 67 -66q35 -22 53.5 -60zM329 240h-37q6 -35 42 -67l6 -6q27 23 39 46q6 9 10 27h-38l-11 20zM609 240h-37q6 -35 42 -67l6 -6q27 23 39 46q6 9 10 27h-38l-11 20z
M889 240h-37q6 -35 42 -67l6 -6q27 23 39 46q6 9 10 27h-38l-11 20z" />
    <glyph glyph-name="uni013B" unicode="&#x13b;" horiz-adv-x="510" 
d="M438.5 62.5q1.5 -14.5 1.5 -39.5v-6v-17h-440v17v6q0 25 1.5 39.5t7.5 27.5q13 28 52 40q12 89 28 231q-22 9 -34 24.5t-15 39.5l-7 84l-1 11l10 5q31 17 66 17h13l3 -13l12 -54h22l7 62l1 13l13 2q1 0 13.5 2t27.5 2t27.5 -2t13.5 -2l13 -2l1 -13l7 -62h22l12 54l3 13
h13q35 0 66 -17l10 -5l-1 -11l-7 -84q-3 -24 -15 -39.5t-34 -24.5q16 -142 28 -231q39 -12 52 -40q6 -13 7.5 -27.5zM64 503l6 -75q2 -14 9 -24t23 -16q72 10 118 10t118 -10q16 6 23 16t9 24l6 75q-17 7 -33 8l-15 -66h-72l-10 79l-26 1l-26 -1l-10 -79h-72l-15 66
q-16 -1 -33 -8zM115 322q-20 -168 -23 -187q63 7 128 7t128 -7q-3 19 -23 187l-4 34v4q-61 8 -101 8t-101 -8v-4zM37 77q-4 -7 -5 -20t-1 -27h378q0 14 -1 27t-5 20q-9 19 -42 26h-1l-11 2q-63 7 -129 7t-129 -7l-11 -2h-1q-33 -7 -42 -26z" />
    <glyph glyph-name="uni013C" unicode="&#x13c;" horiz-adv-x="2040" 
d="M1840 0v-40h-1880v40q0 49 19 87t54 60q47 29 66 66q6 9 10 27h-38l-11 21q-15 27 -15 59v22l19 12l23 14q-23 34 -23 76q0 37 18.5 68t49.5 49.5t68 18.5t68.5 -18.5t50 -49.5t18.5 -68q0 -40 -23 -76l22 -14l4 -2l4 2l23 14q-23 34 -23 76q0 37 18.5 68t49.5 49.5
t68 18.5t68.5 -18.5t50 -49.5t18.5 -68q0 -40 -23 -76l22 -14l4 -2l4 2l23 14q-23 34 -23 76q0 37 18.5 68t49.5 49.5t68 18.5t68.5 -18.5t50 -49.5t18.5 -68q0 -40 -23 -76l22 -14l4 -2l4 2l23 14q-23 34 -23 76q0 37 18.5 68t49.5 49.5t68 18.5t68.5 -18.5t50 -49.5
t18.5 -68q0 -40 -23 -76l22 -14l4 -2l4 2l23 14q-23 34 -23 76q0 37 18.5 68t49.5 49.5t68 18.5t68.5 -18.5t50 -49.5t18.5 -68q0 -40 -23 -76l22 -14l4 -2l4 2l23 14q-23 34 -23 76q0 37 18.5 68t49.5 49.5t68 18.5t68.5 -18.5t50 -49.5t18.5 -68q0 -42 -23 -76l41 -26v-22
q0 -31 -14 -59l-12 -21h-37q2 -12 9 -27q18 -35 67 -66q35 -21 54 -62q18 -37 18 -85zM329 240h-37q6 -35 42 -67l6 -6q26 20 39 46q6 9 10 27h-38l-11 20zM609 240h-37q6 -35 42 -67l6 -6q26 20 39 46q6 9 10 27h-38l-11 20zM889 240h-37q6 -35 42 -67l6 -6q26 20 39 46
q6 9 10 27h-38l-11 20zM1169 240h-37q6 -35 42 -67l6 -6q26 20 39 46q6 9 10 27h-38l-11 20zM1449 240h-37q6 -35 42 -67l6 -6q26 20 39 46q6 9 10 27h-38l-11 20z" />
    <glyph glyph-name="Lcaron" unicode="&#x13d;" horiz-adv-x="510" 
d="M438.5 62.5q1.5 -14.5 1.5 -39.5v-6v-17h-440v17v6q0 25 1.5 39.5t7.5 27.5q13 28 52 40q12 89 28 231q-22 9 -34 24.5t-15 39.5l-7 84l-1 11l10 5q31 17 66 17h13l3 -13l12 -54h22l7 62l1 13l13 2q1 0 13.5 2t27.5 2t27.5 -2t13.5 -2l13 -2l1 -13l7 -62h22l12 54l3 13
h13q35 0 66 -17l10 -5l-1 -11l-7 -84q-3 -24 -15 -39.5t-34 -24.5q16 -142 28 -231q39 -12 52 -40q6 -13 7.5 -27.5z" />
    <glyph glyph-name="lcaron" unicode="&#x13e;" horiz-adv-x="1760" 
d="M1541 87q19 -38 19 -87v-40h-1600v40q0 49 19 87t54 60q47 29 66 66q7 13 10 27h-38l-11 21q-15 27 -15 59v22l19 12l23 14q-23 34 -23 76q0 37 18.5 68t49.5 49.5t68 18.5t68.5 -18.5t50 -49.5t18.5 -68q0 -40 -23 -76l22 -14l4 -2l4 2l23 14q-23 34 -23 76
q0 37 18.5 68t49.5 49.5t68 18.5t68.5 -18.5t50 -49.5t18.5 -68q0 -40 -23 -76l22 -14l4 -2l4 2l23 14q-23 34 -23 76q0 37 18.5 68t49.5 49.5t68 18.5t68.5 -18.5t50 -49.5t18.5 -68q0 -40 -23 -76l22 -14l4 -2l4 2l23 14q-23 34 -23 76q0 37 18.5 68t49.5 49.5t68 18.5
t68.5 -18.5t50 -49.5t18.5 -68q0 -40 -23 -76l22 -14l4 -2l4 2l23 14q-23 34 -23 76q0 37 18.5 68t49.5 49.5t68 18.5t68.5 -18.5t50 -49.5t18.5 -68q0 -40 -23 -76l41 -26v-22q0 -31 -14 -59l-12 -21h-37q2 -12 9 -27q17 -35 66 -66q35 -22 54 -60zM329 240h-37
q6 -36 42 -67l6 -6q26 20 39 46q7 13 10 27h-38l-11 20zM609 240h-37q6 -36 42 -67l6 -6q26 20 39 46q7 13 10 27h-38l-11 20zM889 240h-37q6 -36 42 -67l6 -6q26 20 39 46q7 13 10 27h-38l-11 20zM1169 240h-37q6 -36 42 -67l6 -6q26 20 39 46q7 13 10 27h-38l-11 20z" />
    <glyph glyph-name="Lslash" unicode="&#x141;" horiz-adv-x="1016" 
d="M124 160q-23 25 -43.5 66.5t-20.5 94.5q0 58 30.5 110.5t74.5 88.5l-5 26l-1 3q-1 5 -1 16q0 31 20.5 53t49.5 22t49.5 -22t20.5 -53q0 -7 -2 -17q-4 -16 -8 -26l-61 -110q-21 -47 -31 -119h47q9 56 17 79q10 32 35 75l29 45q24 -24 41 -54v-1q-28 -54 -28 -116
q0 -63 29 -121q-12 -19 -30 -40h-212zM441 160q-22 23 -43 65.5t-21 95.5q0 58 30 110.5t74 88.5l-5 26v3q-2 10 -2 16q0 31 20.5 53t49.5 22t50 -22t21 -53q0 -7 -2 -17q-4 -16 -9 -26l-61 -110q-22 -51 -31 -119h47q9 56 18 79q10 32 35 75l27 43q28 -30 48 -61
q30 -50 30 -108q0 -40 -14.5 -83t-35.5 -78h-226zM32 96.5q29 23.5 88 23.5h195l-4 -3q-21 -21 -27.5 -43t-6.5 -34v-40h-277l1 40q2 33 31 56.5zM745 96.5q29 -23.5 32 -56.5v-40h-460v40q2 33 31 56.5t88 23.5h221q59 0 88 -23.5z" />
    <glyph glyph-name="lslash" unicode="&#x142;" horiz-adv-x="2320" 
d="M2101.5 87q18.5 -38 18.5 -87v-40h-2160v40q0 49 19 87t54 60q47 29 66 66q6 9 10 27h-38l-11 21q-15 27 -15 59v22l19 12l23 14q-23 34 -23 76q0 37 18.5 68t49.5 49.5t68 18.5t68.5 -18.5t50 -49.5t18.5 -68q0 -40 -23 -76l22 -14l4 -2l4 2l23 14q-23 34 -23 76
q0 37 18.5 68t49.5 49.5t68 18.5t68.5 -18.5t50 -49.5t18.5 -68q0 -40 -23 -76l22 -14l4 -2l4 2l23 14q-23 34 -23 76q0 37 18.5 68t49.5 49.5t68 18.5t68.5 -18.5t50 -49.5t18.5 -68q0 -40 -23 -76l22 -14l4 -2l4 2l23 14q-23 34 -23 76q0 37 18.5 68t49.5 49.5t68 18.5
t68.5 -18.5t50 -49.5t18.5 -68q0 -40 -23 -76l22 -14l4 -2l4 2l23 14q-23 34 -23 76q0 37 18.5 68t49.5 49.5t68 18.5t68.5 -18.5t50 -49.5t18.5 -68q0 -40 -23 -76l22 -14l4 -2l4 2l23 14q-23 34 -23 76q0 37 18.5 68t49.5 49.5t68 18.5t68.5 -18.5t50 -49.5t18.5 -68
q0 -42 -23 -76l22 -14l4 -2l4 2l23 14q-23 34 -23 76q0 37 18.5 68t49.5 49.5t68 18.5t68.5 -18.5t50 -49.5t18.5 -68q0 -40 -23 -76l41 -26v-22q0 -31 -14 -59l-12 -21h-37q2 -12 9 -27q18 -35 67 -66q35 -22 53.5 -60zM329 240h-37q6 -35 42 -67l6 -6q26 20 39 46
q6 9 10 27h-38l-11 20zM609 240h-37q6 -35 42 -67l6 -6q26 20 39 46q6 9 10 27h-38l-11 20zM889 240h-37q6 -35 42 -67l6 -6q26 20 39 46q6 9 10 27h-38l-11 20zM1169 240h-37q6 -35 42 -67l6 -6q26 20 39 46q6 9 10 27h-38l-11 20zM1449 240h-37q6 -35 42 -67l6 -6
q26 20 39 46q6 9 10 27h-38l-11 20zM1729 240h-37q6 -35 42 -67l6 -6q26 20 39 46q6 9 10 27h-38l-11 20z" />
    <glyph glyph-name="uni0145" unicode="&#x145;" horiz-adv-x="1020" 
d="M70 483l-7 88q27 15 60 15l16 -66h51l10 76q22 4 40 4t40 -4l9 -76h38l3 -40v-2q6 -37 24 -58h-232q-47 16 -52 63zM370 483l-7 88q27 15 60 15l16 -66h52l9 76q22 4 40 4t40 -4l9 -76h52l16 66q33 0 60 -15l-7 -88q-5 -47 -52 -63h-236q-47 16 -52 63zM116 380h259
l-35 -215v-5h-260zM684.5 257q10.5 -63 15.5 -97h-320l36 220h248zM32 96.5q29 23.5 88 23.5h178l-4 -3q-21 -21 -27 -42.5t-6 -34.5l-1 -39v-1h-260l1 40q2 33 31 56.5zM749 96.5q29 -23.5 31 -56.5v-40h-479v40q2 33 31 56.5t88 23.5h241q59 0 88 -23.5z" />
    <glyph glyph-name="Ncaron" unicode="&#x147;" horiz-adv-x="1024" 
d="M53.5 297q-29.5 8 -42.5 19q-11 9 -11 25q0 14 9 24l50 70q17 27 27 57q2 9 9 26q7 21 24 35q14 13 21.5 21t11.5 19l6 30q2 7 7 12t11 5l55 -55q63 -5 114 -36l-7 -15v-2q-6 -13 -10 -27q-10 -30 -22 -47l-49 -68q-3 6 -11 18l-17 -19q-19 -20 -37.5 -33.5t-40.5 -13.5
q-20 -1 -30 -8.5t-19 -22.5q-10 -14 -15 -19q-4 -3 -33.5 5zM366 492q2 9 9 26q7 21 24 35q14 13 21.5 21t11.5 19l6 30q2 7 7 12t11 5l55 -55q58 -4 110 -33.5t85.5 -88t33.5 -142.5q0 -37 -28 -131l-8 -30h-302q4 39 30 69.5t63 60.5q25 20 36 36q5 7 11 23q2 10 2 14
q0 20 -18 45l-17 -19q-19 -20 -37.5 -33.5t-40.5 -13.5q-20 -1 -30 -8.5t-19 -22.5q-10 -14 -15 -19q-4 -3 -33.5 5t-42.5 19q-11 9 -11 25q0 14 9 24l50 70q17 27 27 57zM382 251q8 0 20 4q-35 -44 -39 -91l-1 -4h-240q4 39 30 69.5t63 60.5q18 15 29 27q6 -19 21 -32
q18 -14 48.5 -24t48.5 -10q7 0 10 1q4 -1 10 -1zM56 96.5q29 23.5 88 23.5h158l-3 -3q-21 -21 -27.5 -42.5t-6.5 -34.5l-1 -39v-1h-240l1 40q2 33 31 56.5zM753 96.5q29 -23.5 31 -56.5v-40h-479v40q2 33 31 56.5t88 23.5h241q59 0 88 -23.5z" />
    <glyph glyph-name="ncaron" unicode="&#x148;" horiz-adv-x="2600" 
d="M2400 0v-40h-2440v40q0 49 19 87t54 60q47 29 66 66q6 9 10 27h-38l-11 21q-15 27 -15 59v22l19 12l23 14q-23 34 -23 76q0 37 18.5 68t49.5 49.5t68 18.5t68.5 -18.5t50 -49.5t18.5 -68q0 -40 -23 -76l22 -14l4 -2l4 2l23 14q-23 34 -23 76q0 37 18.5 68t49.5 49.5
t68 18.5t68.5 -18.5t50 -49.5t18.5 -68q0 -40 -23 -76l22 -14l4 -2l4 2l23 14q-23 34 -23 76q0 37 18.5 68t49.5 49.5t68 18.5t68.5 -18.5t50 -49.5t18.5 -68q0 -40 -23 -76l22 -14l4 -2l4 2l23 14q-23 34 -23 76q0 37 18.5 68t49.5 49.5t68 18.5t68.5 -18.5t50 -49.5
t18.5 -68q0 -40 -23 -76l22 -14l4 -2l4 2l23 14q-23 34 -23 76q0 37 18.5 68t49.5 49.5t68 18.5t68.5 -18.5t50 -49.5t18.5 -68q0 -40 -23 -76l22 -14l4 -2l4 2l23 14q-23 34 -23 76q0 37 18.5 68t49.5 49.5t68 18.5t68.5 -18.5t50 -49.5t18.5 -68q0 -42 -23 -76l22 -14
l4 -2l4 2l23 14q-23 34 -23 76q0 37 18.5 68t49.5 49.5t68 18.5t68.5 -18.5t50 -49.5t18.5 -68q0 -40 -23 -76l22 -14l4 -2l4 2l23 14q-23 34 -23 76q0 37 18.5 68t49.5 49.5t68 18.5t68.5 -18.5t50 -49.5t18.5 -68q0 -40 -23 -76l41 -26v-22q0 -31 -14 -59l-12 -21h-37
q2 -12 9 -27q18 -35 67 -66q35 -21 54 -62q18 -37 18 -85zM329 240h-37q6 -35 42 -67l6 -6q26 20 39 46q6 9 10 27h-38l-11 20zM609 240h-37q6 -35 42 -67l6 -6q26 20 39 46q6 9 10 27h-38l-11 20zM889 240h-37q6 -35 42 -67l6 -6q26 20 39 46q6 9 10 27h-38l-11 20z
M1169 240h-37q6 -35 42 -67l6 -6q26 20 39 46q6 9 10 27h-38l-11 20zM1449 240h-37q6 -35 42 -67l6 -6q26 20 39 46q6 9 10 27h-38l-11 20zM1729 240h-37q6 -35 42 -67l6 -6q26 20 39 46q6 9 10 27h-38l-11 20zM2009 240h-37q6 -35 42 -67l6 -6q26 20 39 46q6 9 10 27h-38
l-11 20z" />
    <glyph glyph-name="Eng" unicode="&#x14a;" horiz-adv-x="888" 
d="M320 516q-3 49 8 69t35.5 33.5t48.5 13.5h11q24 0 48.5 -13.5t35.5 -33.5t8 -69l5 -4q2 -33 -11 -69l-7 -4q-9 -31 -31 -55q7 -20 31 -30l21 -9q-24 -14 -46 -36q-31 -29 -49 -72l-5 -14l-83 35l-9 6q14 19 20 38l7 3l3 9q15 40 12 79v12l-4 3q0 48 -12 69q-13 24 -37 39
zM467 0h-466v11q0 56 9.5 110.5t37.5 65.5l111 47q12 5 20.5 13.5t11.5 16.5q-24 25 -32 55l-7 4q-13 36 -11 69l6 4q-1 5 -1 18q0 36 9 51q11 20 35.5 33.5t47.5 13.5h12q23 0 48 -13.5t36 -33.5t8 -69l5 -4q2 -33 -11 -69l-7 -4q-8 -30 -32 -55q3 -8 11.5 -16.5
t20.5 -13.5l87 -37q-5 -19 -5 -48v-5v-2v-2q1 -40 17 -79q3 -5 7 -15q11 -19 13 -22h1q8 -12 18 -24zM888 -60q0 -6 -4 -11l-12 -14q-6 -6 -14 -12q-8 -5 -12 -5q-7 0 -12 5l-100 100q-19 -14 -46 -22t-51 -8q-34 0 -68 14q-31 13 -56 38q-24 24 -38 56q-14 33 -14 68t14 68
q12 30 38 56q25 25 56 38q33 14 68 14t68 -14q30 -12 56 -38q25 -23 38 -56q14 -29 14 -68q0 -28 -7 -50q-6 -20 -22 -47l100 -99q4 -5 4 -13zM743 149q0 22 -9 41q-6 17 -22 34q-17 16 -34 22q-20 9 -41 9t-41 -9q-19 -8 -33 -22t-23 -34q-8 -21 -8 -41t8 -41
q10 -21 23 -33q11 -12 33 -23q17 -8 41 -8t41 8q20 9 34 23q15 15 22 33q9 20 9 41z" />
    <glyph glyph-name="eng" unicode="&#x14b;" 
d="M595 552q5 -5 5 -12v-232q0 -75 -32.5 -137.5t-94 -118.5t-159.5 -122q-5 -4 -14 -4t-14 4q-98 66 -159.5 122t-94 118.5t-32.5 137.5v232q0 7 5 12t12 5q79 2 138.5 26t131.5 86q5 5 13 5q9 0 13 -5q72 -62 131.5 -86t138.5 -26q7 0 12 -5z" />
    <glyph glyph-name="Omacron" unicode="&#x14c;" horiz-adv-x="762" 
d="M18 287.5q-18 27.5 -18 64.5q0 61 38 99q36 38 95 38q57 0 98 -25l12 54h-49v74h50v50h75v-50h50v-74h-49l12 -54q41 25 98 25q59 0 95 -38q38 -38 38 -99q0 -37 -18 -64.5t-53 -62.5l-15 -14q-30 -28 -43 -51h-305q-13 23 -43 51l-15 14q-35 35 -53 62.5zM133.5 370
q-12.5 -11 -9.5 -32q1 -11 10 -22t27 -28q22 -22 26 -27h39v98q-34 24 -60 24q-20 -2 -32.5 -13zM376 261l27 28q18 17 26.5 27.5t10.5 21.5q3 21 -10 32t-33 13q-25 0 -60 -24v-98h39zM490 96.5q29 -23.5 31 -56.5v-40h-479v40q2 33 31 56.5t88 23.5h241q59 0 88 -23.5z
" />
    <glyph glyph-name="Ohungarumlaut" unicode="&#x150;" horiz-adv-x="700" 
d="M80.5 226.5q-20.5 41.5 -20.5 94.5q0 58 30.5 110.5t74.5 88.5l-5 26l-1 3q-1 5 -1 16q0 31 20.5 53t49.5 22t49.5 -22t20.5 -53q0 -7 -2 -17q-4 -16 -8 -26l-61 -110q-21 -47 -31 -119h47q9 56 17 79q10 32 35 75l29 45q31 -33 53.5 -76.5t22.5 -94.5q0 -53 -21 -95.5
t-43 -65.5h-212q-23 25 -43.5 66.5zM429 96.5q29 -23.5 31 -56.5v-40h-460v40q2 33 31 56.5t88 23.5h222q59 0 88 -23.5z" />
    <glyph glyph-name="uni0156" unicode="&#x156;" horiz-adv-x="744" 
d="M53.5 297q-29.5 8 -42.5 19q-11 9 -11 25q0 14 9 24l50 70q17 27 27 57q2 9 9 26q7 21 24 35q14 13 21.5 21t11.5 19l6 30q2 7 7 12t11 5l55 -55q58 -4 110 -33.5t85.5 -88t33.5 -142.5q0 -37 -28 -131l-8 -30h-302q4 39 30 69.5t63 60.5q25 20 36 36q5 7 11 23
q2 10 2 14q0 20 -18 45l-17 -19q-19 -20 -37.5 -33.5t-40.5 -13.5q-20 -1 -30 -8.5t-19 -22.5q-10 -14 -15 -19q-4 -3 -33.5 5zM473 96.5q29 -23.5 31 -56.5v-40h-479v40q2 33 31 56.5t88 23.5h241q59 0 88 -23.5z" />
    <glyph glyph-name="Rcaron" unicode="&#x158;" horiz-adv-x="695" 
d="M327 141q-7 -17 -7 -35q0 -37 27 -64l42 -42h-389v13q0 64 11 128.5t44 76.5l130 56q14 6 23.5 15t13.5 19q-27 31 -37 66l-8 4q-15 40 -13 80l6 5q-3 58 10 81q12 23 41 39t57 16h13q28 0 56.5 -15.5t41.5 -39.5q13 -23 10 -81l6 -5q2 -40 -13 -80l-8 -4
q-10 -35 -37 -66q3 -9 13 -18.5t24 -15.5l46 -20l-83 -84q-13 -12 -20 -29zM692 182l-31 31q-3 3 -6.5 3t-5.5 -3l-65 -65l-59 59q-1 3 -6 3q-3 0 -6 -3l-29 -30q-7 -6 0 -13l58 -58l-64 -64q-3 -3 -3 -6q0 -4 3 -7l30 -30q3 -3 6 -3q4 0 7 3l64 64l58 -59q4 -2 6 -2
q3 0 7 2l30 30q7 7 0 13l-59 58l65 65q6 6 0 12zM439.5 135.5q12.5 -12.5 12.5 -29.5t-12.5 -29.5t-29.5 -12.5t-29 12.5t-12 29.5t12 29.5t29 12.5t29.5 -12.5z" />
    <glyph glyph-name="rcaron" unicode="&#x159;" horiz-adv-x="695" 
d="M327 141q-7 -17 -7 -35q0 -37 27 -64l42 -42h-389v13q0 64 11 128.5t44 76.5l130 56q14 6 23.5 15t13.5 19q-27 31 -37 66l-8 4q-15 40 -13 80l6 5q-3 58 10 81q12 23 41 39t57 16h13q28 0 56.5 -15.5t41.5 -39.5q13 -23 10 -81l6 -5q2 -40 -13 -80l-8 -4
q-10 -35 -37 -66q3 -9 13 -18.5t24 -15.5l46 -20l-83 -84q-13 -12 -20 -29zM674.5 216q19.5 -53 19.5 -110t-19.5 -110t-57.5 -96q-7 -8 -15 -3l-30 30q-4 3 -4 8t4 9q29 35 44 76.5t15 85.5q0 90 -59 163q-4 4 -4 8q0 5 4 8l30 30q2 2 6 2q5 0 9 -5q38 -43 57.5 -96z
M568 110q0 -73 -42 -123q-6 -8 -13 -1l-32 32q-5 6 0 13q25 34 25 75t-25 75q-5 7 0 13l32 32q7 7 13 -1q42 -51 42 -115zM439.5 135.5q12.5 -12.5 12.5 -29.5t-12.5 -29.5t-29.5 -12.5t-29 12.5t-12 29.5t12 29.5t29 12.5t29.5 -12.5z" />
    <glyph glyph-name="Scedilla" unicode="&#x15e;" horiz-adv-x="779" 
d="M599 502q0 -20 -13 -34q-12 -15 -32 -18l-94 -290h-319l-96 290q-20 3 -32 18q-13 14 -13 34q0 21 15 36q13 15 35 15q19 0 35 -16q14 -15 14 -36q0 -19 -11 -31l91 -118l11 184q-18 6 -27 18t-9 32q0 23 16 39q15 15 37 15t37 -16q15 -15 15 -38q0 -28 -20 -44l62 -182
l59 182q-21 17 -21 44q0 22 16 38q15 16 37 16t37 -15q16 -16 16 -39q0 -20 -9 -32t-27 -18l13 -184l89 118q-12 14 -12 31q0 20 15 36q16 16 35 16q22 0 35 -15q15 -15 15 -36zM507 96.5q29 -23.5 31 -56.5v-40h-479v40q2 33 31 56.5t88 23.5h241q59 0 88 -23.5z" />
    <glyph glyph-name="Scaron" unicode="&#x160;" horiz-adv-x="640" 
d="M386 67.5q14 -29.5 14 -67.5h-400q0 38 14 67.5t40 45.5q42 27 63 54.5t26.5 47t7.5 40.5v25h-56q-10 17 -10 40l66 40l-5 4q-20 13 -31 34.5t-11 45.5q0 40 28 68t68 28t68 -28t28 -68q0 -24 -11 -45.5t-31 -34.5l-5 -3l66 -41q0 -23 -10 -40h-56v-25q2 -21 7.5 -40.5
t26.5 -47t63 -54.5q26 -16 40 -45.5z" />
    <glyph glyph-name="uni0162" unicode="&#x162;" horiz-adv-x="1200" 
d="M257.5 83q-17.5 -37 -17.5 -83h-240q0 38 14 67.5t40 45.5q42 27 63 54.5t26.5 47t7.5 40.5v25h-56q-10 17 -10 40l66 40l-5 4q-20 13 -31 34.5t-11 45.5q0 40 28 68t68 28t68 -28t28 -68q0 -24 -11 -45.5t-31 -34.5l-5 -3l66 -41q0 -23 -10 -40h-56v-25q3 -28 13 -54.5
t45 -57.5q-32 -23 -49.5 -60zM537.5 83q-17.5 -37 -17.5 -83h-240q0 38 14 67.5t40 45.5q42 27 63 54.5t26.5 47t7.5 40.5v25h-56q-10 17 -10 40l66 40l-5 4q-20 13 -31 34.5t-11 45.5q0 40 28 68t68 28t68 -28t28 -68q0 -24 -11 -45.5t-31 -34.5l-5 -3l66 -41
q0 -23 -10 -40h-56v-25q3 -28 13 -54.5t45 -57.5q-32 -23 -49.5 -60zM946 67.5q14 -29.5 14 -67.5h-400q0 38 14 67.5t40 45.5q42 27 63 54.5t26.5 47t7.5 40.5v25h-56q-10 17 -10 40l66 40l-5 4q-20 13 -31 34.5t-11 45.5q0 40 28 68t68 28t68 -28t28 -68q0 -24 -11 -45.5
t-31 -34.5l-5 -3l66 -41q0 -23 -10 -40h-56v-25q2 -21 7.5 -40.5t26.5 -47t63 -54.5q26 -16 40 -45.5z" />
    <glyph glyph-name="Tcaron" unicode="&#x164;" horiz-adv-x="920" 
d="M257.5 83q-17.5 -37 -17.5 -83h-240q0 38 14 67.5t40 45.5q42 27 63 54.5t26.5 47t7.5 40.5v25h-56q-10 17 -10 40l66 40l-5 4q-20 13 -31 34.5t-11 45.5q0 40 28 68t68 28t68 -28t28 -68q0 -24 -11 -45.5t-31 -34.5l-5 -3l66 -41q0 -23 -10 -40h-56v-25q3 -28 13 -54.5
t45 -57.5q-32 -23 -49.5 -60zM666 67.5q14 -29.5 14 -67.5h-400q0 38 14 67.5t40 45.5q42 27 63 54.5t26.5 47t7.5 40.5v25h-56q-10 17 -10 40l66 40l-5 4q-20 13 -31 34.5t-11 45.5q0 40 28 68t68 28t68 -28t28 -68q0 -24 -11 -45.5t-31 -34.5l-5 -3l66 -41q0 -23 -10 -40
h-56v-25q2 -21 7.5 -40.5t26.5 -47t63 -54.5q26 -16 40 -45.5z" />
    <glyph glyph-name="Tbar" unicode="&#x166;" horiz-adv-x="720" 
d="M70 483l-7 88q27 15 60 15l16 -66h51l10 76q22 4 40 4t40 -4l9 -76h52l16 66q33 0 60 -15l-7 -88q-5 -47 -52 -63h-236q-47 16 -52 63zM384.5 257q10.5 -63 15.5 -97h-320l36 220h248zM448 96.5q29 -23.5 31 -56.5v-40h-479v40q2 33 31 56.5t88 23.5h241q59 0 88 -23.5z
" />
    <glyph glyph-name="Umacron" unicode="&#x16a;" horiz-adv-x="2040" 
d="M257.5 83q-17.5 -37 -17.5 -83h-240q0 38 14 67.5t40 45.5q42 27 63 54.5t26.5 47t7.5 40.5v25h-56q-10 17 -10 40l66 40l-5 4q-20 13 -31 34.5t-11 45.5q0 40 28 68t68 28t68 -28t28 -68q0 -24 -11 -45.5t-31 -34.5l-5 -4l66 -40q0 -23 -10 -40h-56v-25q3 -28 13 -54.5
t45 -57.5q-32 -23 -49.5 -60zM537.5 83q-17.5 -37 -17.5 -83h-240q0 38 14 67.5t40 45.5q42 27 63 54.5t26.5 47t7.5 40.5v25h-56q-10 17 -10 40l66 40l-5 4q-20 13 -31 34.5t-11 45.5q0 40 28 68t68 28t68 -28t28 -68q0 -24 -11 -45.5t-31 -34.5l-5 -4l66 -40
q0 -23 -10 -40h-56v-25q3 -28 13 -54.5t45 -57.5q-32 -23 -49.5 -60zM817.5 83q-17.5 -37 -17.5 -83h-240q0 38 14 67.5t40 45.5q42 27 63 54.5t26.5 47t7.5 40.5v25h-56q-10 17 -10 40l66 40l-5 4q-20 13 -31 34.5t-11 45.5q0 40 28 68t68 28t68 -28t28 -68
q0 -24 -11 -45.5t-31 -34.5l-5 -4l66 -40q0 -23 -10 -40h-56v-25q3 -28 13 -54.5t45 -57.5q-32 -23 -49.5 -60zM1097.5 83q-17.5 -37 -17.5 -83h-240q0 38 14 67.5t40 45.5q42 27 63 54.5t26.5 47t7.5 40.5v25h-56q-10 17 -10 40l66 40l-5 4q-20 13 -31 34.5t-11 45.5
q0 40 28 68t68 28t68 -28t28 -68q0 -24 -11 -45.5t-31 -34.5l-5 -4l66 -40q0 -23 -10 -40h-56v-25q3 -28 13 -54.5t45 -57.5q-32 -23 -49.5 -60zM1377.5 83q-17.5 -37 -17.5 -83h-240q0 38 14 67.5t40 45.5q42 27 63 54.5t26.5 47t7.5 40.5v25h-56q-10 17 -10 40l66 40l-5 4
q-20 13 -31 34.5t-11 45.5q0 40 28 68t68 28t68 -28t28 -68q0 -24 -11 -45.5t-31 -34.5l-5 -4l66 -40q0 -23 -10 -40h-56v-25q3 -28 13 -54.5t45 -57.5q-32 -23 -49.5 -60zM1786 67.5q14 -29.5 14 -67.5h-400q0 38 14 67.5t40 45.5q42 27 63 54.5t26.5 47t7.5 40.5v25h-56
q-10 17 -10 40l66 40l-5 4q-20 13 -31 34.5t-11 45.5q0 40 28 68t68 28t68 -28t28 -68q0 -24 -11 -45.5t-31 -34.5l-5 -4l66 -40q0 -23 -10 -40h-56v-25q2 -21 7.5 -40.5t26.5 -47t63 -54.5q26 -16 40 -45.5z" />
    <glyph glyph-name="Uring" unicode="&#x16e;" horiz-adv-x="2600" 
d="M257.5 83q-17.5 -37 -17.5 -83h-240q0 38 14 67.5t40 45.5q42 27 63 54.5t26.5 47t7.5 40.5v25h-56q-10 17 -10 40l66 40l-5 4q-20 13 -31 34.5t-11 45.5q0 40 28 68t68 28t68 -28t28 -68q0 -24 -11 -45.5t-31 -34.5l-5 -3l66 -41q0 -23 -10 -40h-56v-25q3 -28 13 -54.5
t45 -57.5q-32 -23 -49.5 -60zM537.5 83q-17.5 -37 -17.5 -83h-240q0 38 14 67.5t40 45.5q42 27 63 54.5t26.5 47t7.5 40.5v25h-56q-10 17 -10 40l66 40l-5 4q-20 13 -31 34.5t-11 45.5q0 40 28 68t68 28t68 -28t28 -68q0 -24 -11 -45.5t-31 -34.5l-5 -3l66 -41
q0 -23 -10 -40h-56v-25q3 -28 13 -54.5t45 -57.5q-32 -23 -49.5 -60zM817.5 83q-17.5 -37 -17.5 -83h-240q0 38 14 67.5t40 45.5q42 27 63 54.5t26.5 47t7.5 40.5v25h-56q-10 17 -10 40l66 40l-5 4q-20 13 -31 34.5t-11 45.5q0 40 28 68t68 28t68 -28t28 -68
q0 -24 -11 -45.5t-31 -34.5l-5 -3l66 -41q0 -23 -10 -40h-56v-25q3 -28 13 -54.5t45 -57.5q-32 -23 -49.5 -60zM1097.5 83q-17.5 -37 -17.5 -83h-240q0 38 14 67.5t40 45.5q42 27 63 54.5t26.5 47t7.5 40.5v25h-56q-10 17 -10 40l66 40l-5 4q-20 13 -31 34.5t-11 45.5
q0 40 28 68t68 28t68 -28t28 -68q0 -24 -11 -45.5t-31 -34.5l-5 -3l66 -41q0 -23 -10 -40h-56v-25q3 -28 13 -54.5t45 -57.5q-32 -23 -49.5 -60zM1377.5 83q-17.5 -37 -17.5 -83h-240q0 38 14 67.5t40 45.5q42 27 63 54.5t26.5 47t7.5 40.5v25h-56q-10 17 -10 40l66 40l-5 4
q-20 13 -31 34.5t-11 45.5q0 40 28 68t68 28t68 -28t28 -68q0 -24 -11 -45.5t-31 -34.5l-5 -3l66 -41q0 -23 -10 -40h-56v-25q3 -28 13 -54.5t45 -57.5q-32 -23 -49.5 -60zM1657.5 83q-17.5 -37 -17.5 -83h-240q0 38 14 67.5t40 45.5q42 27 63 54.5t26.5 47t7.5 40.5v25h-56
q-10 17 -10 40l66 40l-5 4q-20 13 -31 34.5t-11 45.5q0 40 28 68t68 28t68 -28t28 -68q0 -24 -11 -45.5t-31 -34.5l-5 -3l66 -41q0 -23 -10 -40h-56v-25q3 -28 13 -54.5t45 -57.5q-32 -23 -49.5 -60zM1937.5 83q-17.5 -37 -17.5 -83h-240q0 38 14 67.5t40 45.5
q42 27 63 54.5t26.5 47t7.5 40.5v25h-56q-10 17 -10 40l66 40l-5 4q-20 13 -31 34.5t-11 45.5q0 40 28 68t68 28t68 -28t28 -68q0 -24 -11 -45.5t-31 -34.5l-5 -3l66 -41q0 -23 -10 -40h-56v-25q3 -28 13 -54.5t45 -57.5q-32 -23 -49.5 -60zM2346 67.5q14 -29.5 14 -67.5
h-400q0 38 14 67.5t40 45.5q42 27 63 54.5t26.5 47t7.5 40.5v25h-56q-10 17 -10 40l66 40l-5 4q-20 13 -31 34.5t-11 45.5q0 40 28 68t68 28t68 -28t28 -68q0 -24 -11 -45.5t-31 -34.5l-5 -3l66 -41q0 -23 -10 -40h-56v-25q2 -21 7.5 -40.5t26.5 -47t63 -54.5
q26 -16 40 -45.5z" />
    <glyph glyph-name="Uhungarumlaut" unicode="&#x170;" horiz-adv-x="1760" 
d="M257.5 83q-17.5 -37 -17.5 -83h-240q0 38 14 67.5t40 45.5q42 27 63 54.5t26.5 47t7.5 40.5v25h-56q-10 17 -10 40l66 40l-5 4q-20 13 -31 34.5t-11 45.5q0 40 28 68t68 28t68 -28t28 -68q0 -24 -11 -45.5t-31 -34.5l-5 -3l66 -41q0 -23 -10 -40h-56v-25q3 -28 13 -54.5
t45 -57.5q-32 -23 -49.5 -60zM537.5 83q-17.5 -37 -17.5 -83h-240q0 38 14 67.5t40 45.5q42 27 63 54.5t26.5 47t7.5 40.5v25h-56q-10 17 -10 40l66 40l-5 4q-20 13 -31 34.5t-11 45.5q0 40 28 68t68 28t68 -28t28 -68q0 -24 -11 -45.5t-31 -34.5l-5 -3l66 -41
q0 -23 -10 -40h-56v-25q3 -28 13 -54.5t45 -57.5q-32 -23 -49.5 -60zM817.5 83q-17.5 -37 -17.5 -83h-240q0 38 14 67.5t40 45.5q42 27 63 54.5t26.5 47t7.5 40.5v25h-56q-10 17 -10 40l66 40l-5 4q-20 13 -31 34.5t-11 45.5q0 40 28 68t68 28t68 -28t28 -68
q0 -24 -11 -45.5t-31 -34.5l-5 -3l66 -41q0 -23 -10 -40h-56v-25q3 -28 13 -54.5t45 -57.5q-32 -23 -49.5 -60zM1097.5 83q-17.5 -37 -17.5 -83h-240q0 38 14 67.5t40 45.5q42 27 63 54.5t26.5 47t7.5 40.5v25h-56q-10 17 -10 40l66 40l-5 4q-20 13 -31 34.5t-11 45.5
q0 40 28 68t68 28t68 -28t28 -68q0 -24 -11 -45.5t-31 -34.5l-5 -3l66 -41q0 -23 -10 -40h-56v-25q3 -28 13 -54.5t45 -57.5q-32 -23 -49.5 -60zM1506 67.5q14 -29.5 14 -67.5h-400q0 38 14 67.5t40 45.5q42 27 63 54.5t26.5 47t7.5 40.5v25h-56q-10 17 -10 40l66 40l-5 4
q-20 13 -31 34.5t-11 45.5q0 40 28 68t68 28t68 -28t28 -68q0 -24 -11 -45.5t-31 -34.5l-5 -3l66 -41q0 -23 -10 -40h-56v-25q2 -21 7.5 -40.5t26.5 -47t63 -54.5q26 -16 40 -45.5z" />
    <glyph glyph-name="Uogonek" unicode="&#x172;" horiz-adv-x="2320" 
d="M257.5 83q-17.5 -37 -17.5 -83h-240q0 38 14 67.5t40 45.5q42 27 63 54.5t26.5 47t7.5 40.5v25h-56q-10 17 -10 40l66 40l-5 4q-20 13 -31 34.5t-11 45.5q0 40 28 68t68 28t68 -28t28 -68q0 -24 -11 -45.5t-31 -34.5l-5 -3l66 -41q0 -23 -10 -40h-56v-25q3 -28 13 -54.5
t45 -57.5q-32 -23 -49.5 -60zM537.5 83q-17.5 -37 -17.5 -83h-240q0 38 14 67.5t40 45.5q42 27 63 54.5t26.5 47t7.5 40.5v25h-56q-10 17 -10 40l66 40l-5 4q-20 13 -31 34.5t-11 45.5q0 40 28 68t68 28t68 -28t28 -68q0 -24 -11 -45.5t-31 -34.5l-5 -3l66 -41
q0 -23 -10 -40h-56v-25q3 -28 13 -54.5t45 -57.5q-32 -23 -49.5 -60zM817.5 83q-17.5 -37 -17.5 -83h-240q0 38 14 67.5t40 45.5q42 27 63 54.5t26.5 47t7.5 40.5v25h-56q-10 17 -10 40l66 40l-5 4q-20 13 -31 34.5t-11 45.5q0 40 28 68t68 28t68 -28t28 -68
q0 -24 -11 -45.5t-31 -34.5l-5 -3l66 -41q0 -23 -10 -40h-56v-25q3 -28 13 -54.5t45 -57.5q-32 -23 -49.5 -60zM1097.5 83q-17.5 -37 -17.5 -83h-240q0 38 14 67.5t40 45.5q42 27 63 54.5t26.5 47t7.5 40.5v25h-56q-10 17 -10 40l66 40l-5 4q-20 13 -31 34.5t-11 45.5
q0 40 28 68t68 28t68 -28t28 -68q0 -24 -11 -45.5t-31 -34.5l-5 -3l66 -41q0 -23 -10 -40h-56v-25q3 -28 13 -54.5t45 -57.5q-32 -23 -49.5 -60zM1377.5 83q-17.5 -37 -17.5 -83h-240q0 38 14 67.5t40 45.5q42 27 63 54.5t26.5 47t7.5 40.5v25h-56q-10 17 -10 40l66 40l-5 4
q-20 13 -31 34.5t-11 45.5q0 40 28 68t68 28t68 -28t28 -68q0 -24 -11 -45.5t-31 -34.5l-5 -3l66 -41q0 -23 -10 -40h-56v-25q3 -28 13 -54.5t45 -57.5q-32 -23 -49.5 -60zM1657.5 83q-17.5 -37 -17.5 -83h-240q0 38 14 67.5t40 45.5q42 27 63 54.5t26.5 47t7.5 40.5v25h-56
q-10 17 -10 40l66 40l-5 4q-20 13 -31 34.5t-11 45.5q0 40 28 68t68 28t68 -28t28 -68q0 -24 -11 -45.5t-31 -34.5l-5 -3l66 -41q0 -23 -10 -40h-56v-25q3 -28 13 -54.5t45 -57.5q-32 -23 -49.5 -60zM2066 67.5q14 -29.5 14 -67.5h-400q0 38 14 67.5t40 45.5q42 27 63 54.5
t26.5 47t7.5 40.5v25h-56q-10 17 -10 40l66 40l-5 4q-20 13 -31 34.5t-11 45.5q0 40 28 68t68 28t68 -28t28 -68q0 -24 -11 -45.5t-31 -34.5l-5 -3l66 -41q0 -23 -10 -40h-56v-25q2 -21 7.5 -40.5t26.5 -47t63 -54.5q26 -16 40 -45.5z" />
    <glyph glyph-name="Zdotaccent" unicode="&#x17b;" horiz-adv-x="1024" 
d="M824 40v-80h-841l1 41v39q0 11 5 27q8 29 29 50q22 21 50 31l13 4l1 12q8 72 86 139q-6 -1 -18 -1q-4 0 -5.5 -0.5t-2.5 -0.5l-8 -11q-12 -19 -20 -27q-12 -12 -32 -12q-14 0 -29.5 4t-17.5 5q-32 10 -50 25q-25 22 -25 56q0 26 16 48l49 69q9 12 13.5 22t8.5 25l10 27
l1 2q13 31 35 50q16 14 20 21l6 26v1q5 20 18 31q17 17 39 17h16l57 -57q65 -8 116 -40l4 -2l4 3q16 14 20 21l6 26v1q5 20 18 31q17 17 39 17h16l57 -57q38 -4 79 -20q49 -21 86 -57q40 -41 62 -95q23 -60 23 -130q0 -42 -28 -138q-2 -9 -4.5 -17t-3.5 -14l-1 -5
q29 -10 48 -30q21 -21 30 -50q4 -13 4 -27z" />
    <glyph glyph-name="Zcaron" unicode="&#x17d;" horiz-adv-x="1016" 
d="M816 40v-80h-857l1 41l1 39q0 14 4 27q7 29 29 50q23 21 51 31q9 4 31 8q-15 20 -27 44q-29 60 -29 121q0 68 31.5 122.5t69.5 91.5l-1 3v5q-3 12 -3 22q0 46 32 81q16 16 35 25q21 9 44 9q46 0 78 -33.5t32 -81.5q0 -12 -3 -26l18 -19q22 -24 35 -43q25 35 50 58l-1 3
l-1 2v3q-2 16 -2 22q0 47 31 81q20 18 36 25q20 9 43 9q46 0 78.5 -33.5t32.5 -81.5q0 -11 -3 -26q-1 -1 -1 -4l17 -18q33 -35 53 -68q35 -57 35 -128q0 -77 -46 -166q14 -3 22 -7q28 -10 51 -31q22 -21 29 -50q4 -13 4 -27z" />
    <glyph glyph-name="circumflex" unicode="&#x2c6;" horiz-adv-x="776" 
d="M383 0h-383v600h600v-244h-13h-12v82h-138v137h-137v-137h-138v137h-137v-137h137v-138h-137v-137h137v-138h138v138h54q-4 -28 -4 -44q0 -46 19 -92q4 -9 14 -27zM434 300h-134v138h137v-136q-1 0 -3 -2zM774 119q0 -39 -15 -72q-12 -31 -40 -59q-27 -27 -59 -41
q-36 -14 -73 -14q-38 0 -72 14q-33 14 -60 40q-26 27 -40 60q-14 36 -14 72q0 37 14 73q13 31 40 59q27 27 60 40q35 15 72 15q39 0 73 -15q31 -12 59 -40q27 -25 40 -59q15 -34 15 -73zM300 300v-137h-138v137h138zM702 100v38q0 10 -8 8h-80v80q0 8 -8 8h-38q-8 0 -8 -8
v-80h-79q-2 0 -6 -2q-2 -4 -2 -6v-38q0 -3 2 -5q2 -3 6 -3h79v-79q0 -4 3 -6q2 -2 5 -2h38q2 0 6 2q2 4 2 6v79h80q8 0 8 8z" />
    <glyph glyph-name="uni0370" unicode="&#x370;" horiz-adv-x="642" 
d="M642 409l-320 -402l-322 402l166 155h310z" />
    <glyph glyph-name="uni0371" unicode="&#x371;" horiz-adv-x="723" 
d="M718 164.5q-5 -5.5 -12 -5.5h-196q-7 0 -12 5.5t-5 13.5v27h7l94 246h-191v-367h56q7 0 12 -5.5t5 -13.5v-66h-229v66q0 8 4.5 13.5t11.5 5.5h56v367h-190l93 -246h7v-27q0 -8 -4.5 -13.5t-11.5 -5.5h-196q-7 0 -12 5.5t-5 13.5v27h7l97 255v16q0 7 5 12.5t12 5.5h198v60
q0 19 12.5 33t29.5 14q18 0 30 -13.5t12 -33.5v-60h198q7 0 12 -5t5 -13v-16l98 -255h7v-27q0 -8 -5 -13.5zM115 423l-84 -218h167zM691 205l-83 218l-83 -218h166z" />
    <glyph glyph-name="uni0372" unicode="&#x372;" 
d="M158 333q-15 25 -15 55v10l65 43q-32 37 -32 85q0 34 17 63t46 46t63 17t63 -17t46 -46t17 -63q0 -48 -32 -85l65 -43v-10q0 -24 -14 -54l-5 -10h-61q0 -37 18 -75t75 -82q34 -25 52 -66t18 -91q0 -9 -9 -20t-33 -20q-59 -22 -200 -22t-200 22q-24 9 -33 20t-9 20
q0 38 11 73v1l1 3q19 51 58 80q57 44 75 82t18 75h-60z" />
    <glyph glyph-name="uni0373" unicode="&#x373;" horiz-adv-x="637" 
d="M316 2h-316v13q0 64 11 129t45 77l130 55q13 7 23 16.5t14 18.5q-28 30 -38 65l-8 5q-15 43 -12 80l6 4q-1 6 -1 20q0 41 10 61q13 24 41.5 39.5t56.5 15.5h13q28 0 57 -16t41 -39q13 -22 10 -81l6 -4q2 -41 -13 -80l-8 -5q-9 -34 -37 -65q4 -10 10 -16l-18 -1
q-24 0 -41 -17t-17 -42v-118q0 -62 35 -115zM634.5 241.5q2.5 -2.5 2.5 -6.5v-118q0 -56 -35 -98.5t-111 -93.5q-3 -2 -7 -2t-7 2q-76 51 -111 93.5t-35 98.5v118q0 4 2.5 6.5t6.5 2.5q40 1 70 13t67 44q3 2 7 2t6 -2q37 -32 67.5 -44t70.5 -13q4 0 6.5 -2.5zM571 107l-1 29
q0 6 -6 6h-60v60q0 6 -6 6l-29 1q-6 -1 -6 -6v-61h-60q-2 0 -4 -2t-2 -4v-29q0 -2 2 -4t4 -2h60v-60q0 -2 2 -4l4 -2h29q2 0 4 2t2 4v60h61q6 0 6 6z" />
    <glyph glyph-name="uni0376" unicode="&#x376;" horiz-adv-x="576" 
d="M288 593q15 0 24 -20l95 -210l130 159q9 10 19 10q9 0 15 -8.5t4 -21.5l-47 -353q-21 -59 -81 -100t-159 -41t-159.5 41t-80.5 100l-48 353q-2 13 4 21.5t15 8.5q10 0 19 -10l130 -159l95 210q10 20 25 20z" />
    <glyph glyph-name="uni0377" unicode="&#x377;" horiz-adv-x="1380" 
d="M280 372q1 -49 -42 -82q-43 -31 -118 -31h-12q-7 0 -12.5 -4.5t-7.5 -10.5l-14 -62q-1 -7 -7 -11.5t-13 -4.5h-41q-7 0 -10.5 4.5t-2.5 11.5l59 253q1 7 7 11.5t13 4.5h86q30 0 49 -4q19 -3 36 -13q13 -8 23 -24q8 -17 7 -38zM1032 372q0 -51 -42 -83q-43 -31 -118 -31
h-12q-7 0 -12.5 -4.5t-7.5 -10.5l-14 -62q-1 -7 -7 -11.5t-13 -4.5h-41q-7 0 -10.5 4.5t-2.5 11.5l59 254q2 6 7 10.5t12 4.5h87q28 0 49 -3q23 -5 36 -14q13 -8 23 -24q7 -14 7 -37zM1378 443.5q4 -4.5 2 -10.5v-1l-56 -251v-1q-2 -6 -7.5 -10.5t-12.5 -4.5h-38v1
q-6 0 -9.5 4.5t-1.5 10.5l2 10l51 230l2 11v1q2 7 7.5 11t12.5 4h37q7 0 11 -4.5zM202 366q0 16 -12 25q-13 8 -36 8h-14q-7 0 -12.5 -5t-6.5 -11l-13 -54v-3q0 -13 13 -13h10q33 0 52 14q19 13 19 39zM954 365q0 16 -12 25q-13 8 -36 8h-14q-7 0 -12.5 -5t-7.5 -11l-12 -54
v-3q0 -13 13 -13h10q33 0 52 14q19 13 19 39zM496 333l-1 -10q0 -5 -2 -11l-30 -131q-2 -6 -7 -10t-11 -5h-6h-32h-1q-13 2 -11 15v1l2 6v1l-16 -11q-8 -5 -17 -9q-14 -6 -20 -7q-3 -1 -26 -3q-26 0 -44 15q-17 17 -17 40q0 25 12 43q12 17 36 28q23 11 53 15q32 5 61 6
q5 1 6 4v6q0 13 -12 19q-15 5 -38 5q-16 0 -39 -5q-10 -3 -15 -5t-9 -3h-3q-7 0 -5 12l5 21q3 16 18 19q4 1 21 4q34 4 50 4q48 0 74 -13q24 -13 24 -41zM1248 332l-1 -10l-1 -10l-31 -131q-1 -6 -6 -10t-11 -5l-0.5 -0.5l-0.5 -0.5h-6h-32v0l-1 1q-6 0 -9 4.5t-2 10.5l2 7
q-4 -2 -16 -10q-8 -6 -17 -9q-9 -5 -20 -7q-9 -3 -26 -3q-26 0 -44 15q-16 15 -16 40q0 24 11 43q14 18 36 28q24 11 53 14q29 4 61 7q4 0 6 4v6q0 14 -12 18q-13 6 -38 6q-11 0 -39 -6q-11 -2 -16 -4t-8 -3l-3 -1q-8 0 -5 13l5 21q3 15 18 19q5 1 9.5 2t11.5 2q34 4 50 4
q51 0 74 -14q24 -12 24 -41zM760 379q0 -7 -8 -19l-165 -279q-4 -7 -11.5 -11.5t-13.5 -4.5h-43q-9 0 -9 8q0 5 2 8l37 64q1 2 1 9q0 9 -1 16q-5 35 -34 198v3q0 5 3.5 8.5t9.5 3.5h37q8 0 14 -4.5t8 -11.5l19 -111q0 -2 2.5 -3t4.5 3l65 112q4 7 11.5 11.5t14.5 4.5h50
q6 0 6 -5zM413 267h-2l-31 -4q-15 -2 -27 -6q-10 -4 -18 -12q-6 -7 -6 -20q0 -12 8 -15q7 -5 24 -5q9 0 22 5l16 8q2 1 4 3.5t2 5.5l9 35q1 5 -1 5zM1165.5 266.5q-1.5 -0.5 -2.5 -0.5l-30 -3q-6 -1 -28 -6q-11 -5 -17 -12q-6 -6 -6 -20v-3q0 -8 8 -13q7 -4 23 -4q11 0 22 4
l16 9q5 3 7 8q6 32 8 35q1 6 -0.5 5.5z" />
    <glyph glyph-name="Alphatonos" unicode="&#x386;" horiz-adv-x="610" 
d="M53 271l384 29l-384 29l-53 271l610 -300l-610 -300z" />
    <glyph glyph-name="Omegatonos" unicode="&#x38f;" horiz-adv-x="640" 
d="M136.5 380.5q-23.5 23.5 -56.5 23.5t-56.5 -23.5t-23.5 -56.5t23.5 -56.5t56.5 -23.5t56.5 23.5t23.5 56.5t-23.5 56.5zM376.5 380.5q-23.5 23.5 -56.5 23.5t-56.5 -23.5t-23.5 -56.5t23.5 -56.5t56.5 -23.5t56.5 23.5t23.5 56.5t-23.5 56.5zM616.5 380.5
q-23.5 23.5 -56.5 23.5t-56.5 -23.5t-23.5 -56.5t23.5 -56.5t56.5 -23.5t56.5 23.5t23.5 56.5t-23.5 56.5z" />
    <glyph glyph-name="Gamma" unicode="&#x393;" horiz-adv-x="826" 
d="M719 575v-390l-167 -167h-125l-84 -84h-84v84h-153v446l42 111h571zM664 519h-460v-404h125v-83l84 83h153l98 98v306zM413 408v-167h-56v167h56zM566 408v-167h-56v167h56z" />
    <glyph glyph-name="uni0394" unicode="&#x394;" 
d="M600 63q0 -17 -23 -40t-40 -23q-12 0 -24 12l-105 105q-67 -43 -145 -43q-71 0 -131.5 35.5t-96 96t-35.5 131.5t35.5 131.5t96 96t131.5 35.5t131.5 -35.5t96 -96t35.5 -131.5q0 -79 -44 -145l106 -106q12 -12 12 -23zM361 167.5q45 26.5 71.5 71.5t26.5 98t-26.5 98
t-71.5 71.5t-98 26.5t-98 -26.5t-71.5 -71.5t-26.5 -98t26.5 -98t71.5 -71.5t98 -26.5t98 26.5zM125.5 410.5q21.5 36.5 58 58t79.5 21.5v-159h-159q0 43 21.5 79.5zM422 331q0 -43 -21.5 -79.5t-58 -58t-79.5 -21.5v159h159z" />
    <glyph glyph-name="Theta" unicode="&#x398;" horiz-adv-x="700" 
d="M117 407v179h448v-240q-6 9 -19 12v107h-102v103h-103v-103h-103v103h-103v-103h103v-58h-121zM341 465h103v-103h-103v103zM692 452q8 -4 8 -19q0 -7 -1 -11l-68 -392q-1 -6 -3 -11t-6 -5v0h-510q-46 -2 -54 29l-58 301q0 12 9.5 20.5t22.5 8.5h207q11 0 17 -6t14 -19
q9 -15 17 -22.5t23 -7.5h197q21 0 34.5 -5t16.5 -19l41 -218l58 330v3q0 8 -11 8h-53v39h72q19 0 27 -4z" />
    <glyph glyph-name="Xi" unicode="&#x39e;" 
d="M0 480q0 26 10 46q9 23 26 38q18 18 38 26q20 10 46 10h360q26 0 47 -10q21 -9 38 -26q16 -16 25 -38q10 -20 10 -46v-360q0 -26 -10 -47q-9 -20 -25 -38q-15 -15 -38 -25q-21 -10 -47 -10h-316l76 75h240q17 0 32 13q13 15 13 32v360q0 17 -13 32q-15 13 -32 13h-360
q-16 0 -31 -13q-14 -14 -14 -32v-240l-75 -75v315zM69 6q-6 -6 -16 -6q-8 0 -16 6l-31 32q-6 6 -6 15q0 10 6 17l271 271h-105q-10 0 -16 7q-6 6 -6 16v33v3q0 9 6 13q9 7 16 7h225q7 0 16 -7q6 -7 6 -16v-225q0 -10 -6 -16q-7 -6 -16 -6h-33q-10 0 -17 7q-6 6 -6 15v105z
" />
    <glyph glyph-name="Pi" unicode="&#x3a0;" horiz-adv-x="906" 
d="M753 604v-290h-334v242zM153 517l243 35v-238h-243v203zM153 290h243v-242l-243 36v206zM419 290h334v-294l-334 49v245z" />
    <glyph glyph-name="Sigma" unicode="&#x3a3;" horiz-adv-x="660" 
d="M494 591v69q0 23 15 36q15 15 35 14h66q23 -2 35 -15q13 -13 15 -35v-69h-166zM429 583v-33q0 -17 -17 -17h-345v-466h345q17 0 17 -17v-33q0 -17 -17 -17h-362q-21 0 -35 15q-15 14 -15 35v500q0 20 15 35q13 15 35 15h362q17 0 17 -17zM660 54l-83 -164l-83 163v489
h166v-488zM429 449v-33q0 -17 -17 -17h-263q-7 0 -12 5q-4 4 -4 12v33q0 7 4 11q4 5 12 5h263q17 0 17 -16zM429 316v-33q0 -17 -17 -17h-263q-7 0 -12 5q-4 4 -4 12v33q0 7 4 12q4 4 12 4h263q17 0 17 -16zM429 183v-33q0 -17 -17 -17h-263q-7 0 -12 5q-4 4 -4 12v33
q0 7 4 12q5 5 12 5h263q17 0 17 -17z" />
    <glyph glyph-name="Upsilon" unicode="&#x3a5;" horiz-adv-x="777" 
d="M599 539q0 -33 -9 -67q-15 -56 -56 -85q-34 -24 -82 -24q-19 -45 -60.5 -73t-91.5 -28q-51 0 -92 28t-61 73q-47 0 -81 24q-30 21 -45 55q-21 45 -21 97v6l1 22h133v33h332v-33h132l1 -22v-6zM135 410q-1 6 -1 19v92h-87q2 -20 7 -36q11 -41 39 -60q15 -12 42 -15z
M552 521h-86v-92q0 -13 -1 -19q25 3 42 15q18 12 30 37q13 26 15 59zM769 119q0 -39 -15 -72q-15 -34 -40 -59q-26 -26 -59 -41q-36 -14 -73 -14q-38 0 -72 14q-33 14 -60 40q-25 25 -40 60q-13 31 -15 72q2 42 15 73q15 34 40 59q27 27 60 40q33 15 72 15t73 -15
q31 -12 59 -40q24 -23 40 -59q15 -34 15 -73zM697 100v38q0 10 -8 8h-80v80q0 8 -8 8h-38q-8 0 -8 -8v-80h-79q-2 0 -6 -2q-2 -4 -2 -6v-38q0 -4 2 -5q2 -3 5 -3h80v-79q0 -4 2 -6q4 -2 6 -2h38q2 0 6 2q2 4 2 6v79h80q8 0 8 8zM378 0h-223v55h6q38 0 65 26.5t28 64.5v77
q23 -5 46 -5q22 0 45 5v-104v-2q0 -46 19 -90q4 -9 14 -27z" />
    <glyph glyph-name="Phi" unicode="&#x3a6;" horiz-adv-x="717" 
d="M51 460l-51 -52v142q0 20 15 35q13 15 35 15h479l-7 -6l-62 -62h-393v-60q-10 -6 -16 -12zM293 117h-3h-31q-13 0 -26 6q-15 6 -22 14l-186 186q-8 10 -8 20q0 12 8 20l62 62q8 8 20 8q13 -2 19 -8l129 -129q7 -8 20 -8q12 0 20 8l263 263q8 8 20 8q10 0 20 -8l61 -62
q8 -7 8 -20q0 -11 -8 -19l-126 -126h-4q-50 0 -92 -19q-43 -18 -76 -51q-30 -30 -51 -75q-14 -35 -17 -70zM716 94q0 -39 -15 -72q-13 -33 -40 -60q-24 -24 -59 -40q-31 -13 -73 -15q-39 0 -72 15q-35 15 -60 40t-40 60q-14 31 -14 72t14 73q16 35 40 59q25 25 60 40t72 15
q39 0 73 -15t59 -40q27 -27 40 -59q15 -34 15 -73zM311 0h-261q-5 0 -7 1h-5l-2 1q-11 3 -21 13q-3 2 -7 8q0 1 -2 3l-1 2l-1 3l-3 7q-1 4 -1 12v228l67 -68v-143h226q5 -36 17 -65zM644 75v38q0 8 -8 8h-80v80q0 8 -8 8h-38q-8 0 -8 -8v-80h-79q-2 0 -6 -2q-2 -4 -2 -6v-38
q0 -4 2 -6t5 -2h80v-80q0 -3 2 -5t6 -2h38q2 0 6 2q2 4 2 6v79h80q8 0 8 8z" />
    <glyph glyph-name="Psi" unicode="&#x3a8;" horiz-adv-x="668" 
d="M51 460l-51 -52v142q0 20 15 35q13 15 35 15h479l-7 -6l-62 -62h-393v-60q-10 -6 -16 -12zM667 477q0 -11 -8 -19l-321 -321q-6 -7 -22 -14q-13 -6 -26 -6h-31q-13 0 -26 6q-15 6 -22 14l-186 186q-8 10 -8 20q0 12 8 20l62 62q8 8 20 8q13 -2 19 -8l129 -129q7 -8 20 -8
q12 0 20 8l263 263q8 8 20 8q10 0 20 -8l61 -62q8 -7 8 -20zM600 328v-278q0 -20 -15 -35t-35 -15h-500q-5 0 -7 1h-5l-2 1q-11 3 -21 13q-3 2 -7 8q0 1 -2 3l-1 2l-1 3l-3 7q-1 4 -1 12v228l67 -68v-143h466v194z" />
    <glyph glyph-name="uni03A9" unicode="&#x3a9;" 
d="M600 63q0 -17 -23 -40t-40 -23q-12 0 -24 12l-105 105q-67 -43 -145 -43q-71 0 -131.5 35.5t-96 96t-35.5 131.5t35.5 131.5t96 96t131.5 35.5t131.5 -35.5t96 -96t35.5 -131.5q0 -79 -44 -145l106 -106q12 -12 12 -23zM361 167.5q45 26.5 71.5 71.5t26.5 98t-26.5 98
t-71.5 71.5t-98 26.5t-98 -26.5t-71.5 -71.5t-26.5 -98t26.5 -98t71.5 -71.5t98 -26.5t98 26.5zM342.5 468.5q36.5 -21.5 58 -58t21.5 -79.5h-159v159q43 0 79.5 -21.5zM263 172q-43 0 -79.5 21.5t-58 58t-21.5 79.5h159v-159z" />
    <glyph glyph-name="alphatonos" unicode="&#x3ac;" 
d="M600 600v-120h-120v120h120zM240 360h120v-120h-120v120zM480 360h120v-120h-120v120zM0 120h120v-120h-120v120zM240 120h120v-120h-120v120zM480 120h120v-120h-120v120z" />
    <glyph glyph-name="epsilontonos" unicode="&#x3ad;" 
d="M5 424q-4 10 -4 16q0 13 12 25l261 260q13 11 27 11q15 0 26 -11l263 -260q11 -11 11 -25q0 -8 -3 -16q-11 -23 -34 -23h-525q-25 0 -34 23zM597 178q3 -7 3 -16q0 -14 -11 -25l-262 -262q-12 -10 -24 -10q-17 0 -30 10l-261 262q-12 12 -12 25q0 6 4 16q9 23 35 23h524
q23 0 34 -23z" />
    <glyph glyph-name="etatonos" unicode="&#x3ae;" horiz-adv-x="630" 
d="M329.5 595.5q6.5 -4.5 9.5 -11.5l70 -183l196 -11q8 0 14.5 -4.5t8.5 -12.5q1 -3 1 -8q0 -12 -9 -20l-153 -124l51 -189q1 -2 1 -7q0 -12 -11 -20q-7 -5 -14 -5q-9 0 -14 4l-165 107l-165 -107q-5 -4 -14 -4q-7 0 -14 5q-7 4 -9.5 11.5t-0.5 15.5l51 189l-153 124
q-9 8 -9 20q0 11 7 18t17 7l196 11l71 183q2 7 8.5 11.5t14.5 4.5t14.5 -4.5z" />
    <glyph glyph-name="iotatonos" unicode="&#x3af;" horiz-adv-x="200" 
d="M157 486.5q13 -14.5 13 -35.5v-300q0 -21 -13 -35.5t-37 -14.5h-40q-24 0 -37 14.5t-13 35.5v300q0 21 13 35.5t37 14.5h40q24 0 37 -14.5z" />
    <glyph glyph-name="alpha" unicode="&#x3b1;" horiz-adv-x="703" 
d="M365 274l-262 -263q-13 -11 -27 -11q-15 0 -26 11l-39 40q-11 11 -11 26t11 26l198 195l-198 199q-11 10 -11 26t11 27l39 39q11 11 26 11q14 0 27 -11l262 -263q11 -13 11 -26q0 -15 -11 -26zM703 300q0 -16 -11 -26l-262 -263q-11 -11 -26 -11q-14 0 -27 11l-39 40
q-11 13 -11 26t11 26l198 195l-198 199q-11 11 -11 26q0 14 11 27l39 39q13 11 27 11q15 0 26 -11l262 -263q11 -11 11 -26z" />
    <glyph glyph-name="beta" unicode="&#x3b2;" 
d="M595 552q5 -5 5 -12v-232q0 -75 -32.5 -137.5t-94 -118.5t-159.5 -122q-5 -4 -14 -4t-14 4q-98 66 -159.5 122t-94 118.5t-32.5 137.5v232q0 7 5 12t12 5q79 2 138.5 26t131.5 86q5 5 13 5q9 0 13 -5q72 -62 131.5 -86t138.5 -26q7 0 12 -5zM447 368q0 8 -5 12l-21 21
q-5 5 -12 5q-5 0 -12 -5l-118 -119l-54 53q-4 5 -12 5q-7 0 -12 -5l-21 -22q-4 -4 -4 -11q0 -8 4 -12l87 -85l3 -3q3 -2 9 -2q8 0 12 4l151 152q5 4 5 12z" />
    <glyph glyph-name="epsilon" unicode="&#x3b5;" 
d="M355 460h-110v31h36v74l-24 -6l-7 30l41 12h28v-110h36v-31zM37 324v29l52 40q18 14 18 25q0 7 -4 11t-11 4t-13 -4t-15 -14l-26 21q12 16 25 23t32 7q23 0 37 -12.5t14 -31.5v-1q0 -15 -7.5 -25.5t-24.5 -23.5l-24 -16h57v-32h-110zM208 420h184v-421h-184v421zM522 281
q5 4 5 10v1q0 14 -23 14h-16l-6 20l32 29h-53v32h101v-28l-33 -29q36 -7 36 -39q0 -21 -15 -34t-39 -13q-37 0 -60 25l25 24q16 -16 33 -16q8 0 13 4zM0 284h184v-285h-184v285zM600 206v-207h-184v207h184z" />
    <glyph glyph-name="zeta" unicode="&#x3b6;" horiz-adv-x="810" 
d="M394 58h-354q-16 0 -28 12t-12 29v460q0 17 12 29t28 12h570q16 0 28 -12t12 -29v-204q-18 2 -27 2t-27 -2v191h-542v-433h332q2 -32 8 -55zM121 487q19 19 45 19q27 0 45.5 -19t18.5 -46q0 -26 -18.5 -45t-45.5 -19q-26 0 -45 19t-19 45q0 27 19 46zM454 288
q-33 -33 -51 -76q-14 -32 -18 -67h-3h-147h-20h-106q-4 0 -5.5 2.5t0.5 6.5l136 198q2 4 5.5 4t5.5 -4l52 -75q2 -4 5.5 -4t5.5 4l99 145q2 3 5.5 3t5.5 -3l69 -102q-20 -13 -39 -32zM810 119q0 -39 -15 -72q-12 -31 -40 -59q-26 -26 -59 -41q-36 -14 -73 -14q-38 0 -72 14
q-33 14 -60 40q-25 25 -40 60q-14 32 -14 72q0 41 14 73q15 34 40 59q27 27 60 40q35 15 72 15q38 0 73 -15q31 -12 59 -40q24 -23 40 -59q15 -34 15 -73zM738 100v38q0 10 -8 8h-80v80q0 8 -8 8h-38q-8 0 -8 -8v-80h-79q-2 0 -6 -2q-2 -4 -2 -6v-38q0 -4 2 -5q2 -3 5 -3h80
v-79q0 -4 2 -6q4 -2 6 -2h38q2 0 6 2q2 4 2 6v79h80q8 0 8 8z" />
    <glyph glyph-name="eta" unicode="&#x3b7;" horiz-adv-x="800" 
d="M800 622v-505q0 -20 -15 -35q-13 -15 -35 -15h-132q-19 37 -49 59l-10 8h174v470h-666v-470h174l-10 -8q-30 -22 -48 -59h-133q-20 0 -35 15t-15 35v505q0 20 15 35t35 15h700q21 0 35 -15q15 -15 15 -35zM586 41q15 -33 15 -75q0 -5 -12 -13.5t-57 -16.5t-132 -8
t-131.5 8t-56.5 16.5t-12 13.5q0 36 10 63v1q14 41 46 64q88 68 90 148v23h-61q-11 22 -11 41l70 46q-18 14 -29 34.5t-11 43.5q0 40 28 68.5t68 28.5q17 0 36 -7q27 -11 44 -35.5t17 -54.5q0 -23 -10.5 -43.5t-29.5 -34.5l69 -46q0 -21 -10 -41h-62v-32t22.5 -66t68.5 -73
q26 -20 41 -53z" />
    <glyph glyph-name="kappa" unicode="&#x3ba;" horiz-adv-x="777" 
d="M208.5 290q-41.5 28 -61.5 73q-47 0 -81 24q-30 21 -45 55q-12 26 -15.5 48.5t-5.5 48.5l1 6l1 22h132v33h332v-33h132l1 -22l1 -6q0 -34 -10 -67q-15 -56 -56 -85q-34 -24 -81 -24q-20 -45 -61.5 -73t-91.5 -28t-91.5 28zM135 410q-1 6 -1 19v92h-87q2 -20 7 -36
q13 -42 39 -60q17 -12 42 -15zM465 410q27 3 42 15q17 11 31 37q11 23 15 59h-87v-92q0 -13 -1 -19zM717 -19q-24 -24 -61 -40q-34 -15 -73 -15t-75 15q-35 15 -60 40q-27 28 -41 61q-15 35 -15 74q0 40 15 74t41 60q23 25 61 41q35 15 73 15q39 0 74 -15q37 -15 61 -41
q26 -26 41 -60t15 -74q0 -39 -15 -74q-14 -33 -41 -61zM364 27q4 -9 14 -27h-223v55h6q38 0 65 26.5t28 64.5v77q25 -5 46 -5q22 0 45 5v-104v-2q2 -49 19 -90zM699 91v49q0 9 -8 8h-217q-2 0 -6 -2q-2 -4 -2 -6v-49q0 -4 2 -6t6 -2h217q8 0 8 8z" />
    <glyph glyph-name="lambda" unicode="&#x3bb;" horiz-adv-x="810" 
d="M394 58h-354q-16 0 -28 12t-12 29v460q0 17 12 29t28 12h570q16 0 28 -12t12 -29v-204q-18 2 -27 2t-27 -2v58q-10 -10 -21 -18l-74 -56q-29 -21 -75 -58q-14 -11 -46 -33q-25 -15 -56 -15q-28 0 -54 15q-32 22 -46 33l-17 13q-29 24 -57 45l-76 56q-16 13 -20 18v-300
h332q2 -32 8 -55zM59 500q3 -8 13 -24q10 -14 16 -21q12 -12 18 -16l70 -53l71 -54l17 -13l20 -15q11 -8 21 -12q11 -6 19 -6h2q9 0 19 6q11 5 21 12l20 15l17 13l70 54l50 37l21 16q6 4 18 16l16 21q5 8 13 24q5 13 5 23v23h-542v-23q0 -10 5 -23zM810 119q0 -39 -15 -72
q-12 -31 -40 -59q-26 -26 -59 -41q-36 -14 -73 -14q-38 0 -72 14q-33 14 -60 40q-25 25 -40 60q-14 32 -14 72q0 41 14 73q15 34 40 59q27 27 60 40q35 15 72 15q38 0 73 -15q31 -12 59 -40q24 -23 40 -59q15 -34 15 -73zM651 243q-2 2 -5 2h-46q-1 0 -5 -2l-2 -5l4 -173
q0 -7 7 -7h38q3 0 5 2t2 5l4 173zM649 40q-1 2 -5 2h-42q-3 0 -5 -2t-2 -5v-40q0 -3 2 -5q2 -3 5 -3h42q3 0 5 2q3 3 3 6v40q0 4 -3 5z" />
    <glyph glyph-name="uni03BC" unicode="&#x3bc;" 
d="M195 550q17 0 17 -29v-96q100 0 173 -27q72 -25 121 -71q46 -43 71 -105q23 -61 23 -128q0 -11 -2 -33q-1 -11 -12 -11h-1q-11 0 -12 11q-6 45 -32 88q-26 42 -70 71q-43 30 -109 48q-63 17 -150 19v-108q0 -23 -12 -28q-2 -1 -6 -1q-11 0 -23 13l-160 160q-11 13 -11 27
q0 16 11 27l160 160q13 13 24 13z" />
    <glyph glyph-name="nu" unicode="&#x3bd;" 
d="M450.5 559.5q68.5 -40.5 109 -109t40.5 -150.5t-40.5 -150.5t-109 -109t-150.5 -40.5t-150.5 40.5t-109 109t-40.5 150.5t40.5 150.5t109 109t150.5 40.5t150.5 -40.5zM370.5 229.5q29.5 29.5 29.5 70.5t-29.5 70.5t-70.5 29.5t-70.5 -29.5t-29.5 -70.5t29.5 -70.5
t70.5 -29.5t70.5 29.5z" />
    <glyph glyph-name="xi" unicode="&#x3be;" horiz-adv-x="768" 
d="M302 221h-250v379h465v-224q-12 0 -32 -2v193h-401v-313h232q-7 -14 -8 -17zM768 -60q0 -4 -5 -11q-5 -8 -12 -14q-6 -7 -14 -12q-7 -5 -11 -5q-7 0 -12 5l-100 100q-22 -15 -47 -22q-26 -8 -50 -8q-35 0 -68 14q-31 13 -56 38q-24 24 -38 56q-14 33 -14 68t14 68
q12 30 38 56t56 38q33 14 68 14t68 -14q31 -13 56 -38q26 -26 38 -56q14 -33 14 -68q0 -24 -8 -50q-7 -24 -21 -47l99 -99q5 -7 5 -13zM622 149q0 24 -8 41q-9 20 -23 34q-15 15 -33 22q-19 9 -41 9q-21 0 -41 -9q-18 -7 -33 -22q-16 -16 -23 -34q-9 -19 -9 -41q0 -21 9 -41
q7 -19 23 -33q12 -13 33 -23q17 -8 41 -8t41 8q21 10 33 23q13 12 23 33q8 17 8 41zM346 0h-345v37l51 159h243q-5 -25 -5 -47v-5v-2v-2q1 -12 5 -39h-80l-6 -40h99l7 -15q11 -19 13 -22z" />
    <glyph glyph-name="omicron" unicode="&#x3bf;" horiz-adv-x="530" 
d="M507.5 542.5q22.5 -22.5 22.5 -54.5v-376q0 -32 -22 -54q-23 -23 -55 -23h-375q-32 0 -55 22.5t-23 54.5v376q0 31 23 54t55 23h375q32 0 54.5 -22.5zM449 387q0 5 -4 8l-41 41q-3 4 -8 4q-4 0 -8 -4l-166 -166l-79 79q-3 3 -8 3q-4 0 -9 -3l-40 -41q-4 -4 -4 -8t4 -8
l128 -128q4 -4 8 -4t8 4l215 215q4 4 4 8z" />
    <glyph glyph-name="pi" unicode="&#x3c0;" 
d="M0 574v-232q0 -10 6 -13q1 -1 3 -1q4 0 10 6l70 71l105 -105q7 -7 18 -7q10 0 17 7l71 71q8 8 8 18q0 9 -8 17l-104 105l70 71q6 6 6 9q0 5 -3.5 6.5t-10.5 2.5h-232q-10 0 -18 -8t-8 -18zM292 211q0 -9 8 -17l104 -105l-70 -71q-6 -6 -6 -9q0 -5 3.5 -6.5t10.5 -2.5h232
q10 0 18 8t8 18v232q0 10 -6 13q-1 1 -3 1q-4 0 -10 -6l-70 -71l-105 105q-7 7 -18 7q-10 0 -17 -7l-71 -71q-8 -8 -8 -18z" />
    <glyph glyph-name="rho" unicode="&#x3c1;" 
d="M269 600v-174h-269v174h269zM437 387v-174h-437v174h437zM600 0h-600v174h600v-174z" />
    <glyph glyph-name="uni03C2" unicode="&#x3c2;" 
d="M450.5 584.5q68.5 -40.5 109 -109.5t40.5 -150q0 -82 -40.5 -150.5t-109 -109t-150.5 -40.5t-150.5 40.5t-109 109t-40.5 150.5q0 81 40.5 150t109 109.5t150.5 40.5t150.5 -40.5zM422 113q56 33 89 89t33 123q0 66 -33 122t-89 89t-122 33t-122 -33t-89 -89t-33 -122
q0 -67 33 -123t89 -89t122 -33t122 33zM193 365.5q-11 14.5 -11 34.5q0 18 10 28.5t27 10.5t27 -10.5t10 -28.5q0 -20 -10.5 -34.5t-26.5 -14.5q-15 0 -26 14.5zM354.5 365.5q-10.5 14.5 -10.5 34.5q0 18 10 28.5t27 10.5t27 -10.5t10 -28.5q0 -20 -11 -34.5t-26 -14.5
q-16 0 -26.5 14.5zM464 247q0 -6 -3 -9q-28 -39 -70 -60q-44 -22 -91 -22q-46 0 -92 22q-41 21 -69 60q-4 4 -4 9q0 4 3 8l13 16q4 4 5 6q3 3 7 3q6 0 11 -5q21 -33 54.5 -51t71.5 -18t71.5 18t54.5 51q1 2 3.5 3.5t5.5 1.5h2q4 0 7 -3q1 -2 5 -6q12 -15 13 -16q2 -3 2 -8z
" />
    <glyph glyph-name="sigma" unicode="&#x3c3;" 
d="M600 99q0 -17 -12 -29t-28 -12h-520q-16 0 -28 12t-12 29v309l109 200h382l109 -200v-309zM547 408l-78 150h-338l-78 -150h494zM450 496h-300v37h300v-37zM113 471h374v-38h-374v38zM390.5 285.5q9.5 9.5 9.5 22.5q0 14 -9 23t-23 9h-136q-13 0 -22.5 -9t-9.5 -23
q0 -13 9.5 -22.5t22.5 -9.5h136q13 0 22.5 9.5z" />
    <glyph glyph-name="tau" unicode="&#x3c4;" horiz-adv-x="606" 
d="M605 78q0 -22 -15 -37q-16 -16 -37 -16t-37 16q-8 7 -12.5 17.5t-3.5 21.5l-82 67l-52 -52q-5 -4 -31 18q-6 6 -6 15q0 6 5 13q11 14 35 42l-66 66l-66 -66q13 -14 35 -42q4 -5 4 -13q0 -9 -6 -15q-8 -8 -17.5 -14t-13.5 -3l-52 52l-82 -68q2 -24 -15 -39
q-16 -16 -37 -16q-20 0 -38 16q-15 15 -15 37t15 37q17 17 40 15v1l67 81l-52 52q-3 4 3.5 14t14.5 17q6 6 15 6q8 0 13 -4l42 -35l66 66l-155 154q-21 22 -30.5 54t-8.5 64q32 1 64.5 -8t53.5 -31l155 -154l154 154q21 22 53.5 31t64.5 8q1 -32 -8.5 -64t-30.5 -54
l-128 -128l-99 47l73 -73l65 -66q28 24 42 35q7 5 13 5q8 0 15 -7q8 -8 14.5 -17.5t3.5 -13.5l-52 -52l67 -81v-1q23 2 40 -15q15 -15 15 -37z" />
    <glyph glyph-name="upsilon" unicode="&#x3c5;" 
d="M600 600v-600h-174v600h174zM0 437h174v-437h-174v437zM213 269h174v-269h-174v269z" />
    <glyph glyph-name="chi" unicode="&#x3c7;" 
d="M600 300q0 -62 -23 -117q-25 -56 -64 -95q-43 -41 -96 -65q-55 -23 -117 -23q-60 0 -117 23q-54 24 -95 65q-42 42 -64 95q-24 54 -24 117t24 117q22 53 64 95q41 41 95 65q57 23 117 23q62 0 117 -23q42 -19 71 -43l-64 -64q-21 15 -42 23q-39 17 -82 17q-42 0 -82 -17
q-38 -17 -66 -45t-45 -66q-17 -39 -17 -82t17 -82q16 -37 45 -66q28 -28 66 -45q40 -17 82 -17q43 0 82 17t67 45t45 66q16 36 16 82v8l78 78q12 -40 12 -86zM513 516l-199 -198q-4 -6 -14 -6q-8 0 -14 6l-60 59q-5 6 -13 6h-1q-8 0 -14 -6l-53 -53q-6 -6 -6 -14t6 -14
l115 -116q10 -7 16 -9q10 -5 18 -5h12q6 0 18 4q11 5 16 10l254 255q6 5 6 14q0 8 -6 14l-53 53q-6 6 -14 6t-14 -6z" />
    <glyph glyph-name="iotadieresis" unicode="&#x3ca;" horiz-adv-x="570" 
d="M150 552q-7 0 -16 7l-24 24q-6 6 -6 15q0 10 6 17l160 159q6 6 15 6q10 0 16 -6l159 -159q7 -7 7 -17q0 -9 -7 -15l-24 -24q-7 -7 -16 -7q-8 0 -15 7l-74 74l-1 -383q0 -10 -7 -16q-6 -7 -16 -7h-44q-9 0 -15 7q-7 7 -7 16l-1 383l-74 -74q-9 -7 -16 -7zM561.5 -77.5
q-8.5 -8.5 -21.5 -8.5h-510q-13 0 -21.5 8.5t-8.5 21.5v510q0 13 8.5 21.5t21.5 8.5h155v-75h-110v-420h420v420h-110v75h155q13 0 21.5 -8.5t8.5 -21.5v-510q0 -13 -8.5 -21.5z" />
    <glyph glyph-name="omicrontonos" unicode="&#x3cc;" horiz-adv-x="530" 
d="M507.5 57.5q-22.5 -22.5 -55.5 -22.5h-374q-16 0 -30.5 6.5t-23.5 17.5q-11 9 -17.5 23.5t-6.5 30.5v374q0 33 22.5 55.5t55.5 22.5h374q16 0 30.5 -6.5t23.5 -17.5q11 -9 17.5 -23.5t6.5 -30.5v-374q0 -33 -22.5 -55.5zM265 141q8 0 14 6l139 138q7 9 7 15q0 8 -7 15
l-20 19q-4 6 -13 6t-15 -6l-71 -69v174q0 8 -6 14q-3 6 -13 6h-31q-9 0 -12 -6q-6 -6 -6 -14v-174l-71 69q-6 6 -14 6q-10 0 -13 -6l-21 -19q-7 -7 -7 -15q0 -6 7 -15l138 -138q6 -6 15 -6z" />
    <glyph glyph-name="upsilontonos" unicode="&#x3cd;" horiz-adv-x="530" 
d="M22.5 542.5q22.5 22.5 56.5 22.5h372q17 0 31.5 -6.5t23.5 -17.5q11 -9 17.5 -23.5t6.5 -31.5v-372q0 -34 -22.5 -56.5t-56.5 -22.5h-372q-34 0 -55 24q-24 21 -24 55v372q0 34 22.5 56.5zM112 285l138 -138q9 -7 15 -7t15 7l19 21q6 3 6 12t-6 15l-69 71h174q9 0 15 6
q5 3 5 12v32q0 9 -5 12q-6 6 -15 6h-174l69 71q6 6 6 15t-6 13l-19 21q-10 6 -15 6t-15 -6l-138 -139q-6 -7 -6 -15q0 -9 6 -15z" />
    <glyph glyph-name="omegatonos" unicode="&#x3ce;" horiz-adv-x="530" 
d="M507.5 542.5q22.5 -22.5 22.5 -55.5v-374q0 -16 -6.5 -30.5t-17.5 -23.5q-9 -11 -23.5 -17.5t-30.5 -6.5h-374q-33 0 -55.5 22.5t-22.5 55.5v374q0 16 6.5 30.5t17.5 23.5q9 11 23.5 17.5t30.5 6.5h374q33 0 55.5 -22.5zM424 300q0 8 -6 14l-138 139q-9 7 -15 7
q-8 0 -15 -7l-19 -20q-5 -4 -5 -13q0 -10 5 -15l69 -71h-174q-8 0 -14 -6q-6 -3 -6 -13v-31q0 -9 6 -12q6 -6 14 -6h174l-69 -71q-5 -5 -5 -14q0 -10 5 -13l19 -21q7 -7 15 -7q6 0 15 7l138 138q6 6 6 15z" />
    <glyph glyph-name="uni03D8" unicode="&#x3d8;" 
d="M251 560l1 -190q-2 -10 -7 -15q-6 -6 -14 -6h-191q-8 0 -10 5v2q0 4 4 8l58 57l-86 86q-6 6 -6 14q0 9 6 15l58 58q6 6 15 6q8 0 14 -6l85 -86l58 58q7 7 11 4q4 -1 4 -10zM355 355q-6 6 -6 14v191q0 8 5 10h2q4 0 8 -4l57 -58l86 86q6 6 14 6q9 0 15 -6l58 -58
q6 -6 6 -15q0 -8 -6 -14l-86 -85l58 -58q7 -7 4 -11q-1 -4 -10 -4l-190 -1q-10 2 -15 7zM245 245q6 -6 6 -14v-191q0 -8 -5 -10h-2q-4 0 -8 4l-57 58l-86 -86q-6 -6 -14 -6q-9 0 -15 6l-58 58q-6 6 -6 15q0 8 6 14l86 85l-58 58q-7 7 -4 11q1 4 10 4l190 1q10 -2 15 -7z
M600 79q0 -9 -6 -15l-58 -58q-6 -6 -15 -6q-8 0 -14 6l-85 86l-58 -58q-7 -7 -11 -4q-4 1 -4 10l-1 190q2 10 7 15q6 6 14 6h191q8 0 10 -5v-2q0 -4 -4 -8l-58 -57l86 -86q6 -6 6 -14z" />
    <glyph glyph-name="uni03D9" unicode="&#x3d9;" 
d="M521 256q0 -69 -34.5 -128t-93.5 -93.5t-128 -34.5q-70 0 -128.5 34.5t-93 93.5t-34.5 128q0 63 29 118t79.5 91t111.5 44v24h-43v67h157v-67h-43v-24q43 -6 76 -23l-45 -44q-34 12 -66 12q-54 0 -99.5 -26.5t-72 -72t-26.5 -99.5t26.5 -99.5t72 -72t99.5 -26.5t99 26.5
t71.5 72t26.5 99.5q0 34 -11 65l45 45q25 -53 25 -110zM591 522q0 -14 -9 -22l-31 -30l-71 72l30 30q9 10 22 10q12 0 21 -10l15 -14l14 -15q9 -9 9 -21zM232 294l212 212l72 -72l-212 -212l-107 -35z" />
    <glyph glyph-name="uni03DA" unicode="&#x3da;" horiz-adv-x="637" 
d="M317 2h-316l-1 13q0 64 11 129t45 77l130 55q13 7 23 16.5t14 18.5q-29 31 -37 65l-8 5q-16 42 -13 80l6 4q-1 6 -1 20q0 41 10 61q13 24 41.5 39.5t56.5 15.5h14q27 0 56 -16t41 -39q7 -13 9.5 -37t0.5 -44l6 -4q2 -41 -13 -80l-8 -5q-9 -34 -37 -65q4 -10 10 -16
l-18 -1q-24 0 -41 -17t-17 -42v-118q0 -62 36 -115zM634.5 241.5q2.5 -2.5 2.5 -6.5v-118q0 -56 -35 -98.5t-111 -93.5q-3 -2 -7 -2t-7 2q-76 51 -111 93.5t-35 98.5v118q0 4 2.5 6.5t6.5 2.5q40 1 70 13t68 44q2 2 6 2t6 -2q38 -32 68 -44t70 -13q4 0 6.5 -2.5z" />
    <glyph glyph-name="uni03DB" unicode="&#x3db;" horiz-adv-x="721" 
d="M720 316q0 -3 -3 -8l-17 -20q-3 -5 -11 -5h-25q-6 0 -9 3l-36 29v-277q0 -12 -9 -21q-8 -8 -20 -8h-458q-13 0 -21 8q-9 9 -9 21v277l-36 -29q-3 -3 -9 -3h-25q-6 0 -11 5l-17 20q-3 3 -3 8q0 8 5 13l332 272q11 8 22 8q12 0 23 -8l74 -60v53q0 7 4 11t11 4h85q6 0 10 -4
t4 -11v-147l144 -118q5 -3 5 -10v-3zM370 519q-4 4 -9 4q-6 0 -10 -4l-219 -179v-301h151v231h155v-231h151v301z" />
    <glyph glyph-name="uni03DC" unicode="&#x3dc;" 
d="M587 522q13 -13 13 -32v-73h-600v73q0 19 13 32t32 13h510q19 0 32 -13zM600 110q0 -19 -13 -32t-32 -13h-510q-19 0 -32 13t-13 32v207h600v-207zM347 209h-260v-58h260v58z" />
    <glyph glyph-name="uni03DD" unicode="&#x3dd;" 
d="M2 577v-190q0 -8 4 -10q1 -1 3 -1q3 0 8 5l58 58l86 -86q6 -6 14 -6t14 6l58 58q6 6 6 15q0 8 -6 14l-85 86l57 57q7 7 4 10q-2 5 -10 5h-190q-9 0 -15 -6t-6 -15zM581 598h-190q-9 0 -11 -4v-2q0 -5 4 -9l58 -58l-85 -86q-6 -6 -7 -14q0 -8 7 -14l57 -58q6 -6 15 -6
q8 0 14 6l86 85l58 -57q6 -6 10 -4q4 1 4 10l1 190q0 9 -6 15q-8 6 -15 6zM174 250q-8 0 -14 -6l-86 -86l-57 58q-4 4 -8 4q-7 0 -7 -11v-190q0 -7 6 -15q6 -6 15 -6l190 1q9 0 10 4l1 2q0 2 -5 9l-58 57l86 86q6 6 6 14q0 9 -6 15l-58 58q-6 6 -15 6zM350 171q0 -8 6 -14
l86 -86l-58 -58q-4 -4 -4 -8q0 -6 11 -6l190 -1q8 0 15 6q6 8 6 15l-1 190q0 10 -4 11h-2q-4 0 -9 -4l-57 -58l-86 85q-5 5 -14 7q-9 0 -15 -7l-58 -57q-6 -6 -6 -15z" />
    <glyph glyph-name="uni03DE" unicode="&#x3de;" horiz-adv-x="652" 
d="M327 620q-25 0 -41 -17l-77 -77q-10 -9 -10 -24t10 -25l1 -1q6 -6 17 -9q4 1 13 1q36 0 61 -25l0.5 -0.5l0.5 -0.5l3 -3q24 -25 24 -59q0 -35 -25 -62q-25 -26 -63 -26q-37 0 -62 25v1q-27 26 -27 65q-1 6 -8 13l-8 8q-9 11 -24 11q-14 0 -25 -11l-69 -69
q-17 -17 -17 -40q0 -24 17 -41l267 -267q16 -17 41 -17q24 0 40 17l268 268q17 16 17 41q0 24 -17 40l-89 90q-8 10 -8 20q0 11 8 19q10 10 22 8q17 -2 33 4t29 19q23 23 23 55q0 33 -23 56q-22 23 -56 23q-33 0 -56 -23q-25 -25 -22 -62q0 -14 -8 -22t-20 -8q-10 0 -20 8
l-80 80q-16 17 -40 17z" />
    <glyph glyph-name="uni03DF" unicode="&#x3df;" horiz-adv-x="862" 
d="M595 125q-15 0 -26 -11q-9 -11 -11 -30v-55h-412q-16 0 -28 12t-12 29v379q0 17 12 29t28 12h130l20 44q6 15 23 26q19 11 34 11h156q15 0 34 -11q17 -11 23 -26l20 -44h130q16 0 28 -12t12 -29v-221l-53 1h-5q-16 -1 -26 -11t-11 -27v-66h-65h-1zM587 194q13 29 13 65
t-13 66q-13 31 -36 54q-24 23 -54 36q-33 14 -66 14t-66 -14q-30 -13 -54 -36q-22 -22 -36 -54q-13 -29 -13 -66q0 -36 13 -65q14 -31 36 -54q23 -23 54 -37q30 -13 66 -13t66 13q31 14 54 37q23 22 36 54zM537 304q9 -21 9 -45q0 -23 -9 -44t-25 -37q-14 -16 -36 -25
q-21 -9 -45 -9t-45 9q-22 9 -36 25q-16 16 -25 37t-9 44q0 24 9 45q10 23 25 37q14 14 36 25q22 8 45 8t45 -8q22 -11 36 -25q15 -14 25 -37zM861 39q-1 -10 -10 -10h-94v-94q0 -3 -3 -6q-1 -3 -6 -3h-45h-1q-3 0 -6 3q-3 1 -3 6v94h-94q-4 0 -6 3q-3 3 -3 7v44q2 6 3 7
q3 3 6 3h1h93v94q0 9 10 10l45 -1q9 0 9 -9v-94h94h1q8 0 8 -9z" />
    <glyph glyph-name="uni03E0" unicode="&#x3e0;" 
d="M0 600h160v-600h-160v600zM600 220h-134v-74q0 -19 -12 -25q-2 -1 -6 -1q-10 0 -22 12l-160 144q-10 9 -10 24t10 24l160 144q12 12 22 12q18 0 18 -26v-74h134v-160z" />
    <glyph glyph-name="uni03E1" unicode="&#x3e1;" 
d="M600 600v-600h-160v600h160zM344 300q0 -15 -10 -24l-160 -144q-16 -16 -28 -11q-12 6 -12 25v74h-134v160h134v74q0 21 12 25q2 1 6 1q10 0 22 -12l160 -144q10 -9 10 -24z" />
    <glyph glyph-name="uni03F7" unicode="&#x3f7;" horiz-adv-x="777" 
d="M369 27q4 -9 14 -27h-383v600h600v-244h-13h-12v82h-137v137h-138v-137h-137v137h-138v-137h138v-138h-138v-137h138v-138h137v138h54q-3 -21 -3 -44q0 -48 18 -92zM438 438v-136q-1 0 -3 -2h-135v138h138zM777 147v-56q0 -2 -7 -5l-16 -4l-18 -2l-12 -1q-2 -11 -11 -28
q15 -22 29 -37l1 -3q0 -3 -6 -9l-15 -16l-16 -15q-7 -6 -9 -6t-7 4q-8 6 -12 10l-14 10l-8 6q-4 -3 -14 -7l-14 -4l-1 -12q0 -6 -2 -18l-3 -16q-3 -8 -5 -8h-57q-2 0 -4 4q-4 16 -5 25q0 8 -2 24q-14 4 -28 12l-19 -14l-19 -15l-3 -1l-8 6l-16 15l-14 16q-7 7 -7 9l4 6l9 13
q1 1 10 13l6 8q-8 14 -12 29q-12 3 -24 3q-17 2 -24 5q-4 1 -4 4v56q0 4 7 5q6 2 16 4l18 2q5 0 7.5 0.5t3.5 0.5q4 14 12 28q-15 22 -29 37l-1 4q0 2 6 9l15 15q11 11 16 15q8 6 9 6q2 0 7 -4l13 -10l13 -10l8 -6q4 3 14 7l14 5l1 11q0 6 2 18l3 16q3 8 5 8h57q2 0 4 -4
q2 -8 4 -24l3 -25q3 -1 6.5 -2t7.5 -3l14 -7l8 7l13 10q3 2 6.5 4.5t6.5 4.5q4 4 7 4l8 -6q5 -4 16 -15l14 -15q7 -7 7 -9l-4 -7l-10 -13q-9 -12 -10 -13q-5 -7 -5 -8q7 -12 12 -29l24 -3q12 0 24 -5q4 0 4 -4zM163 300h137v-137h-137v137zM645 120q0 13 -4 22l-12 18
q-7 8 -18 12q-9 4 -22 4q-14 0 -23 -4q-10 -4 -18 -12q-8 -9 -12 -18t-4 -22t4 -22q5 -10 12 -18t18 -13q9 -4 23 -4q13 0 22 4q11 5 18 13q6 8 12 18q4 9 4 22z" />
    <glyph glyph-name="uni03F8" unicode="&#x3f8;" 
d="M261 544q6 -6 6 -14v-176q0 -8 -6 -14q-7 -6 -15 -6h-175q-9 0 -15 6t-6 14v176q0 8 6 14q6 7 15 7h175q8 0 15 -7zM550 530v-176q0 -8 -6 -14t-15 -6h-175q-7 0 -15 6q-6 6 -6 14v176q0 8 6 14q7 7 15 7h175q9 0 15 -7q6 -6 6 -14zM261 261q6 -6 6 -15v-175q0 -8 -6 -14
t-15 -6h-176q-8 0 -14 6t-6 14v175q0 9 6 15t14 6h176q9 0 15 -6zM544 261q6 -6 6 -15v-175q0 -8 -6 -14t-15 -6h-175q-9 0 -15 6t-6 14v175q0 9 6 15q7 6 15 6h175q9 0 15 -6z" />
    <glyph glyph-name="uni03FA" unicode="&#x3fa;" horiz-adv-x="492" 
d="M420 392l-20 -20l-72 -68l32 -30q35 -35 53 -51q47 -43 54 -67q5 -17 5 -22v-57q8 -1 14 -6.5t6 -12.5v-39q0 -8 -6.5 -13.5t-15.5 -5.5h-448q-9 0 -15.5 5.5t-6.5 13.5v39q0 7 6 12.5t14 6.5v57q2 26 19 49q9 12 35 36l18 17l54 51l18 16l-32 31l-30 28q-49 47 -63 63
q-9 11 -15 26q0 2 -1.5 9t-2.5 13v50q-8 1 -14 6.5t-6 12.5v39q0 8 6.5 13.5t15.5 5.5h448q9 0 15.5 -5.5t6.5 -13.5v-39q0 -7 -6 -12.5t-14 -6.5v-49q-1 -17 -11 -36q-9 -16 -41 -46zM277 305q0 5 3 8q43 43 129 125q15 15 18 32v34q0 8 -5.5 13.5t-13.5 5.5h-324
q-7 0 -13 -5.5t-6 -13.5v-34q0 -5 3.5 -12t7.5 -12q12 -15 42 -43l17 -15l28 -27q33 -31 48 -48q4 -4 4 -7.5v-4.5v-2q0 -5 -4 -11l-129 -125q-15 -15 -17 -32v-35q0 -7 6 -13t13 -6h324q8 0 13.5 6t5.5 13v35q0 4 -4 12t-7 12q-5 6 -38 39l-21 20l-21 20q-44 42 -55 54
q-5 5 -4.5 8t0.5 5v4zM268 340q-2 -1 -5.5 -9t-3.5 -12v-119q-1 -7 5.5 -17t15.5 -13q16 -5 28 -8l23 -5l59 -15q4 -1 7.5 -6.5t3.5 -9.5v-8q0 -8 -6 -13.5t-14 -5.5h-271q-8 0 -13.5 5.5t-5.5 13.5v8q1 11 8.5 15t16 5t12.5 2q34 8 84 22q8 2 14.5 12t6.5 18v120
q-1 2 -2.5 8t-4.5 9q-13 14 -24 25t-19 20l-35 36q-2 1 -2 6q0 10 8 11h183q4 0 6.5 -3.5t2.5 -7.5q0 -6 -11.5 -17t-15.5 -15l-22 -22z" />
    <glyph glyph-name="uni03FB" unicode="&#x3fb;" horiz-adv-x="646" 
d="M646 455l-92 -358q-1 -6 -8 -6h-445q-6 0 -8 6l-92 358q-1 1 -0.5 1.5t0.5 1.5q16 16 39 16t38 -16q16 -16 16 -38q0 -12 -6 -24l92 -68q2 -1 4.5 -0.5t4.5 2.5l74 123q-16 5 -26 17.5t-10 29.5q0 20 14.5 34t33.5 14v4q0 20 14 34t34 14t34 -14t14 -34v-4v0q20 0 34 -14
t14 -34q0 -17 -10 -29.5t-26 -17.5l75 -123q2 -2 4.5 -2.5t3.5 0.5l91 67q-6 11 -6 24q0 22 17 39q15 16 38 16t39 -16q1 0 1 -3zM550 50q2 -2 2 -5v-39q0 -2 -2 -4t-4 -2h-445q-6 0 -6 6v39q0 7 6 7h445q2 0 4 -2z" />
    <glyph glyph-name="uni1EB8" unicode="&#x1eb8;" horiz-adv-x="828" 
d="M269 570.5q-55 -29.5 -90 -81t-42 -114.5q-58 -10 -97 -55.5t-39 -105.5q0 -44 22 -81.5t60 -60t83 -22.5h124v-50h248v50h93q54 0 99 26.5t71.5 71.5t26.5 98q0 54 -26.5 99t-71.5 71.5t-99 26.5h-10v0q-28 70 -91.5 113.5t-141.5 43.5q-64 0 -119 -29.5zM231 197h-1
l184 224l184 -223l-0.5 -0.5l-0.5 -0.5h-91v-165h-184v165h-91z" />
    <glyph glyph-name="uni1EB9" unicode="&#x1eb9;" horiz-adv-x="684" 
d="M662.5 538.5q21.5 -21.5 21.5 -52.5v-327q0 -31 -21.5 -53t-52.5 -22h-228q-22 -25 -48 -43q-69 -54 -159 -74l-19 -3l-10 -2t-11 -2q-5 0 -10 3q-4 4 -6 9v1q-3 5 1 9l9 8l16 18q10 12 14 19q7 15 11 27q5 9 8 30h-104q-31 0 -52.5 22t-21.5 53v327q0 31 21.5 52.5
t52.5 21.5h536q31 0 52.5 -21.5zM525.5 247.5q14.5 35.5 14.5 74.5q0 42 -16 78q-23 55 -72.5 87.5t-109.5 32.5q-40 0 -76 -15q-36 -14 -64 -42t-43 -65t-15 -76q0 -41 16 -77q23 -55 73 -88t110 -33q41 0 77 15.5t64 44.5q27 28 41.5 63.5zM332 497q52 3 98 -24l-47 -19
q-28 31 -51 43zM285 486q34 2 76 -42l-49 -21zM264 477l26 -63l-48 -21q-3 62 22 84zM398 435l55 23q29 -24 45 -57l-64 -27q-14 32 -36 61zM219 384l-47 -20q14 52 51 86q-7 -27 -4 -66zM321 402l55 23q21 -27 36 -60l-64 -28zM327 328l-64 -27q-12 32 -19 68l55 24z
M516 308l-54 -23q-7 37 -19 67l64 27q12 -35 9 -71zM241 292l-64 -27q-12 35 -9 72l54 23q6 -35 19 -68zM357 316l64 27q15 -36 19 -68l-55 -23zM272 280l64 27l27 -64l-55 -24q-21 28 -36 61zM465 261l47 19q-12 -50 -51 -86q7 27 4 67zM286 210l-54 -23q-30 23 -46 56
l64 27q15 -33 36 -60zM420 168l-26 62l49 21q0 -64 -23 -83zM399 158q-18 -1 -38.5 11.5t-37.5 30.5l49 21zM352 148q-53 -3 -98 23l47 20q26 -31 51 -43z" />
    <glyph glyph-name="uni1EBA" unicode="&#x1eba;" horiz-adv-x="800" 
d="M783 234q-17 -27 -46 -27q-18 0 -28 4.5t-21 13.5q-13 11 -27 17q-4 2 -10 2q-21 0 -21 -37v-140h-130h-4q-28 1 -28 21q0 3 2 11q3 8 9.5 15.5t12.5 13.5q12 12 18 21.5t6 26.5q0 28 -29.5 45.5t-62.5 18.5q-33 -1 -63 -18.5t-30 -45.5q0 -17 6 -26.5t18 -21.5
q6 -6 12.5 -13.5t9.5 -15.5q2 -8 2 -11q0 -21 -31 -21h-17q-40 0 -74.5 17.5t-57.5 42.5q25 -2 35 14q7 11 7 22q0 15 -9 24q-6 6 -12 6q-9 0 -21 -12q-19 -20 -42 -20q-22 0 -44 17.5t-39 43.5l16 -1q27 0 50 9t29 33q-22 -9 -49 -9q-77 0 -120 79q12 -4 28 -4
q28 0 59.5 16.5t60.5 60.5q17 -19 34 -19q14 0 23 12q7 8 7 15q0 9 -11.5 15.5t-27.5 8.5q25 40 66 67.5t92 27.5h17q31 0 31 -21q0 -3 -2 -11q-3 -8 -9.5 -15.5t-12.5 -13.5q-12 -12 -18 -21.5t-6 -26.5q0 -28 30 -45.5t63 -18.5q33 1 62.5 18.5t29.5 45.5q0 17 -6 26.5
t-18 21.5q-6 6 -12.5 13.5t-9.5 15.5q-2 8 -2 11q0 20 28 21h4h130v-140v-4q1 -33 20 -33q7 0 11 2q14 6 27 17q11 9 21 13.5t28 4.5q29 0 46 -27t17 -64v-4q0 -37 -17 -64z" />
    <glyph glyph-name="uni1EBB" unicode="&#x1ebb;" horiz-adv-x="710" 
d="M440.5 89q22.5 -22 24.5 -50v-39h-465v39q2 26 21.5 47t59.5 28q-1 11 -3 21q0 1 -9 34q-12 43 -18.5 71t-6.5 50q0 82 32 139t82.5 85.5t106.5 32.5l53 53q6 0 11 -5t7 -12l6 -29q7 -18 32 -38q10 -9 15 -17t8 -18l10 -26q12 -33 25 -53l49 -68q8 -11 8 -23
q0 -16 -11 -25q-13 -11 -41 -19t-32 -4t-14 18q-9 15 -19 22.5t-29 7.5q-21 0 -39.5 13t-36.5 33l-16 18q-18 -22 -18 -44q0 -5 2 -13q6 -16 11 -22q10 -17 35 -35q37 -31 61.5 -59.5t28.5 -66.5l1 -20q46 -4 68.5 -26zM456 437l15 19q14 17 36.5 29t46.5 12h49v41
q0 12 8 12q6 0 13 -6l81 -67q5 -5 5 -11q0 -7 -5 -10l-81 -68q-8 -5 -12 -5q-9 0 -9 13v46h-49q-13 0 -25.5 -9t-26.5 -26l-13 -18l-25 35zM710 134q0 -6 -5 -11l-81 -67q-7 -6 -13 -6q-8 0 -8 12v41h-49q-32 0 -68 32l-89 89q4 -1 13 -1q10 0 23.5 3t21.5 6q6 2 11 4
l44 -45q15 -18 24.5 -25.5t21.5 -7.5h47v46q0 13 9 13q4 0 12 -5l81 -68q5 -3 5 -10z" />
    <glyph glyph-name="uni1F00" unicode="&#x1f00;" horiz-adv-x="800" 
d="M700 300q0 -92 -2 -124q-1 -41 -14 -73q-10 -28 -34 -53q-25 -24 -53 -34q-32 -13 -73 -14q-32 -2 -124 -2t-124 2q-41 1 -73 14q-28 10 -53 34q-24 25 -34 53q-13 32 -14 73q-2 32 -2 124t2 124q1 41 14 73q10 28 34 53q25 24 53 34q32 13 73 14q32 2 124 2t124 -2
q41 -1 73 -14q28 -10 53 -34q24 -25 34 -53q13 -32 14 -73q2 -32 2 -124zM646 300q0 90 -2 121q-1 31 -10 56q-9 21 -23 34q-13 14 -34 23q-25 9 -56 10q-31 2 -121 2t-121 -2q-31 -1 -56 -10q-21 -9 -34 -23q-14 -13 -23 -34q-9 -25 -10 -56q-2 -31 -2 -121t2 -121
q1 -31 10 -56q9 -21 23 -34q13 -14 34 -23q25 -9 56 -10q31 -2 121 -2t121 2q31 1 56 10q21 9 34 23q14 13 23 34q9 25 10 56q2 31 2 121zM585.5 485.5q10.5 -10.5 10.5 -25.5t-10.5 -25.5t-25.5 -10.5t-25.5 10.5t-10.5 25.5t10.5 25.5t25.5 10.5t25.5 -10.5zM477.5 433.5
q35.5 -20.5 56 -56t20.5 -77.5t-20.5 -77.5t-56 -56t-77.5 -20.5t-77.5 20.5t-56 56t-20.5 77.5t20.5 77.5t56 56t77.5 20.5t77.5 -20.5zM470.5 229.5q29.5 29.5 29.5 70.5t-29.5 70.5t-70.5 29.5t-70.5 -29.5t-29.5 -70.5t29.5 -70.5t70.5 -29.5t70.5 29.5z" />
    <glyph glyph-name="uni1F01" unicode="&#x1f01;" horiz-adv-x="530" 
d="M507.5 542.5q22.5 -22.5 22.5 -54.5v-376q0 -31 -23 -54t-54 -23h-376q-31 0 -54 23t-23 54v376q0 31 23 54t54 23h376q32 0 54.5 -22.5zM417 338q-3 3 -7 3h-104v104q0 4 -3 7t-8 3h-60q-5 0 -8 -3t-3 -7v-104h-104q-4 0 -7 -3t-3 -8v-60q0 -5 3 -8t7 -3h104v-104
q0 -4 3 -7t8 -3h60q5 0 8 3t3 7v104h104q4 0 7 3t3 8v60q0 5 -3 8z" />
    <glyph glyph-name="uni1F02" unicode="&#x1f02;" horiz-adv-x="530" 
d="M507.5 542.5q22.5 -22.5 22.5 -54.5v-376q0 -31 -23 -54t-54 -23h-376q-31 0 -54 23t-23 54v376q0 31 23 54t54 23h376q32 0 54.5 -22.5zM417 338q-3 3 -7 3h-290q-4 0 -7 -3t-3 -8v-60q0 -5 3 -8t7 -3h290q4 0 7 3t3 8v60q0 5 -3 8z" />
    <glyph glyph-name="uni1F03" unicode="&#x1f03;" horiz-adv-x="530" 
d="M508.5 542.5q22.5 -22.5 22.5 -54.5v-376q0 -31 -23 -54t-54 -23h-376q-31 0 -54 23t-23 54v376q0 31 23 54t54 23h376q32 0 54.5 -22.5zM418 416q-3 3 -7 2l-290 1q-4 0 -7 -3t-3 -8v-60q0 -5 3 -8t7 -3h290q4 0 7 3t3 7v61q0 5 -3 8zM418 260q-3 3 -7 3h-290
q-4 0 -7 -3t-3 -7v-61q0 -5 3 -8t7 -2l290 -1q4 0 7 3t3 8v60q0 5 -3 8z" />
    <glyph glyph-name="uni1F04" unicode="&#x1f04;" horiz-adv-x="530" 
d="M507.5 542.5q22.5 -22.5 22.5 -54.5v-376q0 -31 -23 -54t-54 -23h-376q-31 0 -54 23t-23 54v376q0 31 23 54t54 23h376q32 0 54.5 -22.5z" />
    <glyph glyph-name="uni1F05" unicode="&#x1f05;" 
d="M146 590.5q-13 13.5 -13 31.5q0 9 2 14q9 27 26 42t44 24q-4 -12 -4 -24q0 -10 3 -17.5t9 -17.5q9 -14 9 -24q0 -4 -2 -12q-4 -13 -16.5 -21.5t-26.5 -8.5q-18 0 -31 13.5zM511.5 410q32.5 -33 60 -89.5t27.5 -123.5q0 -81 -40.5 -149.5t-109 -109t-149.5 -40.5
t-149.5 40.5t-109 109t-40.5 149.5q0 74 26.5 130.5t62.5 93t91 81.5q47 37 68.5 60.5t21.5 50.5q0 11 -4.5 23t-4.5 20q0 23 27 23q15 0 37 -25.5t38 -65.5t16 -80q0 -38 -9 -70.5t-26 -77.5q-13 -32 -19 -53t-6 -40q0 -30 21 -51t50 -21q30 0 51 21t21 51q0 25 -6 43
t-18 42q-11 24 -16.5 40t-5.5 37q0 29 12.5 46.5t24.5 17.5q9 0 15.5 -6t6.5 -14l-1 -15q0 -5 3 -13q1 -2 33.5 -35z" />
    <glyph glyph-name="uni1F06" unicode="&#x1f06;" horiz-adv-x="740" 
d="M568 72l-10 -8q-39 -32 -87 -49t-100 -17h-2q-52 0 -99.5 17.5t-86.5 48.5l-7 6q-49 41 -77 100t-28 126q0 88 45.5 161t120.5 110q-14 -31 -14 -64q0 -8 2 -26l6 -22q-33 -30 -51.5 -71.5t-18.5 -88.5q0 -37 13 -71t36 -61q6 7 18 15q42 26 62.5 53.5t25.5 46t7 40.5
l1 24h-56q-9 18 -9 39l64 40l-4 3q-34 23 -40 63q-2 10 -2 16q0 39 28 67t67 28h3q38 -2 64.5 -29.5t26.5 -65.5q0 -12 -1 -18q-8 -38 -40 -61l-5 -3l65 -40q0 -19 -10 -39h-55v-24q2 -22 7 -40.5t25.5 -46t62.5 -53.5q9 -6 17 -14q34 -34 36 -92zM618 176l121 120h-70v26
q-6 78 -50 143t-112 100q13 -27 13 -62q0 -18 -2 -27l-6 -23q27 -25 45 -58.5t22 -71.5v-27h-82z" />
    <glyph glyph-name="uni1F07" unicode="&#x1f07;" horiz-adv-x="740" 
d="M0 82v61h72v64h-72v61h72v64h-72v61h72v64h-72v61h85q12 25 28 39q18 18 39 28v85h61v-72h64v72h61v-72h64v72h61v-72h64v72h61v-52l-60 -60h-316q-41 0 -70.5 -29.5t-29.5 -70.5v-316l-60 -60h-52zM75 -38l633 633l-43 43l-633 -633zM668 393h72v-61h-72v-64h72v-61h-72
v-64h72v-61h-85q-11 -23 -28 -39q-16 -17 -39 -28v-85h-61v72h-64v-72h-61v72h-64v-72h-61v72h-64v-72h-61v52l60 60h316q41 0 70.5 29.5t29.5 70.5v316l60 60h52v-61h-72v-64zM152 458q0 26 18 42q17 18 42 18h276l-336 -336v276zM588 142q0 -25 -18 -42q-16 -18 -42 -18
h-276l336 336v-276z" />
    <glyph glyph-name="uni1F08" unicode="&#x1f08;" horiz-adv-x="790" 
d="M688 323.5q2 -14.5 2 -29.5q0 -86 -36 -152.5t-101.5 -104t-151.5 -37.5q-82 0 -151 40.5t-109.5 109t-40.5 150.5t40.5 150.5t109.5 109t151 40.5q118 0 201 -77l-81 -79q-48 46 -120 46q-50 0 -93 -25.5t-68 -69t-25 -95.5t25 -95.5t68 -69t93 -25.5q55 0 92 22
t55.5 52t22.5 56h-170v103h284q1 -5 3 -19.5z" />
    <glyph glyph-name="uni1F09" unicode="&#x1f09;" 
d="M312 365l107 108q4 3 4 6q0 5 -8 5h-66v98q0 7 -5 11q-5 5 -11 5h-66q-6 0 -11 -5q-5 -4 -5 -11v-97h-66q-6 0 -8 -4q0 -4 4 -8l107 -108q5 -5 12 -5t12 5zM5 253q4 -4 11 -4h97v-66q0 -7 4 -8q4 -2 8 4l108 107q5 5 5 12t-5 12l-108 107q-3 4 -6 4q-6 0 -6 -9v-65h-97
q-6 0 -11 -5t-5 -11v-66q0 -5 5 -12zM367 286l108 -108q3 -3 6 -3q6 0 6 8v66h97q7 0 11 4q5 5 5 12v65q0 7 -5 12t-11 5h-97v66q0 7 -4 7q-3 2 -8 -3l-108 -108q-5 -5 -5 -11q0 -7 5 -12zM344 3q5 4 5 11v97h66q7 0 8 4q0 4 -4 8l-107 108q-7 5 -12 5q-7 0 -12 -5
l-107 -108q-4 -3 -4 -6q0 -6 8 -6h66v-97q0 -7 5 -11q4 -5 11 -5h66q7 0 11 5z" />
    <glyph glyph-name="uni1F0A" unicode="&#x1f0a;" horiz-adv-x="760" 
d="M197 550q-9 9 -9 21q0 13 10 23q9 10 22 10q12 0 22 -10q9 -9 9 -23q0 -12 -7 -20l58 -75l7 117q-10 3 -17 11q-6 8 -6 21q0 14 10 24t24 10t23 -10q10 -10 10 -24q0 -18 -13 -28l39 -116l38 116q-14 11 -14 28q0 13 11 24q9 10 23 10t24 -10t10 -24q0 -13 -6 -21
t-17 -11l8 -117l57 75q-8 10 -8 20q0 13 9 23q12 10 23 10q13 0 22 -10q9 -9 9 -23q0 -13 -8 -21q-6 -9 -20 -12l-16 -89q-33 -29 -46 -66q-8 -25 -8 -53q0 -38 13 -71l3 -6h-212q17 39 17 83q0 22 -4 35q-15 62 -58 99l-12 68q-14 3 -20 12zM703 347q0 -21 -7 -41
q-10 -29 -35 -54l-144 1l-8 17q-11 28 -11 59q0 23 7 44q12 33 39.5 56.5t58.5 34.5l3 16v1q0 4 2 10q5 14 16.5 22t24.5 8q18 0 29 -13t11 -30q0 -10 -2 -15q-2 -6 -5 -9q-6 -10 -9 -13l-56 -50q-21 -22 -41 -60l26 -10q16 30 25 41q15 20 35 35l25 20q16 -39 16 -70z
M87 332q-11 -3 -15.5 -8.5t-7.5 -14.5t-6 -13q-2 -2 -17 -2q-20 0 -28 4q-10 7 -10 18q0 3 2 9l18 46q5 14 6 28t2 23q0 1 1 7.5t8 15.5q1 2 6 10t6 17l-1 17q0 4 2.5 7.5t5.5 4.5l38 -23q8 2 26 2q46 0 84 -28.5t53 -87.5q3 -10 3 -27q0 -21 -5.5 -45t-15.5 -40l-145 1
q6 26 32 59q11 14 15 25q3 9 3 17q0 10 -5.5 17.5t-11.5 10.5l-7 -13q-17 -32 -36 -37zM236.5 -21q-64.5 38 -102.5 103t-38 142h565q0 -77 -38 -142t-103 -103t-142 -38t-141.5 38z" />
    <glyph glyph-name="uni1F0B" unicode="&#x1f0b;" 
d="M588 285q0 -17 -12.5 -30t-31.5 -13h-115v-273q0 -8 -7 -15q-6 -6 -14 -6h-215q-10 0 -14 7q-5 5 -5 14v273h-116q-19 0 -31.5 13t-12.5 30q0 13 9 25l243 332q13 17 35 17q24 0 35 -17l243 -332q9 -12 9 -25z" />
    <glyph glyph-name="uni1F0C" unicode="&#x1f0c;" 
d="M574.5 345q12.5 -13 12.5 -30q0 -13 -9 -25l-243 -332q-11 -17 -35 -17q-22 0 -35 17l-243 332q-9 12 -9 25q0 17 12.5 30t31.5 13h116v273q0 9 6 15t14 6h215q10 0 14 -7q6 -6 6 -14v-273h115q19 0 31.5 -13z" />
    <glyph glyph-name="uni1F0D" unicode="&#x1f0d;" horiz-adv-x="840" 
d="M449 561q18 -36 18 -81q0 -33 -8 -60q-8 -23 -23 -46q-14 -19 -31 -38q-21 -21 -33 -30q-31 -29 -41 -40q-17 -20 -17 -44v-14q0 -7 -5 -14q-6 -6 -14 -6h-109q-8 0 -14 6t-6 14v22q0 29 8 53q7 22 21 42q14 21 29 34q15 15 30 27q23 20 41 40q16 17 16 43q0 23 -18 38
q-20 15 -46 15q-20 0 -31 -5q-10 -3 -26 -11q-10 -5 -18 -11l-7 -6q-7 -3 -15 -3q-10 1 -14 7l-63 77q-4 10 -4 13q0 6 6 12q1 1 14 13q15 13 35 23q22 13 56 24q36 11 76 11q37 0 76 -12q38 -12 68 -36q31 -22 49 -57zM822 480q0 -34 -9 -60q-10 -27 -23 -46
q-11 -18 -30 -38q-17 -17 -33 -30q-31 -29 -41 -40q-17 -18 -17 -44v-14q0 -8 -6 -14t-14 -6h-108q-8 0 -14 6t-6 14v22q0 33 8 53q8 22 21 42q10 16 28 34q11 11 31 27q31 29 41 40q16 17 16 43q0 23 -19 38t-46 15q-18 0 -31 -5q-12 -4 -26 -11q-10 -5 -18 -11l-7 -6
q-4 -3 -12 -3q-2 52 -22 93q-11 21 -27 40q12 8 20 12q24 13 57 24q35 11 75 11q38 0 76 -12q36 -11 69 -36q29 -22 49 -57q18 -36 18 -81zM314 98q6 -6 6 -14v-115q0 -9 -6 -15q-7 -6 -15 -6h-119q-10 0 -14 7q-5 7 -5 14v115q0 7 5 14q6 6 14 6h119q8 0 15 -6zM668 98
q6 -6 6 -14v-115q0 -9 -6 -15t-14 -6h-119q-10 0 -14 7q-6 6 -6 14v115q0 8 6 14t14 6h119q8 0 14 -6z" />
    <glyph glyph-name="uni1F0E" unicode="&#x1f0e;" horiz-adv-x="480" 
d="M462 480q0 45 -18 81q-20 35 -49 57q-33 25 -69 36q-37 12 -76 12q-40 0 -75 -11q-33 -10 -57 -24q-22 -12 -35 -23q-12 -10 -13 -13q-6 -6 -6 -13t4 -12l63 -77q4 -6 13 -7q9 0 15 3l7 6q8 6 18 11q14 7 26 11q13 5 31 5q26 0 46 -15q19 -15 19 -38q0 -26 -16 -43
q-10 -11 -41 -40q-20 -16 -31 -27q-18 -18 -28 -34q-13 -20 -21 -42q-8 -20 -8 -53v-22q0 -8 6 -14t14 -6h108q8 0 14 6t6 14v14q0 26 17 44q10 11 41 40q16 13 33 30q19 20 30 38q13 19 23 46q9 26 9 60zM308 98q-6 6 -14 6h-119q-8 0 -14 -6t-6 -14v-115q0 -8 6 -14
q4 -7 14 -7h119q8 0 14 6t6 15v115q0 8 -6 14z" />
    <glyph glyph-name="uni1F0F" unicode="&#x1f0f;" horiz-adv-x="684" 
d="M662.5 538.5q21.5 -21.5 21.5 -52.5v-327q0 -31 -21.5 -53t-52.5 -22h-228q-22 -25 -48 -43q-69 -54 -159 -74l-19 -3l-10 -2t-11 -2q-5 0 -10 3q-4 4 -6 9v1q-3 5 1 9l9 8l16 18q10 12 14 19q7 15 11 27q5 9 8 30h-104q-31 0 -52.5 22t-21.5 53v327q0 31 21.5 52.5
t52.5 21.5h536q31 0 52.5 -21.5zM475 322q0 7 -6 11l-216 124q-6 5 -12 0q-6 -3 -6 -10v-250q0 -7 6 -10q2 -2 6 -2t6 2l216 124q6 5 6 11z" />
    <glyph glyph-name="uni1F10" unicode="&#x1f10;" 
d="M524 206q31 0 53 -22q23 -23 23 -54t-23 -54q-12 -13 -34 -20q-4 -18 -19 -34q-24 -22 -54 -22t-54 22q-22 22 -22 53q0 17 6 30l-100 100l-100 -100q6 -13 6 -29q0 -31 -23 -54q-10 -10 -24.5 -16t-28.5 -6q-30 0 -54 22q-15 15 -20 34q-21 7 -34 20q-23 23 -23 54
t23 54q22 22 54 22q15 0 29 -6l100 100l-100 100q-13 -6 -29 -6q-32 0 -54 22q-23 23 -23 54t23 54q13 13 34 20q5 19 20 34q22 22 54 22t53 -22q23 -23 23 -54q0 -15 -6 -29l100 -100l100 100q-6 14 -6 30q0 31 22 53t54 22t54 -22q15 -16 19 -34q22 -7 34 -20
q23 -23 23 -54t-23 -54q-22 -22 -53 -22q-15 0 -30 6l-100 -100l100 -100q15 6 30 6z" />
    <glyph glyph-name="uni1F11" unicode="&#x1f11;" horiz-adv-x="884" 
d="M705 522q7 -17 7 -31v-382q0 -34 -24 -56q-23 -23 -55 -23h-382q-19 0 -34.5 7.5t-26.5 21.5q-18 21 -18 50v382q0 33 23 56t56 23h382q32 0 55 -23q10 -8 17 -25zM56 492h58v-384h-58q-23 0 -39.5 16.5t-16.5 39.5v272q0 23 16 39q15 17 40 17zM884 436v-272
q0 -23 -16.5 -39.5t-39.5 -16.5h-59v384h59q24 0 39 -17q17 -17 17 -39z" />
    <glyph glyph-name="uni1F12" unicode="&#x1f12;" horiz-adv-x="654" 
d="M645 591.5q9 -8.5 9 -21.5v-540q0 -13 -9 -21.5t-21 -8.5h-379q-13 0 -21.5 8.5t-8.5 21.5v170h75v-125h289v450h-289v-125h-75v170q0 13 8.5 21.5t21.5 8.5h379q12 0 21 -8.5zM332 183q0 -9 7 -16l24 -23q6 -7 15 -7q10 0 16 7l141 141q6 6 6 15q0 10 -6 16l-141 141
q-7 7 -16 7q-11 -2 -15 -7l-24 -24q-7 -7 -7 -16t7 -16l55 -55l-371 -1q-9 0 -16 -7q-5 -5 -7 -16l1 -44q0 -9 6 -15q7 -7 16 -7l372 -1l-56 -56q-7 -6 -7 -16z" />
    <glyph glyph-name="uni1F13" unicode="&#x1f13;" horiz-adv-x="818" 
d="M818 371q0 -11 -1 -16l-70 -291q-8 -37 -22.5 -49.5t-36.5 -12.5h-535q-26 0 -44.5 19t-18.5 45v468q0 26 18.5 45t45.5 19h431q26 0 45 -19t19 -45v-432v-8q5 -21 24 -21q12 0 20 7t13 27l55 244v0q1 3 1 10q0 14 -8 27q-13 18 -32 21l-32 7v59l55 -13q36 -8 58 -39
q15 -22 15 -52zM542 508l-346 1q-7 0 -12 -5q-4 -5 -4 -12v-63q0 -8 4 -12q5 -5 12 -5h346q17 0 17 17v63q0 16 -17 16zM343.5 330q-3.5 3 -7.5 3h-146q-4 0 -7 -3t-3 -7v-182q0 -5 3 -8t7 -3h146q5 0 8 3.5t3 7.5v182q0 4 -3.5 7zM552.5 327.5q-2.5 2.5 -6.5 2.5h-140
q-4 0 -6.5 -2.5t-2.5 -6.5v-18q0 -4 2.5 -6.5t6.5 -2.5h140q4 0 6.5 2.5t2.5 6.5v18q0 4 -2.5 6.5zM552.5 245.5q-2.5 2.5 -6.5 2.5h-140q-4 0 -6.5 -2.5t-2.5 -6.5v-18q0 -4 2.5 -6.5t6.5 -2.5h140q4 0 6.5 2.5t2.5 6.5v18q0 4 -2.5 6.5zM552.5 164.5q-2.5 2.5 -6.5 2.5
h-140q-4 0 -6.5 -2.5t-2.5 -6.5v-18q0 -4 2.5 -7t6.5 -3h140q4 0 6.5 2.5t2.5 6.5v19q0 4 -2.5 6.5z" />
    <glyph glyph-name="uni1F14" unicode="&#x1f14;" 
d="M578 639q22 -21 22 -51v-576q0 -30 -22 -51t-53 -21h-450q-31 0 -53 21t-22 51v576q0 30 22 51t53 21h450q31 0 53 -21zM75 300l94 54l93 -54v288h-187v-288z" />
    <glyph glyph-name="uni1F15" unicode="&#x1f15;" horiz-adv-x="651" 
d="M327 620q-24 0 -40 -17l-78 -77q-10 -10 -10 -24q0 -13 10 -25l1 -1q7 -6 17 -9q5 1 13 1q37 0 62 -25v-1l4 -3q23 -26 23 -59q0 -37 -25 -62q-25 -26 -62 -26t-62 25l-0.5 0.5l-0.5 0.5q-13 13 -20 30t-6 35q-3 8 -8 13l-8 8q-11 11 -25 11q-13 0 -24 -11l-70 -69
q-16 -16 -16 -40q0 -25 16 -41l267 -267q17 -17 41 -17q25 0 41 17l268 268q17 17 17 41q0 23 -17 40l-90 90q-8 10 -8 20q0 11 8 19q10 10 22 8q17 -2 33 4t29 19q23 22 23 55q0 34 -23 56q-22 23 -55 23t-56 -23q-13 -13 -19 -29t-4 -33v-3q0 -11 -8 -19t-19 -8
q-10 0 -20 8l-80 80q-16 17 -41 17z" />
    <glyph glyph-name="uni1F18" unicode="&#x1f18;" 
d="M582.5 564q6.5 -8 7.5 -17v-141q0 -19 -18 -29l-244 -109q-26 -12 -47 -12q-25 0 -32 14.5t-7 27.5q-7 -28 -32 -48q15 -9 15 -18v-19q0 -9 -11 -16l31 -81q22 -1 38 -19q17 -19 20 -39v-39q-1 -8 -6 -13.5t-14 -5.5h-251q-9 0 -14 5.5t-6 13.5v39q3 20 20 39
q16 18 38 19l31 81q-11 7 -11 16v19q0 10 16 18q-17 12 -26.5 30t-9.5 39q0 36 25.5 61.5t62.5 25.5q36 0 61.5 -25.5t25.5 -61.5l-1 -13q5 20 17 27q27 15 74 49.5t41 45.5q-8 17 -25 29.5t-32 12.5l-77 -1q-37 0 -118 -36q-25 -31 -48.5 -52.5t-35.5 -21.5q-9 -1 -18 6.5
t-12 19.5t15 46t37 56q12 15 39 32t58 32q45 24 77 33q39 10 58 13t64 3q35 0 95.5 -8t109.5 -18q13 -2 19.5 -10z" />
    <glyph glyph-name="uni1F19" unicode="&#x1f19;" 
d="M524.5 80q17.5 -39 17.5 -88q0 -6 -14.5 -16.5t-67 -20t-155.5 -9.5t-155.5 9.5t-67 20t-14.5 16.5q0 41 12 74v1q16 48 54 76q62 47 83.5 90.5t23.5 84.5v27h-72q-13 23 -13 48l82 55q-21 15 -34 39.5t-13 52.5q0 47 33.5 80.5t80.5 33.5q21 0 42 -8l0.5 -0.5l0.5 -0.5
q31 -12 51 -41t20 -64q0 -28 -13 -52.5t-34 -39.5l82 -55q0 -22 -13 -48h-72v-38t26.5 -78t80.5 -86q31 -24 48.5 -63z" />
    <glyph glyph-name="uni1F1A" unicode="&#x1f1a;" horiz-adv-x="704" 
d="M616 300q0 -19 8 -37t24 -31l56 -46l-72 -4q-36 -2 -59.5 -28t-23.5 -60q0 -11 3 -23l18 -70l-61 39q-23 14 -47 14q-27 0 -50.5 -15.5t-33.5 -41.5l-26 -67l-26 67q-10 26 -33.5 41.5t-50.5 15.5q-24 0 -47 -14l-60 -39l18 70q3 11 3 22q0 35 -24 61t-60 28l-72 4l56 46
q32 26 32 68q0 43 -32 69l-56 46l72 4q36 2 60 28t24 61q0 12 -3 22l-18 70l60 -39q21 -14 48 -14t50 15t33 41l26 67l26 -67q10 -26 33 -41t50 -15t48 14l61 39l-18 -70q-3 -12 -3 -23q0 -34 23.5 -60t59.5 -28l72 -4l-56 -46q-32 -27 -32 -69zM463.5 107
q51.5 30 81.5 81.5t30 111.5t-30 111.5t-81.5 81.5t-111.5 30t-111.5 -30t-81.5 -81.5t-30 -111.5t30 -111.5t81.5 -81.5t111.5 -30t111.5 30zM448 465.5q44 -25.5 69.5 -69.5t25.5 -96t-25.5 -95.5t-69.5 -69.5t-96 -26t-95.5 26t-69.5 69.5t-26 95.5t26 96t69.5 69.5
t95.5 25.5t96 -25.5z" />
    <glyph glyph-name="uni1F1B" unicode="&#x1f1b;" 
d="M472.5 492.5q58.5 -41.5 92.5 -105.5t34 -138q0 -81 -40.5 -149.5t-109 -109t-149.5 -40.5t-149.5 40.5t-109 109t-40.5 149.5q0 74 34 138t92.5 105.5t130.5 51.5v27h-49v79h182v-79h-49v-27q72 -10 130.5 -51.5zM401 75q46 27 73 73t27 101q0 54 -27 100t-73 73
t-101 27t-100.5 -27t-72.5 -73t-27 -100q0 -55 27 -101t72.5 -73t100.5 -27t101 27zM327 383l26 -163l-53 -51l-53 51l27 163h53z" />
    <glyph glyph-name="uni1F1C" unicode="&#x1f1c;" 
d="M111 282h130l-71 -332h42l278 440h-142l106 260h-263z" />
    <glyph glyph-name="uni1F1D" unicode="&#x1f1d;" horiz-adv-x="696" 
d="M56 477h84v-49h-84v49zM696 299q0 -20 -13 -33q-131 -146 -329 -146h-166v357h166q198 0 329 -146q13 -13 13 -32zM575 362l-2 2q-36 24 -75 39q-65 25 -144 25h-117v-50h112q121 0 223 -15zM0 374h140v-49h-140v49zM0 272h140v-49h-140v49zM56 169h84v-49h-84v49z" />
    <glyph glyph-name="uni1F20" unicode="&#x1f20;" horiz-adv-x="805" 
d="M798 391q7 -12 7 -26v-10q-1 -13 -7.5 -24t-18.5 -17l-19 -10v-114q9 -9 9 -20t-8 -19l23 -163q0 -8 -12.5 -13t-30.5 -5q-17 0 -29.5 5.5t-12.5 12.5l23 163q-8 8 -8 19q0 13 9 20v94l-39 -20v7q0 35 -32 63q-22 20 -64 36q-76 29 -186 29q-109 0 -187 -29
q-40 -15 -64 -36q-31 -27 -31 -63v-7l-94 50q-12 6 -18.5 17t-7.5 24v10q0 14 6.5 26.5t18.5 19.5l309 199q32 20 68 20q37 0 69 -20l308 -199q12 -8 19 -20zM525.5 350.5q56.5 -12.5 89.5 -33.5t33 -46v-129q0 -14 -7 -26.5t-19 -20.5l-172 -111q-20 -14 -48 -14t-49 14
l-171 111q-12 7 -19 19.5t-7 27.5l-1 129q0 25 33.5 46t90 33.5t123.5 12.5t123.5 -12.5z" />
    <glyph glyph-name="uni1F21" unicode="&#x1f21;" 
d="M536 221h-465v379h465v-379zM504 567h-401v-313h401v313zM580 37v-37h-560v37l51 159h465zM371 61l-3 40h-134l-5 -40h142z" />
    <glyph glyph-name="uni1F22" unicode="&#x1f22;" 
d="M565 157q-26 -46 -66 -83q-41 -35 -91 -54q-52 -20 -107 -20q-60 0 -117 23q-57 25 -95 65q-42 42 -64 95q-24 54 -24 117t24 117q22 53 64 95q39 41 95 64q54 24 117 24q52 0 102 -18q48 -18 89 -53l61 61q10 10 17 10q15 0 15 -22v-174q0 -12 -9 -21q-8 -6 -10 -6
q-3 -2 -11 -2h-173q-17 0 -22 9q-1 1 -1 4q0 8 10 17l59 60q-25 22 -59 33q-33 12 -68 12q-42 0 -81 -17q-38 -16 -67 -45q-28 -28 -46 -66q-16 -38 -16 -82q0 -46 16 -82q18 -38 46 -66t66 -45q40 -17 82 -17q38 0 75 14q35 13 63 38q27 23 47 58q19 34 23 71q2 8 6 11
q6 3 11 3l59 -8q16 -2 14 -17q-7 -52 -34 -103z" />
    <glyph glyph-name="uni1F23" unicode="&#x1f23;" 
d="M571.5 492q28.5 -78 28.5 -160t-28.5 -160t-83.5 -141q-7 -7 -14 -7q-5 0 -9 3l-43 43q-6 5 -6 13q0 5 5 12q43 50 65 111.5t22 125.5q0 65 -22 126t-65 112q-5 7 -5 12q0 7 6 12l43 44q4 3 9 3q7 0 14 -7q55 -64 83.5 -142zM401.5 423.5q15.5 -44.5 15.5 -91.5
q0 -46 -16 -91t-46 -83q-4 -5 -10 -5q-5 0 -9 3l-48 48q-3 3 -3 8q0 6 4 11q36 50 36 109q0 61 -36 109q-4 5 -4 11q0 5 3 8l48 48q4 4 9 4q6 0 10 -6q31 -38 46.5 -82.5zM99 269.5q-21 20.5 -21 50.5q0 29 21 50t50 21t50 -21t21 -50q0 -30 -21 -50.5t-50 -20.5t-50 20.5z
M287.5 10q10.5 -22 10.5 -50h-298q0 28 10.5 50t29.5 34q32 20 47.5 40.5t19.5 34.5t6 31v26h-24q-8 0 -8 8v31q0 7 8 7h121q7 0 7 -7v-31q0 -8 -7 -8h-24v-26q2 -24 15 -51t57 -55q19 -12 29.5 -34z" />
    <glyph glyph-name="uni1F24" unicode="&#x1f24;" 
d="M413.5 484q16.5 -17 40.5 -17h146v-354q0 -13 -9.5 -22.5t-23.5 -9.5h-382q-13 0 -22.5 9.5t-9.5 22.5v526q0 14 9.5 23t22.5 9h212v-146q0 -24 16.5 -41zM446.5 517q-9.5 10 -9.5 23v131l164 -164h-132q-13 0 -22.5 10zM134.5 63q21.5 -21 50.5 -21h262v-81
q0 -14 -9 -23t-23 -9h-382q-13 0 -22.5 9t-9.5 23v526q0 14 9.5 23t22.5 9h80v-406q0 -29 21.5 -50z" />
    <glyph glyph-name="uni1F25" unicode="&#x1f25;" horiz-adv-x="475" 
d="M475 201q-1 -64 -33.5 -117t-86.5 -84.5t-118 -31.5t-118.5 32t-86.5 87t-32 119q0 69 17.5 114t55.5 86q-2 -24 -2 -32q0 -58 28 -85.5t69 -28.5q-27 108 -27 159q0 103 41.5 175.5t100.5 107.5q-15 -35 -15 -70q0 -49 23 -88.5t70 -95.5q36 -42 58.5 -74t38.5 -73.5
t17 -91.5v-3v-5z" />
    <glyph glyph-name="uni1F26" unicode="&#x1f26;" horiz-adv-x="646" 
d="M646 410l-92 -358q-1 -6 -8 -6h-445q-6 0 -8 6l-92 358v3q16 16 39 16t38 -16q16 -16 16 -38q0 -12 -6 -24l92 -68q2 -1 4.5 -0.5t4.5 2.5l74 123q-16 5 -26 17.5t-10 29.5q0 20 14.5 34t33.5 14v4q0 20 14 34t34 14t34 -14t14 -34v-4v0q20 0 34 -14t14 -34
q0 -17 -10 -29.5t-26 -17.5l75 -123q2 -2 4.5 -2.5t3.5 0.5l91 67q-5 9 -5 23q0 24 16 40q15 16 38 16t39 -16q1 0 1 -3z" />
    <glyph glyph-name="uni1F27" unicode="&#x1f27;" horiz-adv-x="684" 
d="M128 424h-126v36h41v84l-27 -6l-8 34l46 13h33v-125h41v-36zM685 526v-43q0 -11 -9 -20q-8 -8 -20 -8h-419q-11 0 -21 8q-8 8 -8 20v43q0 13 8 20q8 8 21 8h419q13 0 20 -8q9 -7 9 -20zM1 219v34l59 45q12 9 16.5 15.5t4.5 13.5t-5 11.5t-13 4.5t-15 -4.5t-17 -15.5
l-30 24q14 18 28.5 26.5t36.5 8.5q26 0 42.5 -14t16.5 -37v-1q0 -18 -8.5 -29.5t-28.5 -25.5l-27 -20h66v-36h-126zM676 342q9 -9 9 -21v-42q0 -12 -9 -21q-8 -8 -20 -8h-419q-11 0 -21 8q-8 8 -8 21v42q0 13 8 21q10 8 21 8h419q12 0 20 -8zM82.5 57.5q5.5 4.5 5.5 11.5v1
q0 16 -26 16h-19l-6 23l36 33h-61v36h116v-32l-38 -32q41 -11 41 -45v-1q0 -24 -17.5 -38.5t-44.5 -14.5q-42 0 -68 28l28 28q18 -18 38 -18q10 0 15.5 4.5zM676 138q9 -9 9 -20v-42q0 -12 -9 -21q-7 -8 -20 -8h-419q-13 0 -21 8t-8 21v42q0 13 8 20q10 8 21 8h419
q12 0 20 -8z" />
    <glyph glyph-name="uni1F28" unicode="&#x1f28;" horiz-adv-x="704" 
d="M56 369l-55 46l71 4q36 2 60 28t24 61q0 12 -3 22l-18 70l61 -39q21 -14 48 -14t49.5 15t32.5 41l27 67l26 -67q10 -26 32.5 -41t49.5 -15t48 14l61 39l-18 -70q-3 -10 -3 -22q0 -35 24 -61t60 -28l71 -4l-55 -46q-32 -26 -32 -69h-42q0 61 -30 112t-81 81t-111 30
q-61 0 -112 -30t-81 -81t-30 -112h-42q0 43 -32 69zM448.5 465.5q43.5 -25.5 69 -69.5t25.5 -96h-381q0 52 25.5 96t69.5 69.5t96 25.5t95.5 -25.5zM259 244h-122v-163h82v-41h-82v-41h122v245zM300 244v-245h122v164h-81v40h81v41h-122zM463 244v-245h122v245h-122z
M219 122h-41v81h41v-81zM544 40h-40v163h40v-163zM382 122v-82h-41v82h41z" />
    <glyph glyph-name="uni1F29" unicode="&#x1f29;" 
d="M300 256q-15 0 -24 10l-144 160q-12 14 -12 22q0 9 7.5 13.5t19.5 4.5h73v134h160v-134h74q22 0 25 -12q2 -4 2 -6q0 -9 -13 -22l-144 -160q-9 -10 -24 -10zM601 0h-600v160h600v-160z" />
    <glyph glyph-name="uni1F2A" unicode="&#x1f2a;" 
d="M536.5 83.5q19.5 -39.5 19.5 -89.5q0 -9 -5.5 -14.5t-15.5 -6.5q-13 -2 -82 -4t-154 -2t-153 2t-81 4q-10 1 -15.5 6.5t-5.5 14.5q0 50 19 90t54 62q54 34 76 73t25 73h-55q-20 30 -20 58v12l62 40q-19 19 -29.5 44.5t-10.5 52.5q0 36 18 67t49 49t67 18t67 -18t49.5 -49
t18.5 -67q0 -27 -10.5 -52.5t-29.5 -44.5l62 -40v-12q0 -28 -21 -58h-54q11 -89 101 -146q35 -23 54.5 -62.5z" />
    <glyph glyph-name="uni1F2B" unicode="&#x1f2b;" horiz-adv-x="660" 
d="M495.5 585.5q75.5 -44.5 120 -120t44.5 -165.5t-44.5 -165.5t-120 -120t-165.5 -44.5t-165.5 44.5t-120 120t-44.5 165.5t44.5 165.5t120 120t165.5 44.5t165.5 -44.5zM459 77q59 35 94 94t35 129t-35 129t-94 94t-129 35t-129 -35t-94 -94t-35 -129t35 -129t94 -94
t129 -35t129 35zM464 259h-93v-93h-82v93h-93v82h93v93h82v-93h93v-82z" />
    <glyph glyph-name="uni1F2C" unicode="&#x1f2c;" 
d="M587 587q13 -13 13 -32v-510q0 -19 -13 -32t-32 -13h-510q-19 0 -32 13t-13 32v510q0 19 13 32t32 13h510q19 0 32 -13zM41 300v-245q0 -7 4 -10.5t10 -3.5h245v259h259v245q0 6 -4 10t-10 4h-245v-259h-259z" />
    <glyph glyph-name="uni1F2D" unicode="&#x1f2d;" 
d="M12.5 13q-13.5 13 -13.5 32v510q0 19 13.5 32t32.5 13h510q19 0 32 -13t13 -32v-510q0 -19 -13 -32t-32 -13h-510q-19 0 -32.5 13zM544 41q6 0 10.5 4t4.5 10v245h-259v259h-245q-6 0 -10.5 -4t-4.5 -10v-245h260v-259h244z" />
    <glyph glyph-name="uni1F2E" unicode="&#x1f2e;" horiz-adv-x="1024" 
d="M603 577q45 -23 78 -75q-46 -6 -83 -37q-19 23 -45 33t-63 10q-48 0 -77 -16.5t-50 -56t-42 -115.5l-23 -85l-11 -39q-29 -93 -87 -143t-142 -53h-11q-19 0 -33 13.5t-14 32.5t13.5 32.5t33.5 13.5q60 0 99 32.5t60 100.5q3 8 7 24l7 22l13 48q28 107 58.5 166.5t77 87
t121.5 27.5q68 0 113 -23zM795.5 246q-32.5 -33 -78.5 -33t-78.5 32.5t-32.5 79.5q0 46 32.5 78.5t78.5 32.5t78.5 -32.5t32.5 -78.5t-32.5 -79zM1010.5 78.5q13.5 -13.5 13.5 -32.5t-14 -32.5t-33 -13.5q-161 0 -241 138q44 11 76 41q52 -83 155 -86l10 -1q20 0 33.5 -13.5
z" />
    <glyph glyph-name="uni1F2F" unicode="&#x1f2f;" horiz-adv-x="670" 
d="M650 336q14 35 14 73t-14 73t-42 62q-27 28 -62 42t-73 14t-73 -14t-63 -42l-2 -2l-2 2q-27 28 -62 42t-73 14t-73 -14t-63 -42q-27 -27 -41.5 -62.5t-14.5 -72.5t14.5 -72.5t41.5 -63.5l2 -2l271 -271l273 273q28 28 42 63z" />
    <glyph glyph-name="uni1F30" unicode="&#x1f30;" horiz-adv-x="607" 
d="M607 445q0 -8 -6 -14l-356 -356q-5 -6 -13 -6t-14 6l-212 211q-5 7 -5 14q0 8 5 13l68 68q5 5 13 5q9 0 14 -5l130 -131l276 275q6 6 13 6q8 0 14 -6l67 -67q6 -4 6 -13z" />
    <glyph glyph-name="uni1F31" unicode="&#x1f31;" 
d="M600 74q0 -17 -16 -21h-75h-1q-19 0 -21 21q-7 81 -41.5 153.5t-89.5 128.5q-56 55 -128.5 89.5t-153.5 41.5q-11 1 -16 7.5t-5 14.5v75q2 7 7.5 11.5t15.5 4.5q104 -7 196.5 -49.5t163.5 -114.5q72 -71 114.5 -163.5t49.5 -196.5v-2zM342.5 183.5
q25.5 -52.5 31.5 -111.5v-3q0 -14 -15 -16h-83q-13 2 -16 18q-10 72 -63 126q-54 53 -126 63q-16 3 -18 16v83q1 7 5.5 11.5t13.5 3.5q59 -6 111.5 -31.5t92.5 -66.5q41 -40 66.5 -92.5zM75 151q15 0 29 -6t24 -17q11 -10 17 -24t6 -29q0 -30 -23 -53q-10 -10 -24.5 -16
t-28.5 -6q-29 0 -53 22q-22 24 -22 53q0 14 6 28.5t16 24.5q23 23 53 23z" />
    <glyph glyph-name="uni1F32" unicode="&#x1f32;" horiz-adv-x="546" 
d="M116.5 93q-67.5 16 -104.5 38l-11 270q-1 11 4 17.5t13 6.5q11 0 20 -8l124 -87l86 172q9 25 25 25t26 -25l86 -172l124 87q9 8 20 8q8 0 13 -6.5t4 -17.5l-11 -270q-37 -22 -105 -38t-157 -16t-156.5 16z" />
    <glyph glyph-name="uni1F33" unicode="&#x1f33;" horiz-adv-x="414" 
d="M414 436v-86q0 -6 -4 -10t-10 -4h-136v-136q0 -6 -4 -10t-11 -4h-85q-6 0 -10 4t-4 10v136h-136q-6 0 -10 4t-4 11v85q0 6 4 10t11 4h135v136q0 6 4 10t10 4h86q6 0 10 -4t4 -10v-136h136q6 0 10 -4t4 -10zM410 110q4 -4 4 -11v-85q0 -6 -4 -10t-10 -4h-386q-6 0 -10 4
t-4 10v86q0 6 4 10q6 4 11 4h385q6 0 10 -4z" />
    <glyph glyph-name="uni1F34" unicode="&#x1f34;" 
d="M600 289q0 -64 -23 -120q-22 -55 -68 -99q-33 -32 -67 -50l1 11q0 7 -4 21q-5 10 -12 17l-28 31q26 13 47 35q32 31 47 69q15 36 17 79q0 41 -15 80q-16 41 -45 70q-27 27 -56 41q-29 15 -66 20v-45q-2 -19 -10 -22l-4 -1q-8 0 -17 11l-79 84q-6 8 -6 10q-2 6 -2 10
q0 13 8 21l81 86q10 10 18 10q13 0 13 -24l-1 -50q55 -5 101 -27q48 -22 85 -61q45 -46 65 -100t20 -107zM389 41q2 -6 2 -11q0 -13 -9 -21l-80 -86q-9 -9 -17 -9q-14 0 -14 24l1 49q-56 6 -101 28q-44 19 -85 60q-44 46 -65 101q-20 54 -20 107q0 64 23 120q21 52 68 99
q31 29 67 49l-1 -11q0 -6 4 -20q5 -9 12 -18l28 -30q-25 -13 -47 -35q-32 -32 -47 -69q-15 -36 -17 -79q0 -41 15 -80q15 -40 45 -70q27 -27 56 -42q30 -14 66 -19v44q1 19 10 22q1 1 4 1q7 0 17 -10l79 -84q5 -8 6 -10z" />
    <glyph glyph-name="uni1F35" unicode="&#x1f35;" 
d="M5 412q-5 5 -5 13v80q0 7 5 12t13 5h444v68q0 9 4 10h2q3 0 7 -4l119 -118q5 -7 5 -13q0 -9 -5 -13l-119 -119q-3 -3 -7 -3t-5 1.5t-1 6.5v68h-444q-7 0 -13 6zM595 5q-7 -5 -13 -5h-564q-6 0 -13 5q-5 7 -5 13v238q0 8 5 13q7 5 13 5h564q6 0 13 -5q5 -5 5 -13v-238
q0 -6 -5 -13zM567 68v176q0 -11 -1 -9.5t-2 2.5q-4 4 -11 4h-504q-7 0 -10 -4l-2 -2t-1.5 1t-0.5 6l-1 -174q0 -26 4 -30t10 -4h38v65h47v-65h49v65h47v-65h48v140h47v-140h49v65h47v-65h49v65h46v-65h38h2q5 0 9 4t3 30z" />
    <glyph glyph-name="uni1F36" unicode="&#x1f36;" horiz-adv-x="675" 
d="M675 497v-66q0 -33 -19 -62q-21 -33 -54 -56q-53 -38 -129 -48q-12 -22 -37 -51q-15 -15 -30 -26l-12 -10v-84h56q30 0 54 -18q21 -18 21 -48v-14q0 -6 -4 -10t-10 -4h-347q-6 0 -10 4t-4 10v14q0 30 22 48q21 18 53 18h56v84l-13 10q-20 16 -29 26q-25 29 -38 51
q-75 9 -129 48q-35 26 -53 56q-19 29 -19 62v66q0 12 8 20t20 8h122v47q0 12 8 20t20 8h319q12 0 20 -8q8 -10 8 -20v-47h122q12 0 20 -8q8 -10 8 -20zM406 356h-33q-3 0 -3 3v163q0 3 -3 3h-37q-3 0 -5 -2q-23 -12 -51 -19q-3 0 -3 -3v-30q0 -3 3 -3h35q1 0 2 -1t1 -2v-106
q0 -3 -3 -3h-41q-3 0 -3 -3v-41q0 -3 3 -3h138q3 0 3 3v41q0 3 -3 3zM165 349q-14 55 -15 101h-75v-19q0 -11 10 -27q9 -13 31 -30q22 -16 49 -25zM525 450q-1 -46 -15 -101q29 10 49 25q16 13 29 29q12 17 12 28v19h-75z" />
    <glyph glyph-name="uni1F37" unicode="&#x1f37;" 
d="M541 375h59v-49h-59v-52h59v-49h-59v-52h59v-50h-70q-6 -15 -22 -31q-11 -13 -32 -23v-69h-49v58h-52v-58h-50v58h-51v-58h-50v58h-52v-58h-49v69q-21 10 -32 23q-16 16 -22 31h-70v50h59v52h-59v49h59v52h-59v49h59v52h-59v50h70q6 15 22 31q11 13 32 23v69h49v-58h52
v58h50v-58h51v58h50v-58h52v58h49v-69q21 -10 32 -23q16 -16 22 -31h70v-50h-59v-52zM450 372q0 4 -3 6l-33 34q-3 2 -7 2t-7 -2l-136 -137l-65 65q-3 3 -7 3t-7 -3l-33 -33q-3 -3 -3 -7t3 -7l105 -105q3 -2 7 -2t6 2l177 177q3 3 3 7z" />
    <glyph glyph-name="uni1F38" unicode="&#x1f38;" horiz-adv-x="933" 
d="M850 521l-36 -83q-107 -250 -189 -438h-21l-119 281l-54 -103q-46 -87 -90 -178h-22q-4 9 -68 160l-35 79q-61 132 -105 240q-19 38 -47 66q-38 37 -64 35v20h236v-19q-26 -1 -48 -14q-18 -12 -18 -26q0 -5 3 -11l64 -147l118 -272l66 125l44 83l-43 95q-31 71 -53 117
l-9 21q-14 18 -37 23q-17 5 -45 5v20h207v-19q-25 -2 -36 -10q-10 -6 -10 -15q0 -3 4 -13l35 -76q13 -30 35 -77l30 63q22 44 40 84q4 8 4 16q0 10 -7 16q-15 11 -54 11l1 20h179v-19q-21 -1 -48 -13q-22 -12 -36 -34l-86 -179l67 -151l33 -76l178 411q-6 22 -33 33
q-19 8 -35 8v20l186 -1v-18q-57 -2 -82 -60z" />
    <glyph glyph-name="uni1F39" unicode="&#x1f39;" horiz-adv-x="690" 
d="M13 539q-11 30 -12 60l20 1q61 0 94 -30l79 -67q-14 -31 -14 -66v-62l-134 115q-22 19 -33 49zM494 501l81 69q33 30 94 30l20 -1q-1 -30 -12.5 -60t-33.5 -49l-136 -117v64q0 37 -13 64zM452.5 353q3.5 13 3.5 27q0 13 -3 21t-9 6l-83 -32q-2 0 -5 -3l21 -103l-33 -21
l-33 21l21 103l-2 2t-3 1l-84 32q-6 2 -8.5 -6t-2.5 -21q0 -15 3.5 -27.5t9.5 -15.5q2 -1 6 -1v-1h2h17l18 -1l-38 -179q-2 0 -14.5 12t-23 33.5t-10.5 50.5v186q0 39 19 72t51.5 52t71.5 19t71.5 -19t51.5 -52t19 -72v-186q0 -29 -10.5 -50.5t-23 -33.5t-14.5 -12l-38 179
l18 1h16h3v1q4 0 6 1q6 3 9.5 16zM262 94q4 -6 4 -11q0 -8 -7 -15q-26 -19 -31 -15l-46 54l-82 -58l1 -1q-8 -26 -18 -36q-15 -12 -33 -12q-22 0 -37 17q-12 15 -12 33q0 22 17 37q7 6 20 9t18 3v1l69 72l-45 52q-3 4 4 12.5t15 15.5q5 5 14 5q8 0 13 -5l37 -36l19 16
q3 -32 22 -61l4 -5l9 -10q7 -8 15 -20q17 -21 30 -42zM688 49q0 -20 -11 -32q-15 -17 -38 -17q-18 0 -33 12q-10 10 -17 36v1l-81 58l-46 -54q-5 -4 -31 15q-7 7 -7 16q0 6 3 10q15 23 31 42l26 35q19 30 22 62l21 -17l37 36q5 5 13 5q9 0 13 -5q8 -6 15 -15t4 -13l-45 -52
l70 -72l-1 -1q6 0 19 -3t19 -9q17 -14 17 -38z" />
    <glyph glyph-name="uni1F3A" unicode="&#x1f3a;" horiz-adv-x="726" 
d="M723 310q0 -5 -3 -11l-17 -20q-5 -5 -12 -5h-24q-7 0 -10 3l-36 29v-277q0 -11 -8 -21q-10 -8 -21 -8h-458q-11 0 -21 8q-8 10 -8 21v277l-36 -29q-3 -3 -10 -3h-25q-6 0 -11 5l-17 20q-3 5 -3 11q2 7 5 10l332 272q11 8 23 8t23 -8l332 -272q3 -2 5 -10zM520 260
q-6 2 -20 4q-9 0 -21 2q-5 17 -11 25q3 3 5 7l9 11l8 11l3 5q0 1 -5 8l-13 13l-13 13q-6 6 -7 6l-6 -4l-11 -8l-11 -9q-4 -2 -7 -5l-11 6l-12 3l-3 22q-2 14 -4 21q0 3 -3 3h-48q-2 0 -4 -7q-2 -5 -4 -14l-1 -15l-1 -10q-8 -2 -12 -4q-4 -1 -12 -5l-7 5q-2 2 -5 4t-6 5
q-2 2 -5 3.5t-6 4.5l-5 4q-2 0 -8 -6l-14 -13q-9 -9 -12 -13q-6 -6 -6 -8l1 -3q13 -14 25 -31q-7 -11 -10 -24l-10 -1q-5 0 -15 -2q-7 0 -14 -3q-6 -1 -6 -4v-48q0 -3 3 -3q14 -4 21 -4l21 -3q2 -9 10 -25q-3 -3 -5 -7l-9 -11l-7 -11l-4 -5q0 -2 6 -8l12 -13q9 -9 13 -12
q6 -6 8 -6l2 1l16 12q9 6 16 13q11 -7 24 -10q2 -14 2 -21q2 -14 4 -21q2 -3 4 -3h48q3 0 4 6l3 14q0 5 2 15q0 8 1 10l12 4q10 5 11 6l7 -5l12 -9l10 -8q5 -4 6 -4q2 0 8 6q9 6 13 12l13 13q5 5 5 8l-1 3q-12 14 -24 32q6 11 9 23q2 1 10 1l15 2l14 3q6 3 6 5v47q0 3 -3 4z
M407 252q4 -8 4 -19t-4 -19q-5 -10 -10 -15q-3 -4 -15 -11q-12 -4 -19 -4t-19 4q-10 5 -16 11q-5 5 -10 15q-4 12 -4 19t4 19q6 10 10 15q10 8 16 10q8 4 19 4t19 -4q8 -3 15 -10q4 -5 10 -15z" />
    <glyph glyph-name="uni1F3B" unicode="&#x1f3b;" 
d="M600 43v-39h-600v39l55 172v381h498v-381zM89 225h430v336h-430v-336zM262 525h89v-262h-89v262zM371 460h90v-197h-90v197zM152 403h90v-140h-90v140zM377 69l-4 44h-143l-6 -44h153z" />
    <glyph glyph-name="uni1F3C" unicode="&#x1f3c;" 
d="M600 43v-39h-600v39l55 172v381h498v-381zM89 225h430v336h-430v-336zM469 460q0 -4 -4 -8l-175 -175q-4 -4 -8 -4q-5 0 -8 4l-109 109q-4 6 -4 8t4 8l39 38q4 4 8 4t7 -4l63 -63l129 129q3 4 7 4q5 0 8 -4l39 -38q4 -4 4 -8zM377 69l-4 44h-143l-6 -44h153z" />
    <glyph glyph-name="uni1F3D" unicode="&#x1f3d;" 
d="M316 518h-35v82h36zM176 479l-41 71l30 18l41 -72zM439 510l-30 18l23 40l30 -18zM50 465l70 -41l-17 -30l-71 41zM525 412l-17 30l40 23l18 -30zM449 366q14 -31 14 -66q0 -54 -32 -97l-4 -5l-6 -8l-6 -6l-6 -6l-8 -6l-12 -9l-3 -2l-4 -2t-4 -3h-1q-37 -20 -78 -20h-13
q-22 3 -41 9l-5 2q-21 7 -39 21l-1 1l-17 15q-16 16 -26 33q0 1 -2 3l-2 4l-1 3l-4 7q-13 29 -13 66q0 55 32 98l3 4l7 8l6 6l6 6l8 7q5 5 12 8q2 2 3 2q4 3 8 5l0.5 0.5l0.5 0.5q36 19 78 19q45 0 82.5 -22t58.5 -59l2 -3l2 -3l2 -4zM407 221q26 36 26 79q0 29 -12 54
q0 2 -1 3l-4 8l-2 3q-1 1 -1 3q-18 29 -48.5 46t-65.5 17v-268q29 0 61 15q6 3 18 11q0 1 2 1l3 3l1 1l4 4l5 4l3 3l4 4q4 6 7 9zM82 282h-82v36h82v-36zM597 318v-36h-46v36h46zM103 206l17 -30l-70 -41l-18 30zM526 188l40 -23l-18 -30l-40 23zM176 121l30 -17l-41 -72
l-30 18zM440 90l23 -40l-31 -17l-23 40zM281 82h36l-1 -82h-35v82z" />
    <glyph glyph-name="uni1F3E" unicode="&#x1f3e;" 
d="M139 41q27 -25 62 -38t72 -13q69 0 123 41q39 29 60 71t21 88q0 66 -41 119q-17 26 -17 47q0 27 25 55l102 104q10 9 10 25q0 8 -3 15l-21 43q-6 12 -18 12q-7 0 -14 -5l-258 -193l28 -37l-56 -41l-28 37l-32 -25l-10 -7h1q-35 -29 -53.5 -69t-18.5 -83q0 -62 37 -114
q12 -16 29 -32zM245 467l13 91l-50 6l3 -101zM188 458l-49 80l-45 -34l64 -69zM133 383l-90 12l7 50l96 -31z" />
    <glyph glyph-name="uni1F3F" unicode="&#x1f3f;" horiz-adv-x="504" 
d="M500 136q0 -7 -6 -13l-67 -67q-6 -6 -14 -6q-7 0 -13 6l-150 150l-150 -150q-6 -6 -14 -6q-7 0 -13 6l-68 67q-5 7 -5 13q0 7 5 14l150 150l-150 150q-5 7 -5 14q0 8 5 13l68 67q6 6 13 6q8 0 14 -6l150 -150l150 150q6 6 13 6q8 0 14 -6l67 -67q6 -4 6 -13q0 -8 -6 -14
l-150 -150l150 -150q6 -6 6 -14z" />
    <glyph glyph-name="uni1F40" unicode="&#x1f40;" horiz-adv-x="859" 
d="M737 561l-567 -567l-49 49l567 567zM127 170q-42 31 -71 62t-33 38l-22 30l22 31q4 7 33 38t71 61q54 41 124 68q85 31 172 31q58 0 124 -16l-44 -43q-44 7 -80 7q-113 0 -207 -51.5t-152 -125.5q23 -30 61.5 -63t85.5 -59l-38 -38q-22 12 -46 30zM834 268
q0 -1 -11.5 -14t-39.5 -38t-59 -46q-60 -42 -128 -67q-83 -31 -173 -31q-58 0 -117 14l43 44q35 -6 74 -6q113 0 210 51t160 125q-25 30 -64.5 63t-87.5 58l38 38q15 -8 45 -28q31 -21 55 -43t37.5 -36.5t17.5 -19.5l25 -32zM322 361.5q17 28.5 45.5 45.5t61.5 17
q12 0 26 -3l-147 -146q-3 12 -3 25q0 33 17 61.5zM400 180l149 149q3 -13 3 -29q0 -51 -36 -87t-87 -36q-15 0 -29 3z" />
    <glyph glyph-name="uni1F41" unicode="&#x1f41;" horiz-adv-x="1064" 
d="M733.5 542.5q92.5 -37.5 146.5 -101.5t54 -140q0 -73 -50 -135.5t-135 -99.5v114h-433v-114q-85 37 -135 99.5t-50 135.5q0 76 54 140t146 101.5t201 37.5t201.5 -37.5zM654 230q0 6 -2 10l-8 15q-6 7 -11 21.5t-4 30.5l16 89q2 17 2 33q0 21 -4 32l-3 10q-7 16 -15 26.5
t-34 19.5t-73 5l-15 36l-16 -5l4 -37q-30 -13 -40 -19q3 -12 3 -15l-4 -6l-11 -10q-3 -3 -7.5 -8.5t-12.5 -13.5q-24 -24 -34 -38l-1 -5q0 -3 3 -9q17 -28 37 -28q13 0 23.5 8.5t12.5 9.5l48 -2q-19 -10 -37.5 -25.5t-28.5 -32.5l-9 -15q-5 -9 -7.5 -25t-1.5 -26l1 -14
q1 -13 5 -30h217q7 8 7 18zM620 92q0 -36 -22 -55q-22 -17 -62 -17q-19 0 -35 2v132q17 3 41 3q36 0 55 -15q23 -16 23 -50zM339 156h82v-25h-51v-31h48v-25h-48v-54h-31v135zM444 156h31v-135h-31v135zM670 46h56v-25h-86v135h83v-25h-53v-28h50v-25h-50v-32zM576 56
q12 12 12 35q0 21 -11 31.5t-32 10.5q-11 0 -13 -1v-88h10q22 0 34 12z" />
    <glyph glyph-name="uni1F42" unicode="&#x1f42;" 
d="M571.5 572q28.5 -28 28.5 -68v-408q0 -40 -28.5 -68t-67.5 -28h-408q-40 0 -68.5 28t-28.5 68v408q0 40 28.5 68t68.5 28h408q39 0 67.5 -28zM538.5 539q-18.5 19 -45.5 19h-387q-27 0 -45.5 -19t-18.5 -45v-388q0 -26 18.5 -45t45.5 -19h387q27 0 45.5 19t18.5 45v388
q0 26 -18.5 45zM314 491l45 -115l123 -6q11 -2 14 -11q1 -2 1 -5q0 -7 -6 -12l-96 -78l32 -120l1 -4q0 -8 -7 -13q-5 -3 -9 -3q-5 0 -9 3l-104 67l-103 -67q-4 -3 -9 -3q-4 0 -9 3q-4 3 -5.5 8t-0.5 9l32 120l-96 78q-6 5 -6 12t4 11t11 5l123 6l45 115q3 11 14 11
q12 0 15 -11z" />
    <glyph glyph-name="uni1F43" unicode="&#x1f43;" horiz-adv-x="760" 
d="M660 325l-83 46v-371h-394v371l-84 -46l-86 150l165 88l120 37q0 -22 24 -37.5t58 -15.5t57.5 15.5t23.5 37.5l168 -51l117 -74zM449.5 165q24.5 9 24.5 26q0 11 -15 20q5 5 5 12q0 11 -8.5 17.5t-23.5 11.5q-13 7 -15 9q-8 14 -11 72q16 2 23.5 5t7.5 12q0 13 -19 17
q9 14 9 29t-8 27.5t-21 18.5q-9 3 -18 3t-18 -3q-13 -6 -21 -18.5t-8 -27.5t9 -29q-20 -4 -20 -17q0 -9 7.5 -12t23.5 -5q-3 -58 -10 -72q-1 -2 -7.5 -5t-8.5 -4q-14 -5 -22.5 -11.5t-8.5 -17.5q0 -7 5 -12q-16 -9 -16 -20q0 -17 25 -26t70 -9t69.5 9z" />
    <glyph glyph-name="uni1F44" unicode="&#x1f44;" horiz-adv-x="800" 
d="M501 128v-87q-45 -16 -99 -16q-81 0 -150 40.5t-109.5 109t-40.5 150.5q0 81 40.5 150t109.5 109.5t150 40.5q82 0 150.5 -40.5t109 -109.5t40.5 -150q0 -54 -16 -99h-87v-98h-98zM290 434q-10 -11 -10 -30q0 -21 11 -36t27 -15t27.5 15t11.5 36q0 19 -10.5 30t-28.5 11
t-28 -11zM458 434.5q-10 -10.5 -10 -30.5q0 -21 11.5 -36t27.5 -15t27 15t11 36q0 19 -10 30t-28 11q-19 0 -29 -10.5zM574 245q0 4 -3 8q-1 1 -14 17q-1 2 -5 6t-9 4q-7 -2 -9 -6q-22 -34 -57 -53t-75 -19t-74.5 19t-56.5 53q-5 5 -10 6q-4 0 -8 -4t-5 -6q-13 -16 -14 -17
q-3 -4 -3 -8q0 -5 4 -9v-1q28 -39 72 -62t95 -23q52 0 96 23t72 62v1q4 4 4 9zM800 89v-65h-98v-98h-64v98h-98v65h98v97h64v-97h98z" />
    <glyph glyph-name="uni1F48" unicode="&#x1f48;" horiz-adv-x="790" 
d="M651.5 555q18.5 -19 18.5 -46v-564l-67 60l-38 35l-40 38l16 -59h-356q-27 0 -46 19t-19 46v425q0 27 19 46t46 19h421q27 0 45.5 -19zM543.5 178q24.5 14 37.5 33q0 50 -13 98.5t-32 84.5q-23 17 -46.5 25t-42.5 8l-4 -5q50 -15 78 -40q-44 24 -94 31q-9 1 -26 1
q-14 0 -38 -2q-3 0 -5 -1q-33 -3 -72 -19l-18 -10q29 26 83 42l-4 3q-19 0 -42.5 -8t-45.5 -25q-19 -36 -32 -84.5t-13 -98.5q12 -19 37 -33t59 -15q12 16 21 26q-20 6 -34 16.5t-21 21.5q3 -3 9 -6l1 -1l3 -1q7 -5 23 -11q19 -8 46 -14q18 -3 40 -3q20 0 41 3q26 5 46 14
q17 6 36 18q-8 -11 -22.5 -21.5t-34.5 -15.5l21 -26q34 1 58.5 15zM360.5 284q9.5 -10 9.5 -24q0 -15 -9 -25t-23 -10q-13 0 -22.5 10t-9.5 25q0 14 9.5 24t22.5 10t22.5 -10zM475.5 284q9.5 -10 9.5 -24q0 -15 -9 -25t-23 -10t-23 10t-9 25q0 14 9.5 24t22.5 10t22.5 -10z
" />
    <glyph glyph-name="uni1F49" unicode="&#x1f49;" 
d="M601 61q0 -16 -23 -39q-24 -22 -39 -22q-12 0 -23 11l-118 119q-64 -42 -141 -42q-51 0 -98 19t-84 56t-56 84t-19 97t19 97t56 84q38 37 85 56t97 19t97 -19t84 -56t56 -84t19 -97q0 -75 -43 -141l119 -119q12 -12 12 -23zM184.5 167.5q35.5 -14.5 72.5 -14.5t72.5 14.5
t62.5 41.5t41.5 62.5t14.5 72.5t-14.5 72.5t-41.5 62.5q-27 28 -62 42t-73 14t-73 -14t-63 -42q-27 -27 -41 -62t-14 -73t14 -73t41 -62q28 -27 63.5 -41.5zM394 399q0 -4 -4 -8l-162 -162q-3 -3 -7 -3q-5 0 -8 3l-94 94q-4 4 -4 8q0 3 4 7l37 37q3 3 8 3q4 0 7 -3l49 -50
l118 119q8 7 15 0l37 -38q4 -3 4 -7z" />
    <glyph glyph-name="uni1F4A" unicode="&#x1f4a;" 
d="M600 43v-39h-600v39l55 172v381h498v-381zM519 561h-430v-336h430v336zM414 365q0 6 -6 8t-22 4q-27 4 -41 12t-14 30q0 20 16.5 32t46.5 12q34 0 53 -12l-13 -28q-17 10 -40 10q-25 0 -25 -12q0 -7 7 -9.5t22 -4.5q26 -4 40 -12t14 -29q0 -20 -17.5 -32t-47.5 -12
q-17 0 -33.5 4t-26.5 11l14 28q9 -6 22 -9.5t25 -3.5q26 0 26 13zM206 324l-58 137h41l38 -93l40 93h38l-58 -137h-41zM376 69l-4 44h-143l-6 -44h153z" />
    <glyph glyph-name="uni1F4B" unicode="&#x1f4b;" 
d="M450 610.5q69 -40.5 109.5 -109t40.5 -150.5t-40.5 -150.5t-109.5 -109t-150 -40.5q-82 0 -150.5 40.5t-109 109t-40.5 150.5t40.5 150.5t109 109t150.5 40.5q81 0 150 -40.5zM210.5 566.5q-42.5 -17.5 -75.5 -50.5t-51 -76t-18 -89t18 -89t51 -76t75.5 -50.5t89.5 -17.5
t89.5 17.5t75.5 50.5t50.5 75.5t17.5 89.5t-17.5 89.5t-50.5 75.5t-75.5 50.5t-89.5 17.5t-89.5 -17.5zM321 186v38q39 4 61 26q21 21 21 54q0 29 -18 47q-17 18 -59 34q-19 5 -32 12q-12 5 -16 9t-4 11q0 8 6 11q5 4 22 4q33 0 74 -18l24 56q-43 18 -79 19v27h-41v-27
q-41 -4 -63 -23q-21 -18 -21 -51q0 -19 7 -35q6 -13 23 -26q14 -11 40 -21q18 -6 36 -14q16 -8 18 -10q6 -4 6 -11q0 -9 -8 -14q-10 -4 -24 -4q-20 0 -47 8q-26 7 -50 20v-66q43 -18 83 -19v-37h41z" />
    <glyph glyph-name="uni1F4C" unicode="&#x1f4c;" 
d="M601 61q0 -16 -23 -39q-24 -22 -39 -22q-12 0 -23 11l-118 119q-64 -42 -141 -42t-141 42q-55 36 -85 93t-30 121q0 79 42 141q36 55 93 85t121 30q79 0 141 -42q55 -36 85 -93.5t30 -120.5q0 -76 -43 -141l119 -119q12 -12 12 -23zM431.5 271.5q14.5 35.5 14.5 73.5
q0 37 -14 72t-40 62l-4 4q-27 26 -62 40t-72 14q-38 0 -73.5 -14.5t-62.5 -43.5q-27 -27 -40.5 -61.5t-13.5 -71.5q0 -38 14.5 -74t43.5 -63q27 -27 61.5 -40.5t71.5 -13.5t71.5 13.5t61.5 40.5q29 27 43.5 62.5zM376 385v-2q0 -5 -3 -8l-58 -47l19 -72v-3q0 -4 -4 -7
q-1 -2 -5 -2t-5 1l-63 41l-63 -41q-1 -1 -5 -1t-6 2q-5 3 -3 10l19 72l-58 47q-3 3 -3 8q0 4 2.5 6.5t6.5 2.5l74 4l27 70q1 2 3.5 4t5.5 2q5 0 9 -6l27 -70l74 -4q7 0 9 -7z" />
    <glyph glyph-name="uni1F4D" unicode="&#x1f4d;" 
d="M377 412h-153h-2q-73 0 -101 20q-21 14 -32 36t-11 48q0 31 20 59q14 20 36 31t46 11q34 0 60 -19q28 -21 52 -92l8 -29l9 29q24 71 52 92q26 19 60 19q25 0 46 -11t36 -31q19 -26 19 -60q0 -25 -11 -47t-31 -36q-29 -20 -101 -20h-2zM361.5 456.5q9.5 0.5 16.5 0.5
q54 0 76 11q11 8 17.5 21t6.5 26q0 17 -11 33q-16 24 -47 24q-19 0 -33 -11q-11 -8 -23 -38t-22 -66q10 -1 19.5 -0.5zM186 459q28 -2 73 -2q-2 6 -4 15t-6 20q-19 57 -35 69q-14 11 -34 11q-13 0 -25.5 -6t-20.5 -18q-11 -14 -11 -32q0 -31 24 -48q11 -7 39 -9zM6.5 382
q6.5 6 15.5 6h258v-143h-258q-9 0 -15.5 6t-6.5 15v101q0 9 6.5 15zM594 382q6 -6 6 -15v-101q0 -9 -6 -15t-15 -6h-265v143h265q9 0 15 -6zM280 228v-245h-221q-9 0 -15.5 6.5t-6.5 14.5v224h243zM557 228v-224q0 -8 -6.5 -14.5t-14.5 -6.5h-222v245h243z" />
    <glyph glyph-name="uni1F50" unicode="&#x1f50;" horiz-adv-x="1120" 
d="M860 0h-546l-128 -129l-54 56l129 128v545h546l128 129l54 -56l-129 -128v-545zM346 86l429 428h-429v-428z" />
    <glyph glyph-name="uni1F51" unicode="&#x1f51;" horiz-adv-x="1120" 
d="M861 152v-152h-600v267l-178 -87l-37 77l215 105v238h600v-352l177 86l37 -77zM338 400l95 46l272 -274l78 38v313h-445v-123z" />
    <glyph glyph-name="uni1F52" unicode="&#x1f52;" horiz-adv-x="1120" 
d="M860 0h-261v-171h-77v171h-261v600h261v171h77v-171h261v-600zM775 519h-208v-442h208v442z" />
    <glyph glyph-name="uni1F53" unicode="&#x1f53;" horiz-adv-x="1120" 
d="M1033 261h-172v-261h-599v261h-172v78h172v261h599v-261h172v-78zM343 514v-208h441v208h-441z" />
    <glyph glyph-name="uni1F54" unicode="&#x1f54;" horiz-adv-x="1120" 
d="M1118 240l-62 -60l-140 136l-56 -76v-240h-600v240l-58 77l-139 -126l-60 63l212 192l45 -60v214h600v-214l46 61zM346 270l42 -56l172 189l172 -189l42 57v243h-428v-244z" />
    <glyph glyph-name="uni1F55" unicode="&#x1f55;" horiz-adv-x="1120" 
d="M860 0h-257v-171h-85v171h-257v257h-172v86h172v257h599v-600zM775 514h-429v-171h257v-257h172v428z" />
    <glyph glyph-name="uni1F56" unicode="&#x1f56;" horiz-adv-x="1120" 
d="M860 301v-301h-599v178l-152 -31l-20 74l172 35v344h599v-221l152 31l20 -74zM346 274l429 88v152h-429v-240z" />
    <glyph glyph-name="uni1F59" unicode="&#x1f59;" 
d="M327 183h22q9 0 15.5 -6.5t6.5 -15.5v-139q0 -9 -6.5 -15.5t-15.5 -6.5h-97q-9 0 -15.5 6.5t-6.5 15.5v139q0 9 6.5 15.5t15.5 6.5h22v234h-22q-9 0 -15.5 6.5t-6.5 15.5v139q0 9 6.5 15.5t15.5 6.5h97q9 0 15.5 -6.5t6.5 -15.5v-139q0 -9 -6.5 -15.5t-15.5 -6.5h-22
v-234zM238 327v-54h-55v-22q0 -9 -6.5 -15t-15.5 -6h-139q-9 0 -15.5 6t-6.5 15v98q0 9 6.5 15t15.5 6h139q9 0 15.5 -6t6.5 -15v-22h55zM594 364q6 -6 6 -15v-98q0 -9 -6 -15t-15 -6h-140q-9 0 -15 6t-6 15v22h-55v54h55v22q0 9 6 15t15 6h140q9 0 15 -6z" />
    <glyph glyph-name="uni1F5B" unicode="&#x1f5b;" 
d="M600 331v-62q0 -3 -8 -6q-6 -2 -18 -4l-20 -3l-102 -1q-3 -14 -12 -31q20 -28 32 -41l2 -4q0 -1 -8 -11l-16 -17q-12 -12 -18 -16q-8 -8 -11 -8l-7 5l-14 11q-10 8 -15 11l-9 7q-5 -3 -15 -7q-9 -4 -16 -5l-1 -102l-3 -20q-2 -12 -4 -19q-2 -8 -5 -8h-63q-3 0 -5 5
q-3 8 -5 27l-1 58q-1 16 -1 32.5t-1 25.5q-17 5 -31 13q-10 -8 -22 -16q-7 -5 -21 -17l-3 -1q-1 0 -9 8q-6 4 -18 16l-16 17q-7 8 -7 11l4 7l10 14l11 14l7 10q-8 12 -13 32q-6 1 -51 2t-66 1q-14 2 -26 6q-5 2 -5 5v62q0 3 8 6l19 4q12 2 19 2q7 1 102 1q5 17 13 31
q-13 20 -32 42l-2 4q0 1 7 10l17 17l18 17q7 7 10 7q2 0 7 -5q4 -2 7.5 -5t7.5 -6l15 -11q6 -6 8 -6l16 7q2 1 16 5q0 95 1 102q0 6 2 20l4 18q3 8 6 8h63q4 0 5 -4q2 -9 4 -27l1 -42q2 -71 3 -75q7 -1 16 -5q10 -4 15 -7l9 7l14 11l15 11q5 4 7 4q3 0 10 -7l17 -17l17 -17
q7 -7 7 -10l-5 -8l-10 -14l-11 -15l-7 -8q10 -16 14 -33q21 -1 58 -2t58 -1q19 -2 27 -5q4 -1 4 -5zM364 300q0 12 -5 25q-8 14 -14 20q-7 8 -20 13q-10 5 -24 5q-15 0 -25 -5q-13 -5 -21 -13q-9 -11 -13 -20q-5 -10 -5 -25q0 -14 5 -24q4 -11 13 -20q10 -10 21 -14
q10 -5 25 -5q14 0 24 5q12 5 20 14q7 6 14 20q5 13 5 24z" />
    <glyph glyph-name="uni1F5D" unicode="&#x1f5d;" horiz-adv-x="700" 
d="M10 453q-10 9 -10 22v49q0 13 10 22q9 9 23 9l273 -1q14 0 23 -9t9 -22v-49q0 -13 -9 -22q-10 -10 -23 -10l-273 1q-13 0 -23 10zM700 274q0 -12 -9 -23l-198 -197q-9 -9 -22 -9q-12 0 -23 9l-197 197q-10 10 -10 23t10 22l33 34q9 9 22 9t23 -9l86 -87v280q0 13 9 22
t23 9h48q13 0 22 -9t9 -22v-280l87 87q9 9 22 9t22 -9l34 -34q9 -9 9 -22zM10 259q-10 9 -10 22v48q0 14 10 23q9 10 23 10l107 -1q13 0 22 -10q9 -9 9 -23v-48q0 -13 -9 -22t-22 -9l-107 1q-14 0 -23 9zM252 158q9 -9 9 -23v-48q0 -14 -9 -23t-23 -9l-196 1q-14 0 -23 9
q-10 9 -10 23v48q0 14 10 23q9 9 23 9l196 -1q14 0 23 -9z" />
    <glyph glyph-name="uni1F5F" unicode="&#x1f5f;" horiz-adv-x="700" 
d="M143 527.5q3 3.5 8 3.5q55 2 97 19t93 60q4 4 9 4q6 0 9 -4q51 -43 93.5 -60t96.5 -19q5 0 8.5 -3.5t3.5 -8.5v-137h-136h-2q-14 0 -17 5q-1 0 1 5q2 7 12 19q8 11 12 20t4 26q0 29 -27 45q-25 15 -55 15h-3q-31 0 -56 -15q-27 -17 -27 -45q0 -16 4 -25t13 -21
q8 -10 12 -19q1 -2 1 -6q-4 -4 -20 -4h-137v137q0 5 3 8.5zM12.5 544.5q-11.5 30.5 -12.5 61.5l21 1q60 0 95 -30l31 -27q-10 -1 -18 -9q-9 -7 -9 -22v-87l-74 63q-22 19 -33.5 49.5zM572 541q-7 7 -18 9l30 27q35 30 95 30l21 -1q-1 -31 -12.5 -61.5t-33.5 -49.5l-73 -63
v87q0 13 -9 22zM513 220q-48 -59 -153 -129q-3 -3 -10 -3q-6 0 -10 3q-104 71 -152 129.5t-48 135.5v6h137q28 0 37 13q3 5 3 12q0 8 -3 13q-5 13 -14 24q-7 8 -9.5 14t-2.5 19q0 18 19 28.5t43 10.5h3q24 0 43 -10.5t19 -28.5q0 -12 -2.5 -18.5t-9.5 -14.5q-9 -11 -15 -24
q-3 -6 -3 -12q0 -8 4 -12q8 -14 33 -14h3h136v-6q0 -77 -48 -136zM266 92q3 -6 3 -11q0 -10 -7 -16q-26 -20 -31 -15l-45 53h-1l-83 -58q0 -1 -4.5 -15t-13.5 -21q-13 -13 -33 -13q-23 0 -38 18q-13 13 -13 33q0 23 18 38q9 8 23.5 10.5t15.5 2.5h-1l71 74l-46 53q-3 3 4 12
t16 16q5 5 13 5q9 0 13 -5q17 -14 38 -37l1 1q5 -7 11 -14q26 -32 64 -63l-6 -5q9 -11 31 -43zM700 47q0 -18 -12 -33q-15 -18 -38 -18q-20 0 -33 13q-7 6 -12.5 19.5t-5.5 16.5h-1l-83 58l-45 -53q-7 -6 -31 15q-7 6 -7 16q0 5 3 11l30 43l-5 5q41 35 64 63q-1 -1 11 14
l1 -1q19 21 37 37q5 5 14 5q8 0 13 -5q9 -7 16 -16t4 -12l-46 -53l70 -74q1 0 15.5 -2.5t23.5 -10.5q17 -15 17 -38z" />
    </font>
</defs>
</svg>
